<svg width="286.0482568441269" height="278.9066650390625" viewBox="0 0 270.00000000000006 263.25907520416"
     class="css-1j8o68f">
  <defs id="SvgjsDefs4687"></defs>
  <g id="SvgjsG4688" featurekey="rootContainer"
     transform="matrix(2.5809712409973145,0,0,2.5809712409973145,0.03043251690621314,0)" fill="#f33535">
    <path xmlns="http://www.w3.org/2000/svg"
          d="M50.8 102h5.8l1.8-.2 1.7-.3h1.7l1.9-.3 1.8-.4.9-.2.9-.3 1.7-.6 2-.8a54 54 0 0 0 15.3-9.4l1.4-1.2.7-.5.6-.4 1-.5.8-.5 1.5-1.2 1.5-1.5.8-1 .9-1.1a50.9 50.9 0 0 0 3.9-5.8 34.8 34.8 0 0 0 1.6-3.1l.2-.4.2-.4.3-.8.3-.9.2-.4v-.4l.4-1.2.2-.6v-.3h.1v-.2l.7-2.5c.2-.9.4-1.7.5-2.6a25.4 25.4 0 0 0 .2-2.6v-3.1c0-.3 0-1 .1-1.5v-2.1a21.3 21.3 0 0 0 .2-2.6v-2.6c0-.9-.1-1.1-.1-1.6l-.2-1.5c-.1-1-.4-2-.5-3s-.2-1-.3-1.4l-.3-1.4-.3-1.4v-1.7l-.4-1.4-.2-.7-.2-.7-.4-1.4-.5-1.4-.4-1-.5-1-1-2.1a40.7 40.7 0 0 1-1.8-4.1 3.6 3.6 0 0 0-.8-1.2l-.7-.6-.2-.3-.3-.5a25.7 25.7 0 0 0-1.6-2.3l-.8-1.1-.9-1.1-.4-.5-.2-.3-.2-.2h-.1l-.9-1-.5-.5-.5-.5-.9-1.1-1.1-1a47.9 47.9 0 0 0-3.8-3l-.1-.5-1.3-.9A29 29 0 0 0 72 .4h-3.1a.8.8 0 0 0-.6 1.2A3.9 3.9 0 0 0 69.9 3l-.6.3-.4-.2a.9.9 0 0 0 0-.3c-.1-.5-.2-.9-1.3-1.3L65.3.7l-.6-.2h-.6L62.8 0l-1.3 1.2A48.5 48.5 0 0 0 39 2.4 31.1 31.1 0 0 0 31.4 4h-.5l-.5.2-1 .4-1 .5-.9.6-1.8 1.5-.8.6-.7.7c-1 .9-1.9 1.9-2.8 2.8L20 12.8l-1.4 1.5-.5.5-.5.5-1.1 1a55.1 55.1 0 0 0-7 7l.2-.5.6-1.1.6-1.1.6-1.1.6-1.2.6-1.2 1.2-2.4.4-.8.3-.6a1 1 0 0 0 0-.8 3.7 3.7 0 0 1-.2-1.2 17.1 17.1 0 0 0-2.1 1.1l-1.5 1.1-.8.6-.7.7-.8 1-.5 1-.5 1-.2.5-.3.5-.3.6-.4.8-.4.8-.7 1.7-.5 1.3-.5 1.3v.7l-.2.6-.3 1.3v.2h-.4v.3l-.2.7-.3 1.4-.2.7-.2.7-.4 1.7-.4 1.9-.2.9v2.8l-.6 1.9a38.3 38.3 0 0 0-.1 4.1 52.7 52.7 0 0 0-.7 8.7 5.2 5.2 0 0 0 0 .7c.5 3 .8 6 1.5 9l.4 1.8.5 1.8a18.3 18.3 0 0 0 .6 1.7l.4.8.4.8.9 1.7.5.8.5.8.5.8.5.8L7.8 77c1.4 2 2.9 4 4.5 5.9a35.6 35.6 0 0 0 2.6 2.7l.7.6.3.3.4.3 1.5 1.1 1 1a34 34 0 0 0 8.2 6.2l1.4.7 1.5.7.7.3.8.3 1.5.6.9.4.8.4.8.4 1 .4 1.9.7 1.9.6 1.6.4 1.6.4 1.6.3h5.7z"></path>
  </g>
  <g id="SvgjsG4689" featurekey="symbolFeature-0"
     transform="matrix(1.0584499835968018,0,0,1.0584499835968018,96.56734625072426,47.913834860804826)" fill="#d8e9f0">
    <g xmlns="http://www.w3.org/2000/svg">
      <rect x="-4.152" y="14.552" transform="matrix(0.5827 -0.8127 0.8127 0.5827 -8.0535 16.6112)" width="32.6"
            height="3.19"></rect>
      <path
        d="M22.941,6.635c0,0,0.537,1.59,0.924,3.925l32.284,28.205l-2.103,2.974L24.235,15.963   c-0.257,6.632-3.557,14.215-17.623,13.301l41.704,23.135l10.518-13.634L22.941,6.635z"></path>
      <polygon points="53.139,47.794 57.599,50.405 59.848,47.686 56.149,43.841  "></polygon>
      <path
        d="M70.438,62.118l-9.284-12.476c-1.885-0.941-1.667,1.09-1.667,1.09c8.291,11.459-0.871,5.439-7.036,10.516   c-6.164,5.077,4.425,10.517,12.62,8.195C73.267,67.122,70.438,62.118,70.438,62.118z M52.595,64.513   c-0.868-2.466,4.28-3.482,4.28-3.482c-8.994,3.917,6.963,6.89,6.963,6.89C60.139,69.37,53.468,66.978,52.595,64.513z"></path>
    </g>
  </g>
  <g id="SvgjsG4690" featurekey="nameFeature-0"
     transform="matrix(1.5657289028167725,0,0,1.5657289028167725,33.884960196186775,126.93050698107709)" fill="#d8e9f0">
    <path
      d="M3.88 21.2 c0.4 0.56 0.84 1.08 1.32 1.6 c0.36 0.44 0.8 0.72 1.28 0.96 c0.36 0.12 0.68 0.28 1 0.44 c0.56 0.36 1.04 0.72 1.48 1.16 c0.4 0.4 0.8 0.84 1.24 1.16 c0.12 0.12 0.2 0.24 0.36 0.36 l0.32 0 c0.12 0.04 0.2 0.08 0.28 0.16 c0.28 0.28 0.48 0.6 0.56 1 c0.04 0.32 0.12 0.64 0.24 0.96 c0.12 0.4 0.16 0.84 0.2 1.28 l0 1.16 c0 0.2 0 0.44 0.12 0.64 c0.04 0.08 0.04 0.2 0.04 0.32 c0.04 0.24 0.04 0.48 0.08 0.68 c0.08 0.56 0.08 1.08 -0.04 1.64 c-0.04 0.08 -0.04 0.2 -0.04 0.32 c-0.04 0.08 -0.04 0.2 -0.08 0.32 c-0.16 0.4 -0.24 0.84 -0.4 1.28 c0 0.04 -0.04 0.12 -0.08 0.16 c-0.2 0.28 -0.36 0.6 -0.56 0.88 c-0.08 0.12 -0.16 0.24 -0.28 0.36 c-0.32 0.08 -0.64 0.2 -0.96 0.4 c-0.08 0.08 -0.2 0.12 -0.36 0.12 c-0.12 0 -0.28 0.04 -0.44 0.04 c-0.24 0.04 -0.4 0.12 -0.56 0.32 s-0.36 0.28 -0.6 0.32 l-0.2 0 c-0.24 0.04 -0.52 0.12 -0.76 0.12 c-0.28 0 -0.52 -0.08 -0.76 -0.12 l-0.4 0 c-0.24 0 -0.48 -0.04 -0.68 -0.16 c-0.36 -0.16 -0.76 -0.28 -1.12 -0.36 c-0.28 -0.08 -0.52 -0.2 -0.76 -0.36 s-0.48 -0.32 -0.72 -0.44 c-0.6 -0.32 -1 -0.88 -1.36 -1.48 c-0.04 -0.2 -0.12 -0.4 -0.12 -0.6 c-0.04 -0.4 -0.16 -0.76 -0.2 -1.16 c-0.12 -0.6 -0.24 -1.2 -0.2 -1.8 c0.04 -0.2 0.04 -0.4 0.08 -0.6 c0.04 -0.28 0.08 -0.56 0.08 -0.84 c0 -0.16 0 -0.32 0.04 -0.48 c0.12 -0.28 0.08 -0.52 0.04 -0.76 c-0.08 -0.24 -0.12 -0.44 -0.2 -0.68 c0.08 -0.2 0.16 -0.4 0.24 -0.64 c0.04 -0.12 0.16 -0.2 0.28 -0.2 l0.48 0 c0.44 -0.04 0.92 -0.04 1.36 -0.04 c0.2 0 0.32 0.08 0.44 0.2 c0.08 0.08 0.12 0.16 0.12 0.24 c-0.04 0.24 0 0.44 0.2 0.6 c0.08 0.08 0.12 0.2 0.08 0.36 c-0.04 0.08 -0.08 0.2 -0.12 0.32 c-0.08 0.2 -0.12 0.44 -0.08 0.68 c0.08 0.24 0.04 0.52 0.08 0.76 c0 0.28 -0.04 0.52 0.08 0.8 c0.04 0.12 0.04 0.24 0 0.36 c-0.12 0.36 -0.08 0.68 -0.04 1.04 c0 0.16 0.08 0.32 0.24 0.44 c0.36 0.32 0.72 0.6 1.2 0.76 c0.12 0.04 0.28 0.12 0.4 0.16 c0.2 0.08 0.4 0.12 0.64 0.12 c0.16 0 0.36 0 0.52 0.08 c0.56 0.12 1.08 0.04 1.6 -0.16 c0.2 -0.04 0.4 -0.16 0.6 -0.24 c0.16 -0.44 0.32 -0.84 0.28 -1.32 l0 -2.84 l0 -0.4 c0 -0.28 -0.08 -0.52 -0.36 -0.64 c-0.08 -0.08 -0.16 -0.16 -0.2 -0.28 c-0.08 -0.36 -0.32 -0.64 -0.6 -0.88 c-0.52 -0.48 -1 -0.96 -1.52 -1.44 c-0.12 -0.08 -0.2 -0.2 -0.36 -0.24 c-0.16 0 -0.36 -0.08 -0.48 -0.16 c-0.28 -0.16 -0.56 -0.24 -0.88 -0.32 c-0.8 -0.2 -1.52 -0.56 -2.12 -1.12 c-0.52 -0.48 -0.84 -1.04 -1.16 -1.56 c-0.16 -0.24 -0.28 -0.52 -0.4 -0.76 c-0.2 -0.36 -0.24 -0.8 -0.36 -1.16 c-0.04 -0.08 0 -0.16 0 -0.2 c0.08 -0.28 0.12 -0.52 -0.04 -0.76 c-0.04 -0.48 -0.16 -0.92 -0.12 -1.4 c0.04 -0.44 0.08 -0.88 0.04 -1.32 l0 -0.16 c0.12 -0.32 0.12 -0.6 0.12 -0.92 l0 -1.88 c-0.04 -0.4 0.08 -0.76 0.32 -1.08 c0.08 -0.12 0.12 -0.2 0.2 -0.28 c0.28 -0.36 0.6 -0.76 0.92 -1.12 c0.04 -0.08 0.12 -0.12 0.24 -0.2 c0.36 -0.16 0.64 -0.4 0.96 -0.64 c0.24 -0.2 0.52 -0.36 0.84 -0.48 c0.28 -0.08 0.52 -0.24 0.8 -0.24 c0.12 0 0.24 -0.04 0.4 -0.04 c0.32 0 0.64 -0.04 0.96 -0.08 c0.2 -0.04 0.44 0 0.64 0.04 c0.36 0.04 0.68 0.08 1.04 0.08 c0.24 0.04 0.52 0.04 0.76 0.12 c0.2 0.04 0.4 0.16 0.6 0.28 c0.32 0.2 0.56 0.52 0.76 0.84 c0.16 0.24 0.28 0.48 0.48 0.68 c0.12 0.16 0.24 0.32 0.28 0.52 c0.04 0.12 0.08 0.24 0.16 0.36 c0.12 0.36 0.24 0.72 0.28 1.12 c0.04 0.16 0.08 0.32 0.08 0.44 c0.04 0.32 0.16 0.6 0.4 0.8 c0.12 0.08 0.12 0.16 0.12 0.28 c0 0.48 0 0.96 -0.04 1.44 c-0.08 0.36 -0.08 0.72 -0.08 1.08 c0 0.52 -0.04 1 -0.16 1.48 c-0.04 0.2 -0.04 0.36 0 0.52 c0.04 0.12 0.04 0.2 0.04 0.32 c0 0.08 0 0.12 -0.04 0.2 c-0.16 0.16 -0.32 0.28 -0.52 0.36 c-0.44 0.12 -0.88 0.2 -1.36 0.28 c-0.04 0.04 -0.12 0 -0.16 -0.04 c-0.12 -0.12 -0.28 -0.28 -0.4 -0.44 c0 -0.04 -0.04 -0.12 -0.04 -0.16 c-0.04 -0.28 -0.08 -0.52 -0.08 -0.8 c0.04 -0.36 0 -0.72 0 -1.08 c0 -0.28 0.04 -0.56 -0.04 -0.84 c-0.04 -0.04 -0.04 -0.08 -0.04 -0.12 c0.08 -0.72 -0.12 -1.44 -0.28 -2.12 c0 -0.04 0 -0.08 -0.04 -0.12 c-0.2 -0.36 -0.36 -0.8 -0.68 -1.12 c-0.2 -0.24 -0.44 -0.48 -0.68 -0.68 c-0.28 -0.24 -0.6 -0.36 -0.88 -0.52 l-0.2 0 c-0.44 0 -0.84 0.16 -1.24 0.36 c-0.08 0.04 -0.12 0.12 -0.2 0.16 l-0.56 0.56 s-0.4 0.4 -0.44 0.68 c0 0.12 -0.04 0.2 -0.04 0.28 c-0.04 0.08 -0.08 0.2 -0.04 0.32 c0.04 0.32 -0.16 0.68 -0.12 1 l0 2.88 c0 0.16 0.04 0.32 0.04 0.52 z M15.526000000000002 25.16 l0 -11.2 c0 -0.28 0 -0.56 0.04 -0.84 c0.04 -0.16 0.04 -0.32 0.04 -0.52 l0 -0.64 c0 -0.08 0.08 -0.16 0.16 -0.2 c0.12 -0.04 0.24 -0.08 0.36 -0.08 c0.12 -0.04 0.24 -0.08 0.32 -0.12 c0.12 -0.12 0.24 -0.16 0.4 -0.16 s0.28 0 0.4 -0.04 c0.4 0 0.8 0 1.16 -0.08 c0.24 -0.04 0.48 0 0.72 0.04 c0.32 0.08 0.68 0.08 1.04 0 c0.28 -0.04 0.56 -0.04 0.84 0 c0.2 0.08 0.44 0 0.64 0 c0.16 0 0.32 -0.04 0.44 0 c0.24 0.04 0.48 0.04 0.72 0 c0.08 -0.04 0.16 0 0.28 0 c0.2 0.04 0.4 0.12 0.6 0.16 c0.32 0.04 0.6 0.12 0.84 0.36 c0.04 0.04 0.08 0.08 0.16 0.08 c0.2 0.08 0.4 0.2 0.52 0.36 c0.4 0.2 0.68 0.52 1.04 0.8 c0.04 0.04 0.08 0.04 0.08 0.08 c0.2 0.36 0.52 0.6 0.72 0.92 c0.12 0.16 0.24 0.32 0.24 0.52 c0.04 0.12 0.08 0.2 0.16 0.32 c0 0.04 0.08 0.12 0.08 0.16 c0 0.44 0.2 0.84 0.24 1.28 c0.08 0.64 0.24 1.24 0.48 1.8 c0.08 0.2 0.12 0.36 0.16 0.52 c0 0.12 0 0.24 0.04 0.4 c0 0.16 0 0.28 0.04 0.44 c0.04 0.24 0.12 0.52 0.16 0.76 s-0.04 0.48 0 0.72 c0.04 0.28 0.04 0.6 -0.08 0.88 c-0.08 0.32 -0.12 0.6 -0.08 0.92 c0 0.28 -0.04 0.52 -0.2 0.76 c-0.16 0.2 -0.16 0.48 -0.12 0.76 c0.04 0.4 -0.04 0.76 -0.2 1.12 c-0.12 0.32 -0.16 0.64 -0.2 0.96 c-0.04 0.08 -0.04 0.16 -0.08 0.24 c-0.12 0.24 -0.24 0.48 -0.32 0.72 c-0.04 0.08 -0.12 0.12 -0.16 0.2 c-0.08 0.08 -0.16 0.16 -0.2 0.24 c-0.16 0.36 -0.4 0.6 -0.64 0.84 c-0.12 0.12 -0.2 0.28 -0.36 0.36 c-0.12 0.12 -0.28 0.16 -0.44 0.24 c-0.2 0.04 -0.36 0.16 -0.52 0.28 c-0.08 0.12 -0.2 0.2 -0.28 0.28 c-0.12 0.08 -0.2 0.16 -0.36 0.12 c-0.32 0 -0.6 0.08 -0.88 0.2 c-0.4 0.16 -0.84 0.24 -1.28 0.24 c-0.28 -0.04 -0.52 0.04 -0.76 0.08 l-0.32 0 c-0.24 -0.08 -0.48 -0.08 -0.72 -0.08 c-0.32 0.04 -0.64 0 -0.96 -0.08 c-0.16 -0.04 -0.32 -0.04 -0.48 -0.04 c-0.08 0 -0.2 0.12 -0.2 0.24 l0 0.6 l0 4.8 c0 0.72 -0.04 1.44 -0.16 2.16 c-0.08 0.36 -0.24 0.64 -0.4 0.96 c0 0.04 -0.08 0.12 -0.12 0.12 c-0.2 0.08 -0.4 0.04 -0.56 0.2 l-0.04 0 c-0.36 0 -0.72 0.04 -1.08 0 c-0.2 0 -0.32 -0.12 -0.44 -0.32 c-0.16 -0.4 -0.32 -0.76 -0.36 -1.2 c-0.08 -0.52 -0.12 -1.04 -0.12 -1.56 l0 -11.08 l0 0 z M18.806 20.76 l0 1.16 l0 4.24 l0 0.6 c0 0.12 0.12 0.2 0.2 0.2 c0.2 0.04 0.4 0.04 0.6 0.04 c0.16 0 0.28 0 0.44 0.04 c0.44 0.04 0.84 0.04 1.24 0.04 c0.68 0 1.28 -0.12 1.92 -0.4 c0.44 -0.16 0.8 -0.48 1.08 -0.92 c0.24 -0.4 0.44 -0.88 0.48 -1.4 c0.08 -0.56 0.16 -1.16 0.28 -1.72 c0.16 -0.6 0.2 -1.2 0.2 -1.8 c0 -0.36 -0.04 -0.72 -0.12 -1.04 c-0.12 -0.48 -0.24 -0.96 -0.32 -1.48 c-0.16 -0.72 -0.4 -1.44 -0.6 -2.2 c-0.04 -0.16 -0.12 -0.28 -0.24 -0.36 c-0.28 -0.24 -0.52 -0.52 -0.8 -0.76 c-0.24 -0.2 -0.52 -0.32 -0.84 -0.32 c-0.52 -0.04 -1.04 -0.16 -1.56 -0.04 l-0.44 0 l-1.08 0 l-0.24 0 s-0.2 0.12 -0.2 0.2 l0 0.64 l0 5.28 z M32.292 11.600000000000001 c0.16 -0.04 0.28 -0.08 0.4 -0.12 c0.52 -0.24 1.08 -0.2 1.64 -0.2 c0.08 0 0.12 0 0.16 0.04 c0.56 0.12 0.68 0.08 0.72 0.76 c0 0.72 0.04 1.48 0.04 2.2 l0 20.8 l0 0.72 c0 0.28 0.04 0.36 0.36 0.36 l0.44 0 c0.6 0.12 1.16 0 1.72 -0.12 c0.52 -0.12 1.04 -0.2 1.56 -0.2 l3.84 0 c0.08 0 0.16 0.04 0.28 0.04 c0.2 0.72 0.24 1.44 0.2 2.2 c0 0.16 -0.04 0.32 -0.08 0.48 c-0.04 0.2 -0.2 0.32 -0.4 0.36 c-0.24 0.04 -0.48 0.04 -0.72 0.04 c-0.6 0 -1.2 0 -1.84 -0.04 c-0.8 0 -1.64 0.08 -2.44 0.24 c-0.16 0.04 -0.28 0.04 -0.44 0.08 c-0.36 0.04 -0.68 0.08 -1.04 0.08 l-0.84 0 c-0.2 0 -0.36 -0.04 -0.52 -0.04 c-0.96 0 -1.88 -0.16 -2.84 -0.2 c-0.24 0 -0.48 -0.04 -0.72 -0.2 c-0.28 -0.52 -0.32 -1.12 -0.28 -1.72 c0.04 -0.12 0.04 -0.24 0.08 -0.36 c0.04 -0.16 0.12 -0.32 0.32 -0.4 c0.04 -0.04 0.08 -0.08 0.12 -0.08 c0.08 -0.24 0.08 -0.48 0.08 -0.72 l0 -5.52 c0 -4.32 -0.04 -8.68 0 -13 c0 -1.2 0 -2.44 0.04 -3.68 c0 -0.52 0.08 -1.04 0.12 -1.56 c0 -0.08 0 -0.12 0.04 -0.24 z M59.418000000000006 28.880000000000003 l-0.12 0.24 l0 0.44 c-0.04 1.56 -0.04 3.12 -0.08 4.68 c-0.04 1.2 -0.12 2.36 -0.2 3.56 c0 0.2 -0.08 0.4 -0.08 0.6 c-0.04 0.16 -0.12 0.24 -0.28 0.32 c-0.16 0.04 -0.32 0.08 -0.48 0.16 c-0.56 0.12 -1.08 0.16 -1.64 0 c-0.16 -0.08 -0.28 -0.2 -0.32 -0.36 c-0.04 -0.12 -0.08 -0.24 -0.08 -0.36 c-0.08 -0.68 -0.16 -1.32 -0.16 -2 c-0.08 -1.16 -0.04 -2.32 -0.08 -3.48 c-0.04 -0.96 -0.04 -1.92 -0.08 -2.84 c0 -0.12 0.04 -0.24 -0.08 -0.36 c-0.24 -0.08 -0.48 -0.04 -0.72 0 c-1.4 0.24 -2.84 0.48 -4.24 0.72 l-0.36 0.12 c-0.04 0.04 -0.12 0.12 -0.12 0.16 c-0.04 0.16 -0.04 0.28 -0.04 0.44 l-0.12 5.64 c0 0.4 -0.08 0.76 -0.12 1.12 c-0.04 0.2 0.04 0.48 -0.16 0.64 c-0.12 0.12 -0.36 0.12 -0.52 0.2 c-0.28 0.12 -0.6 0.16 -0.88 0.16 l-0.6 0 c-0.24 0 -0.44 -0.08 -0.64 -0.16 c-0.12 0 -0.2 -0.08 -0.2 -0.16 c-0.12 -0.52 -0.24 -1.04 -0.24 -1.56 c-0.04 -1.68 -0.04 -3.36 -0.04 -5.04 l0 -0.68 c-0.04 -0.2 -0.12 -0.28 -0.28 -0.28 c-0.36 0 -0.68 0.04 -1.04 0.08 c-0.68 0.04 -1.32 -0.08 -2 -0.2 c-0.08 -0.04 -0.16 -0.12 -0.2 -0.2 c-0.08 -0.36 -0.2 -0.68 -0.24 -1 c-0.04 -0.36 0 -0.64 0.04 -0.96 c0.04 -0.16 0.16 -0.28 0.32 -0.32 c0.28 -0.08 0.56 -0.12 0.88 -0.12 c0.76 -0.04 1.52 -0.2 2.24 -0.36 c0.08 0 0.16 -0.04 0.2 -0.08 c0.12 -0.24 0.08 -0.52 0.08 -0.76 l0 -6 l0 -3.16 c-0.04 -0.44 0.04 -0.88 0.24 -1.28 c0.36 -0.84 0.72 -1.68 1.12 -2.52 c0 -0.08 0.08 -0.16 0.16 -0.24 c0 -0.04 0.08 -0.04 0.08 -0.08 c0.4 -0.64 1.04 -0.96 1.56 -1.36 c0.28 -0.2 0.56 -0.32 0.92 -0.32 c0.2 -0.04 0.4 -0.08 0.6 -0.08 c0.12 -0.04 0.28 -0.04 0.4 -0.08 c0.36 -0.12 0.68 -0.2 1.04 -0.04 c0.08 0.04 0.2 0.04 0.28 0.04 c0.28 -0.12 0.52 -0.04 0.8 0 c0.44 0.12 0.92 0.28 1.28 0.56 c0.24 0.16 0.36 0.4 0.64 0.52 c0.24 0.08 0.36 0.32 0.52 0.48 c0.32 0.32 0.6 0.64 0.92 0.92 c0.24 0.24 0.44 0.52 0.64 0.8 c0.08 0.12 0.12 0.32 0.2 0.48 c0.12 0.36 0.24 0.68 0.24 1.08 c0 0.2 0.04 0.4 0.08 0.56 c0.08 0.36 0.16 0.68 0.24 1.04 c0.28 0.8 0.32 1.64 0.52 2.44 c0.12 0.64 0.12 1.24 0.12 1.88 l0 0.04 l0 2.76 c0 0.12 0 0.24 0.16 0.36 c0.84 -0.08 1.76 -0.04 2.64 -0.04 c0.12 0 0.24 0 0.36 0.04 c0.04 0 0.16 0.08 0.16 0.16 c0.04 0.28 0.12 0.6 0.16 0.92 c0.04 0.44 0 0.84 0 1.28 c0 0.16 -0.04 0.28 -0.08 0.44 s-0.16 0.28 -0.36 0.32 c-0.16 0.04 -0.28 0.04 -0.44 0.04 l-1.4 0 c-0.4 0 -0.76 0 -1.12 0.04 z M55.778000000000006 23.28 l0 -2.4 c0 -0.28 0 -0.56 -0.16 -0.84 c-0.08 -0.12 -0.08 -0.24 -0.12 -0.36 c-0.04 -0.4 -0.16 -0.76 -0.36 -1.12 l-0.24 -0.6 c-0.16 -0.52 -0.4 -1 -0.8 -1.4 c-0.24 -0.24 -0.44 -0.48 -0.68 -0.72 c-0.08 -0.08 -0.24 -0.16 -0.36 -0.2 c-0.2 -0.08 -0.44 -0.12 -0.68 -0.12 c-0.72 0.04 -1 0.28 -1.12 0.92 c-0.04 0.04 -0.04 0.08 -0.04 0.12 c0 0.32 -0.12 0.6 -0.2 0.88 c-0.12 0.36 -0.2 0.72 -0.24 1.08 c-0.04 0.28 -0.08 0.52 -0.2 0.8 c-0.2 0.56 -0.32 1.2 -0.32 1.8 c0 0.48 -0.04 0.96 -0.04 1.4 c0 0.2 0 0.4 0.04 0.6 c0.08 0.16 0.04 0.36 0.04 0.52 c-0.12 0.52 -0.12 1.04 -0.08 1.56 c0.04 0.48 0.08 0.96 0.08 1.48 c0 0.08 0 0.2 0.04 0.28 c0 0.04 0.04 0.08 0.08 0.08 c0.12 0.04 0.2 0.04 0.32 0 c0.6 -0.08 1.2 -0.16 1.8 -0.28 c0.84 -0.2 1.68 -0.32 2.48 -0.48 c0.2 0 0.36 -0.04 0.52 -0.08 s0.24 -0.12 0.24 -0.32 l0 -0.52 l0 -2.08 z M66.984 21.2 c0.4 0.56 0.84 1.08 1.32 1.6 c0.36 0.44 0.8 0.72 1.28 0.96 c0.36 0.12 0.68 0.28 1 0.44 c0.56 0.36 1.04 0.72 1.48 1.16 c0.4 0.4 0.8 0.84 1.24 1.16 c0.12 0.12 0.2 0.24 0.36 0.36 l0.32 0 c0.12 0.04 0.2 0.08 0.28 0.16 c0.28 0.28 0.48 0.6 0.56 1 c0.04 0.32 0.12 0.64 0.24 0.96 c0.12 0.4 0.16 0.84 0.2 1.28 l0 1.16 c0 0.2 0 0.44 0.12 0.64 c0.04 0.08 0.04 0.2 0.04 0.32 c0.04 0.24 0.04 0.48 0.08 0.68 c0.08 0.56 0.08 1.08 -0.04 1.64 c-0.04 0.08 -0.04 0.2 -0.04 0.32 c-0.04 0.08 -0.04 0.2 -0.08 0.32 c-0.16 0.4 -0.24 0.84 -0.4 1.28 c0 0.04 -0.04 0.12 -0.08 0.16 c-0.2 0.28 -0.36 0.6 -0.56 0.88 c-0.08 0.12 -0.16 0.24 -0.28 0.36 c-0.32 0.08 -0.64 0.2 -0.96 0.4 c-0.08 0.08 -0.2 0.12 -0.36 0.12 c-0.12 0 -0.28 0.04 -0.44 0.04 c-0.24 0.04 -0.4 0.12 -0.56 0.32 s-0.36 0.28 -0.6 0.32 l-0.2 0 c-0.24 0.04 -0.52 0.12 -0.76 0.12 c-0.28 0 -0.52 -0.08 -0.76 -0.12 l-0.4 0 c-0.24 0 -0.48 -0.04 -0.68 -0.16 c-0.36 -0.16 -0.76 -0.28 -1.12 -0.36 c-0.28 -0.08 -0.52 -0.2 -0.76 -0.36 s-0.48 -0.32 -0.72 -0.44 c-0.6 -0.32 -1 -0.88 -1.36 -1.48 c-0.04 -0.2 -0.12 -0.4 -0.12 -0.6 c-0.04 -0.4 -0.16 -0.76 -0.2 -1.16 c-0.12 -0.6 -0.24 -1.2 -0.2 -1.8 c0.04 -0.2 0.04 -0.4 0.08 -0.6 c0.04 -0.28 0.08 -0.56 0.08 -0.84 c0 -0.16 0 -0.32 0.04 -0.48 c0.12 -0.28 0.08 -0.52 0.04 -0.76 c-0.08 -0.24 -0.12 -0.44 -0.2 -0.68 c0.08 -0.2 0.16 -0.4 0.24 -0.64 c0.04 -0.12 0.16 -0.2 0.28 -0.2 l0.48 0 c0.44 -0.04 0.92 -0.04 1.36 -0.04 c0.2 0 0.32 0.08 0.44 0.2 c0.08 0.08 0.12 0.16 0.12 0.24 c-0.04 0.24 0 0.44 0.2 0.6 c0.08 0.08 0.12 0.2 0.08 0.36 c-0.04 0.08 -0.08 0.2 -0.12 0.32 c-0.08 0.2 -0.12 0.44 -0.08 0.68 c0.08 0.24 0.04 0.52 0.08 0.76 c0 0.28 -0.04 0.52 0.08 0.8 c0.04 0.12 0.04 0.24 0 0.36 c-0.12 0.36 -0.08 0.68 -0.04 1.04 c0 0.16 0.08 0.32 0.24 0.44 c0.36 0.32 0.72 0.6 1.2 0.76 c0.12 0.04 0.28 0.12 0.4 0.16 c0.2 0.08 0.4 0.12 0.64 0.12 c0.16 0 0.36 0 0.52 0.08 c0.56 0.12 1.08 0.04 1.6 -0.16 c0.2 -0.04 0.4 -0.16 0.6 -0.24 c0.16 -0.44 0.32 -0.84 0.28 -1.32 l0 -2.84 l0 -0.4 c0 -0.28 -0.08 -0.52 -0.36 -0.64 c-0.08 -0.08 -0.16 -0.16 -0.2 -0.28 c-0.08 -0.36 -0.32 -0.64 -0.6 -0.88 c-0.52 -0.48 -1 -0.96 -1.52 -1.44 c-0.12 -0.08 -0.2 -0.2 -0.36 -0.24 c-0.16 0 -0.36 -0.08 -0.48 -0.16 c-0.28 -0.16 -0.56 -0.24 -0.88 -0.32 c-0.8 -0.2 -1.52 -0.56 -2.12 -1.12 c-0.52 -0.48 -0.84 -1.04 -1.16 -1.56 c-0.16 -0.24 -0.28 -0.52 -0.4 -0.76 c-0.2 -0.36 -0.24 -0.8 -0.36 -1.16 c-0.04 -0.08 0 -0.16 0 -0.2 c0.08 -0.28 0.12 -0.52 -0.04 -0.76 c-0.04 -0.48 -0.16 -0.92 -0.12 -1.4 c0.04 -0.44 0.08 -0.88 0.04 -1.32 l0 -0.16 c0.12 -0.32 0.12 -0.6 0.12 -0.92 l0 -1.88 c-0.04 -0.4 0.08 -0.76 0.32 -1.08 c0.08 -0.12 0.12 -0.2 0.2 -0.28 c0.28 -0.36 0.6 -0.76 0.92 -1.12 c0.04 -0.08 0.12 -0.12 0.24 -0.2 c0.36 -0.16 0.64 -0.4 0.96 -0.64 c0.24 -0.2 0.52 -0.36 0.84 -0.48 c0.28 -0.08 0.52 -0.24 0.8 -0.24 c0.12 0 0.24 -0.04 0.4 -0.04 c0.32 0 0.64 -0.04 0.96 -0.08 c0.2 -0.04 0.44 0 0.64 0.04 c0.36 0.04 0.68 0.08 1.04 0.08 c0.24 0.04 0.52 0.04 0.76 0.12 c0.2 0.04 0.4 0.16 0.6 0.28 c0.32 0.2 0.56 0.52 0.76 0.84 c0.16 0.24 0.28 0.48 0.48 0.68 c0.12 0.16 0.24 0.32 0.28 0.52 c0.04 0.12 0.08 0.24 0.16 0.36 c0.12 0.36 0.24 0.72 0.28 1.12 c0.04 0.16 0.08 0.32 0.08 0.44 c0.04 0.32 0.16 0.6 0.4 0.8 c0.12 0.08 0.12 0.16 0.12 0.28 c0 0.48 0 0.96 -0.04 1.44 c-0.08 0.36 -0.08 0.72 -0.08 1.08 c0 0.52 -0.04 1 -0.16 1.48 c-0.04 0.2 -0.04 0.36 0 0.52 c0.04 0.12 0.04 0.2 0.04 0.32 c0 0.08 0 0.12 -0.04 0.2 c-0.16 0.16 -0.32 0.28 -0.52 0.36 c-0.44 0.12 -0.88 0.2 -1.36 0.28 c-0.04 0.04 -0.12 0 -0.16 -0.04 c-0.12 -0.12 -0.28 -0.28 -0.4 -0.44 c0 -0.04 -0.04 -0.12 -0.04 -0.16 c-0.04 -0.28 -0.08 -0.52 -0.08 -0.8 c0.04 -0.36 0 -0.72 0 -1.08 c0 -0.28 0.04 -0.56 -0.04 -0.84 c-0.04 -0.04 -0.04 -0.08 -0.04 -0.12 c0.08 -0.72 -0.12 -1.44 -0.28 -2.12 c0 -0.04 0 -0.08 -0.04 -0.12 c-0.2 -0.36 -0.36 -0.8 -0.68 -1.12 c-0.2 -0.24 -0.44 -0.48 -0.68 -0.68 c-0.28 -0.24 -0.6 -0.36 -0.88 -0.52 l-0.2 0 c-0.44 0 -0.84 0.16 -1.24 0.36 c-0.08 0.04 -0.12 0.12 -0.2 0.16 l-0.56 0.56 s-0.4 0.4 -0.44 0.68 c0 0.12 -0.04 0.2 -0.04 0.28 c-0.04 0.08 -0.08 0.2 -0.04 0.32 c0.04 0.32 -0.16 0.68 -0.12 1 l0 2.88 c0 0.16 0.04 0.32 0.04 0.52 z M85.31 10 l0.6 -0.24 c0.48 -0.2 1 -0.16 1.48 0 c0.12 0.04 0.24 0.12 0.24 0.24 c0.04 0.28 0.08 0.56 0.12 0.8 c0.08 0.6 0 1.2 0.12 1.76 c0.04 0.16 0 0.36 0 0.52 c0 1.2 0 2.4 0.12 3.6 c0.08 1.28 0.08 2.56 0.08 3.84 c0 0.28 0.04 0.56 0.08 0.8 l0 0.68 l0 1.68 c0 0.08 0.04 0.16 0.04 0.24 s0.12 0.16 0.2 0.12 c0.12 0 0.24 -0.04 0.36 -0.08 c0.28 -0.12 0.56 -0.2 0.84 -0.32 c0.12 -0.04 0.28 -0.08 0.4 -0.08 c0.36 0 0.64 -0.08 0.96 -0.16 c0.44 -0.12 0.88 -0.12 1.32 -0.12 c0.08 0 0.2 0.04 0.28 0.08 s0.2 0.12 0.2 0.2 c0.2 0.68 0.36 1.4 0.32 2.12 c0 0.16 0 0.32 -0.04 0.48 s-0.12 0.24 -0.24 0.28 c-0.2 0.04 -0.36 0.12 -0.56 0.12 c-0.64 0 -1.24 0.16 -1.8 0.32 c-0.68 0.16 -1.32 0.4 -2 0.6 c-0.16 0.04 -0.2 0.16 -0.2 0.32 c0 0.8 -0.08 1.6 0 2.36 c0.04 0.2 0.04 0.4 0.04 0.6 l0 6.64 c0 1.04 -0.08 2.12 -0.12 3.16 c0 0.16 -0.12 0.28 -0.28 0.28 c-0.24 0 -0.48 0.04 -0.72 0.08 c-0.64 0.08 -1.32 0.12 -1.96 -0.04 c-0.24 -0.08 -0.36 -0.2 -0.36 -0.4 c-0.08 -0.36 -0.12 -0.76 -0.12 -1.12 c-0.08 -3.2 -0.04 -6.4 -0.04 -9.6 c0 -0.24 0.04 -0.48 -0.08 -0.72 c-0.08 0 -0.2 0 -0.28 0.04 c-0.68 0.24 -1.32 0.48 -2 0.72 c-0.2 0.08 -0.28 0.2 -0.28 0.4 l0 0.64 l0 6.2 c0 0.28 0 0.56 -0.04 0.8 c0 0.2 -0.08 0.28 -0.28 0.32 c-0.56 0.08 -1.16 0.16 -1.76 0.16 c-0.24 0 -0.48 -0.04 -0.72 -0.12 c-0.04 0 -0.08 0 -0.12 -0.04 c-0.2 -0.08 -0.32 -0.2 -0.32 -0.44 c-0.04 -0.4 -0.04 -0.84 -0.04 -1.24 c-0.04 -1.64 -0.04 -3.24 -0.04 -4.88 l0 -0.64 c0 -0.36 -0.04 -0.4 -0.4 -0.4 c-0.16 -0.04 -0.36 -0.04 -0.56 -0.08 c-0.12 0 -0.2 -0.08 -0.24 -0.16 c-0.12 -0.4 -0.24 -0.8 -0.2 -1.24 c0 -0.32 0 -0.68 0.08 -1 c0.08 -0.2 0.16 -0.36 0.4 -0.4 c0.28 -0.12 0.6 -0.2 0.92 -0.28 c0.04 -0.12 0.04 -0.24 0.04 -0.36 c0.04 -1.04 0.04 -2.04 0.08 -3.08 c0 -0.6 0 -1.2 0.04 -1.76 c0.08 -0.6 0.04 -1.2 0.08 -1.76 c0.04 -1.04 0.04 -2.04 0.08 -3.04 c0.04 -0.72 0.04 -1.44 0.08 -2.12 l0.12 -1.56 c0 -0.16 0.04 -0.32 0.08 -0.52 l0.24 -1.08 c0.04 -0.28 0.36 -0.56 0.64 -0.6 l0.32 0 c0.56 0 0.64 0.16 0.68 0.56 c0.04 0.12 0.04 0.2 0.08 0.28 c0.24 0.88 0.32 1.76 0.36 2.64 c0.04 1.12 0.12 2.24 0.12 3.36 c0 0.12 -0.04 0.2 0 0.32 c0.12 1.08 0.12 2.16 0.12 3.24 c0 0.56 0.04 1.12 0.04 1.68 l0 0.28 c0.12 0.68 0.08 1.36 0.08 2 c0 0.16 0.04 0.28 0.04 0.44 c0 0.04 0.08 0.08 0.12 0.08 l0.12 0 l2.16 -0.84 c0.16 -0.08 0.28 -0.16 0.28 -0.36 c0.04 -0.88 0.04 -1.72 0.08 -2.6 c0 -1.24 0 -2.48 0.04 -3.76 c0 -0.64 0.08 -1.32 0.12 -1.96 c0 -0.32 0 -0.6 0.04 -0.88 c0 -1.2 0.04 -2.36 0.08 -3.56 c0.04 -0.64 0.12 -1.32 0.16 -1.96 c0 -0.16 0.04 -0.32 0.08 -0.48 z M102.996 10 l0.6 -0.24 c0.48 -0.2 1 -0.16 1.48 0 c0.12 0.04 0.24 0.12 0.24 0.24 c0.04 0.28 0.08 0.56 0.12 0.8 c0.08 0.6 0 1.2 0.12 1.76 c0.04 0.16 0 0.36 0 0.52 c0 1.2 0 2.4 0.12 3.6 c0.08 1.28 0.08 2.56 0.08 3.84 c0 0.28 0.04 0.56 0.08 0.8 l0 0.68 l0 1.68 c0 0.08 0.04 0.16 0.04 0.24 s0.12 0.16 0.2 0.12 c0.12 0 0.24 -0.04 0.36 -0.08 c0.28 -0.12 0.56 -0.2 0.84 -0.32 c0.12 -0.04 0.28 -0.08 0.4 -0.08 c0.36 0 0.64 -0.08 0.96 -0.16 c0.44 -0.12 0.88 -0.12 1.32 -0.12 c0.08 0 0.2 0.04 0.28 0.08 s0.2 0.12 0.2 0.2 c0.2 0.68 0.36 1.4 0.32 2.12 c0 0.16 0 0.32 -0.04 0.48 s-0.12 0.24 -0.24 0.28 c-0.2 0.04 -0.36 0.12 -0.56 0.12 c-0.64 0 -1.24 0.16 -1.8 0.32 c-0.68 0.16 -1.32 0.4 -2 0.6 c-0.16 0.04 -0.2 0.16 -0.2 0.32 c0 0.8 -0.08 1.6 0 2.36 c0.04 0.2 0.04 0.4 0.04 0.6 l0 6.64 c0 1.04 -0.08 2.12 -0.12 3.16 c0 0.16 -0.12 0.28 -0.28 0.28 c-0.24 0 -0.48 0.04 -0.72 0.08 c-0.64 0.08 -1.32 0.12 -1.96 -0.04 c-0.24 -0.08 -0.36 -0.2 -0.36 -0.4 c-0.08 -0.36 -0.12 -0.76 -0.12 -1.12 c-0.08 -3.2 -0.04 -6.4 -0.04 -9.6 c0 -0.24 0.04 -0.48 -0.08 -0.72 c-0.08 0 -0.2 0 -0.28 0.04 c-0.68 0.24 -1.32 0.48 -2 0.72 c-0.2 0.08 -0.28 0.2 -0.28 0.4 l0 0.64 l0 6.2 c0 0.28 0 0.56 -0.04 0.8 c0 0.2 -0.08 0.28 -0.28 0.32 c-0.56 0.08 -1.16 0.16 -1.76 0.16 c-0.24 0 -0.48 -0.04 -0.72 -0.12 c-0.04 0 -0.08 0 -0.12 -0.04 c-0.2 -0.08 -0.32 -0.2 -0.32 -0.44 c-0.04 -0.4 -0.04 -0.84 -0.04 -1.24 c-0.04 -1.64 -0.04 -3.24 -0.04 -4.88 l0 -0.64 c0 -0.36 -0.04 -0.4 -0.4 -0.4 c-0.16 -0.04 -0.36 -0.04 -0.56 -0.08 c-0.12 0 -0.2 -0.08 -0.24 -0.16 c-0.12 -0.4 -0.24 -0.8 -0.2 -1.24 c0 -0.32 0 -0.68 0.08 -1 c0.08 -0.2 0.16 -0.36 0.4 -0.4 c0.28 -0.12 0.6 -0.2 0.92 -0.28 c0.04 -0.12 0.04 -0.24 0.04 -0.36 c0.04 -1.04 0.04 -2.04 0.08 -3.08 c0 -0.6 0 -1.2 0.04 -1.76 c0.08 -0.6 0.04 -1.2 0.08 -1.76 c0.04 -1.04 0.04 -2.04 0.08 -3.04 c0.04 -0.72 0.04 -1.44 0.08 -2.12 l0.12 -1.56 c0 -0.16 0.04 -0.32 0.08 -0.52 l0.24 -1.08 c0.04 -0.28 0.36 -0.56 0.64 -0.6 l0.32 0 c0.56 0 0.64 0.16 0.68 0.56 c0.04 0.12 0.04 0.2 0.08 0.28 c0.24 0.88 0.32 1.76 0.36 2.64 c0.04 1.12 0.12 2.24 0.12 3.36 c0 0.12 -0.04 0.2 0 0.32 c0.12 1.08 0.12 2.16 0.12 3.24 c0 0.56 0.04 1.12 0.04 1.68 l0 0.28 c0.12 0.68 0.08 1.36 0.08 2 c0 0.16 0.04 0.28 0.04 0.44 c0 0.04 0.08 0.08 0.12 0.08 l0.12 0 l2.16 -0.84 c0.16 -0.08 0.28 -0.16 0.28 -0.36 c0.04 -0.88 0.04 -1.72 0.08 -2.6 c0 -1.24 0 -2.48 0.04 -3.76 c0 -0.64 0.08 -1.32 0.12 -1.96 c0 -0.32 0 -0.6 0.04 -0.88 c0 -1.2 0.04 -2.36 0.08 -3.56 c0.04 -0.64 0.12 -1.32 0.16 -1.96 c0 -0.16 0.04 -0.32 0.08 -0.48 z M120.682 10 l0.6 -0.24 c0.48 -0.2 1 -0.16 1.48 0 c0.12 0.04 0.24 0.12 0.24 0.24 c0.04 0.28 0.08 0.56 0.12 0.8 c0.08 0.6 0 1.2 0.12 1.76 c0.04 0.16 0 0.36 0 0.52 c0 1.2 0 2.4 0.12 3.6 c0.08 1.28 0.08 2.56 0.08 3.84 c0 0.28 0.04 0.56 0.08 0.8 l0 0.68 l0 1.68 c0 0.08 0.04 0.16 0.04 0.24 s0.12 0.16 0.2 0.12 c0.12 0 0.24 -0.04 0.36 -0.08 c0.28 -0.12 0.56 -0.2 0.84 -0.32 c0.12 -0.04 0.28 -0.08 0.4 -0.08 c0.36 0 0.64 -0.08 0.96 -0.16 c0.44 -0.12 0.88 -0.12 1.32 -0.12 c0.08 0 0.2 0.04 0.28 0.08 s0.2 0.12 0.2 0.2 c0.2 0.68 0.36 1.4 0.32 2.12 c0 0.16 0 0.32 -0.04 0.48 s-0.12 0.24 -0.24 0.28 c-0.2 0.04 -0.36 0.12 -0.56 0.12 c-0.64 0 -1.24 0.16 -1.8 0.32 c-0.68 0.16 -1.32 0.4 -2 0.6 c-0.16 0.04 -0.2 0.16 -0.2 0.32 c0 0.8 -0.08 1.6 0 2.36 c0.04 0.2 0.04 0.4 0.04 0.6 l0 6.64 c0 1.04 -0.08 2.12 -0.12 3.16 c0 0.16 -0.12 0.28 -0.28 0.28 c-0.24 0 -0.48 0.04 -0.72 0.08 c-0.64 0.08 -1.32 0.12 -1.96 -0.04 c-0.24 -0.08 -0.36 -0.2 -0.36 -0.4 c-0.08 -0.36 -0.12 -0.76 -0.12 -1.12 c-0.08 -3.2 -0.04 -6.4 -0.04 -9.6 c0 -0.24 0.04 -0.48 -0.08 -0.72 c-0.08 0 -0.2 0 -0.28 0.04 c-0.68 0.24 -1.32 0.48 -2 0.72 c-0.2 0.08 -0.28 0.2 -0.28 0.4 l0 0.64 l0 6.2 c0 0.28 0 0.56 -0.04 0.8 c0 0.2 -0.08 0.28 -0.28 0.32 c-0.56 0.08 -1.16 0.16 -1.76 0.16 c-0.24 0 -0.48 -0.04 -0.72 -0.12 c-0.04 0 -0.08 0 -0.12 -0.04 c-0.2 -0.08 -0.32 -0.2 -0.32 -0.44 c-0.04 -0.4 -0.04 -0.84 -0.04 -1.24 c-0.04 -1.64 -0.04 -3.24 -0.04 -4.88 l0 -0.64 c0 -0.36 -0.04 -0.4 -0.4 -0.4 c-0.16 -0.04 -0.36 -0.04 -0.56 -0.08 c-0.12 0 -0.2 -0.08 -0.24 -0.16 c-0.12 -0.4 -0.24 -0.8 -0.2 -1.24 c0 -0.32 0 -0.68 0.08 -1 c0.08 -0.2 0.16 -0.36 0.4 -0.4 c0.28 -0.12 0.6 -0.2 0.92 -0.28 c0.04 -0.12 0.04 -0.24 0.04 -0.36 c0.04 -1.04 0.04 -2.04 0.08 -3.08 c0 -0.6 0 -1.2 0.04 -1.76 c0.08 -0.6 0.04 -1.2 0.08 -1.76 c0.04 -1.04 0.04 -2.04 0.08 -3.04 c0.04 -0.72 0.04 -1.44 0.08 -2.12 l0.12 -1.56 c0 -0.16 0.04 -0.32 0.08 -0.52 l0.24 -1.08 c0.04 -0.28 0.36 -0.56 0.64 -0.6 l0.32 0 c0.56 0 0.64 0.16 0.68 0.56 c0.04 0.12 0.04 0.2 0.08 0.28 c0.24 0.88 0.32 1.76 0.36 2.64 c0.04 1.12 0.12 2.24 0.12 3.36 c0 0.12 -0.04 0.2 0 0.32 c0.12 1.08 0.12 2.16 0.12 3.24 c0 0.56 0.04 1.12 0.04 1.68 l0 0.28 c0.12 0.68 0.08 1.36 0.08 2 c0 0.16 0.04 0.28 0.04 0.44 c0 0.04 0.08 0.08 0.12 0.08 l0.12 0 l2.16 -0.84 c0.16 -0.08 0.28 -0.16 0.28 -0.36 c0.04 -0.88 0.04 -1.72 0.08 -2.6 c0 -1.24 0 -2.48 0.04 -3.76 c0 -0.64 0.08 -1.32 0.12 -1.96 c0 -0.32 0 -0.6 0.04 -0.88 c0 -1.2 0.04 -2.36 0.08 -3.56 c0.04 -0.64 0.12 -1.32 0.16 -1.96 c0 -0.16 0.04 -0.32 0.08 -0.48 z"></path>
  </g>
  <g id="SvgjsG4691" featurekey="sloganFeature-0"
     transform="matrix(0.7478734850883484,0,0,0.7478734850883484,38.733699521305304,197.36771574545378)" fill="#d8e9f0">
    <path
      d="M1.94 10.6 c0.2 0.28 0.42 0.54 0.66 0.8 c0.18 0.22 0.4 0.36 0.64 0.48 c0.18 0.06 0.34 0.14 0.5 0.22 c0.28 0.18 0.52 0.36 0.74 0.58 c0.2 0.2 0.4 0.42 0.62 0.58 c0.06 0.06 0.1 0.12 0.18 0.18 l0.16 0 c0.06 0.02 0.1 0.04 0.14 0.08 c0.14 0.14 0.24 0.3 0.28 0.5 c0.02 0.16 0.06 0.32 0.12 0.48 c0.06 0.2 0.08 0.42 0.1 0.64 l0 0.58 c0 0.1 0 0.22 0.06 0.32 c0.02 0.04 0.02 0.1 0.02 0.16 c0.02 0.12 0.02 0.24 0.04 0.34 c0.04 0.28 0.04 0.54 -0.02 0.82 c-0.02 0.04 -0.02 0.1 -0.02 0.16 c-0.02 0.04 -0.02 0.1 -0.04 0.16 c-0.08 0.2 -0.12 0.42 -0.2 0.64 c0 0.02 -0.02 0.06 -0.04 0.08 c-0.1 0.14 -0.18 0.3 -0.28 0.44 c-0.04 0.06 -0.08 0.12 -0.14 0.18 c-0.16 0.04 -0.32 0.1 -0.48 0.2 c-0.04 0.04 -0.1 0.06 -0.18 0.06 c-0.06 0 -0.14 0.02 -0.22 0.02 c-0.12 0.02 -0.2 0.06 -0.28 0.16 s-0.18 0.14 -0.3 0.16 l-0.1 0 c-0.12 0.02 -0.26 0.06 -0.38 0.06 c-0.14 0 -0.26 -0.04 -0.38 -0.06 l-0.2 0 c-0.12 0 -0.24 -0.02 -0.34 -0.08 c-0.18 -0.08 -0.38 -0.14 -0.56 -0.18 c-0.14 -0.04 -0.26 -0.1 -0.38 -0.18 s-0.24 -0.16 -0.36 -0.22 c-0.3 -0.16 -0.5 -0.44 -0.68 -0.74 c-0.02 -0.1 -0.06 -0.2 -0.06 -0.3 c-0.02 -0.2 -0.08 -0.38 -0.1 -0.58 c-0.06 -0.3 -0.12 -0.6 -0.1 -0.9 c0.02 -0.1 0.02 -0.2 0.04 -0.3 c0.02 -0.14 0.04 -0.28 0.04 -0.42 c0 -0.08 0 -0.16 0.02 -0.24 c0.06 -0.14 0.04 -0.26 0.02 -0.38 c-0.04 -0.12 -0.06 -0.22 -0.1 -0.34 c0.04 -0.1 0.08 -0.2 0.12 -0.32 c0.02 -0.06 0.08 -0.1 0.14 -0.1 l0.24 0 c0.22 -0.02 0.46 -0.02 0.68 -0.02 c0.1 0 0.16 0.04 0.22 0.1 c0.04 0.04 0.06 0.08 0.06 0.12 c-0.02 0.12 0 0.22 0.1 0.3 c0.04 0.04 0.06 0.1 0.04 0.18 c-0.02 0.04 -0.04 0.1 -0.06 0.16 c-0.04 0.1 -0.06 0.22 -0.04 0.34 c0.04 0.12 0.02 0.26 0.04 0.38 c0 0.14 -0.02 0.26 0.04 0.4 c0.02 0.06 0.02 0.12 0 0.18 c-0.06 0.18 -0.04 0.34 -0.02 0.52 c0 0.08 0.04 0.16 0.12 0.22 c0.18 0.16 0.36 0.3 0.6 0.38 c0.06 0.02 0.14 0.06 0.2 0.08 c0.1 0.04 0.2 0.06 0.32 0.06 c0.08 0 0.18 0 0.26 0.04 c0.28 0.06 0.54 0.02 0.8 -0.08 c0.1 -0.02 0.2 -0.08 0.3 -0.12 c0.08 -0.22 0.16 -0.42 0.14 -0.66 l0 -1.42 l0 -0.2 c0 -0.14 -0.04 -0.26 -0.18 -0.32 c-0.04 -0.04 -0.08 -0.08 -0.1 -0.14 c-0.04 -0.18 -0.16 -0.32 -0.3 -0.44 c-0.26 -0.24 -0.5 -0.48 -0.76 -0.72 c-0.06 -0.04 -0.1 -0.1 -0.18 -0.12 c-0.08 0 -0.18 -0.04 -0.24 -0.08 c-0.14 -0.08 -0.28 -0.12 -0.44 -0.16 c-0.4 -0.1 -0.76 -0.28 -1.06 -0.56 c-0.26 -0.24 -0.42 -0.52 -0.58 -0.78 c-0.08 -0.12 -0.14 -0.26 -0.2 -0.38 c-0.1 -0.18 -0.12 -0.4 -0.18 -0.58 c-0.02 -0.04 0 -0.08 0 -0.1 c0.04 -0.14 0.06 -0.26 -0.02 -0.38 c-0.02 -0.24 -0.08 -0.46 -0.06 -0.7 c0.02 -0.22 0.04 -0.44 0.02 -0.66 l0 -0.08 c0.06 -0.16 0.06 -0.3 0.06 -0.46 l0 -0.94 c-0.02 -0.2 0.04 -0.38 0.16 -0.54 c0.04 -0.06 0.06 -0.1 0.1 -0.14 c0.14 -0.18 0.3 -0.38 0.46 -0.56 c0.02 -0.04 0.06 -0.06 0.12 -0.1 c0.18 -0.08 0.32 -0.2 0.48 -0.32 c0.12 -0.1 0.26 -0.18 0.42 -0.24 c0.14 -0.04 0.26 -0.12 0.4 -0.12 c0.06 0 0.12 -0.02 0.2 -0.02 c0.16 0 0.32 -0.02 0.48 -0.04 c0.1 -0.02 0.22 0 0.32 0.02 c0.18 0.02 0.34 0.04 0.52 0.04 c0.12 0.02 0.26 0.02 0.38 0.06 c0.1 0.02 0.2 0.08 0.3 0.14 c0.16 0.1 0.28 0.26 0.38 0.42 c0.08 0.12 0.14 0.24 0.24 0.34 c0.06 0.08 0.12 0.16 0.14 0.26 c0.02 0.06 0.04 0.12 0.08 0.18 c0.06 0.18 0.12 0.36 0.14 0.56 c0.02 0.08 0.04 0.16 0.04 0.22 c0.02 0.16 0.08 0.3 0.2 0.4 c0.06 0.04 0.06 0.08 0.06 0.14 c0 0.24 0 0.48 -0.02 0.72 c-0.04 0.18 -0.04 0.36 -0.04 0.54 c0 0.26 -0.02 0.5 -0.08 0.74 c-0.02 0.1 -0.02 0.18 0 0.26 c0.02 0.06 0.02 0.1 0.02 0.16 c0 0.04 0 0.06 -0.02 0.1 c-0.08 0.08 -0.16 0.14 -0.26 0.18 c-0.22 0.06 -0.44 0.1 -0.68 0.14 c-0.02 0.02 -0.06 0 -0.08 -0.02 c-0.06 -0.06 -0.14 -0.14 -0.2 -0.22 c0 -0.02 -0.02 -0.06 -0.02 -0.08 c-0.02 -0.14 -0.04 -0.26 -0.04 -0.4 c0.02 -0.18 0 -0.36 0 -0.54 c0 -0.14 0.02 -0.28 -0.02 -0.42 c-0.02 -0.02 -0.02 -0.04 -0.02 -0.06 c0.04 -0.36 -0.06 -0.72 -0.14 -1.06 c0 -0.02 0 -0.04 -0.02 -0.06 c-0.1 -0.18 -0.18 -0.4 -0.34 -0.56 c-0.1 -0.12 -0.22 -0.24 -0.34 -0.34 c-0.14 -0.12 -0.3 -0.18 -0.44 -0.26 l-0.1 0 c-0.22 0 -0.42 0.08 -0.62 0.18 c-0.04 0.02 -0.06 0.06 -0.1 0.08 l-0.28 0.28 s-0.2 0.2 -0.22 0.34 c0 0.06 -0.02 0.1 -0.02 0.14 c-0.02 0.04 -0.04 0.1 -0.02 0.16 c0.02 0.16 -0.08 0.34 -0.06 0.5 l0 1.44 c0 0.08 0.02 0.16 0.02 0.26 z M11.824000000000002 13.2 c0.02 -1.48 0.02 -2.96 0.02 -4.44 c0 -0.26 0.02 -0.54 0.04 -0.8 c0 -0.14 -0.02 -0.28 -0.02 -0.4 c0 -0.02 -0.02 -0.04 -0.04 -0.04 c-0.08 -0.02 -0.16 -0.02 -0.22 -0.02 l-2.22 0 l-0.36 0 c-0.06 0 -0.12 -0.02 -0.16 -0.04 c-0.04 0 -0.08 -0.04 -0.1 -0.08 c0 -0.08 -0.02 -0.14 -0.04 -0.22 c-0.12 -0.34 -0.12 -0.68 -0.08 -1.04 c0.02 -0.08 0.06 -0.16 0.08 -0.24 c0.02 -0.04 0.06 -0.08 0.1 -0.08 c0.04 -0.02 0.08 -0.02 0.12 -0.02 l0.26 0 l6.3 0 l0.5 0 c0.06 0 0.1 0 0.16 0.02 c0.06 0 0.1 0.02 0.12 0.08 c0.1 0.48 0.14 0.96 0.02 1.42 c-0.04 0.1 -0.1 0.16 -0.18 0.18 c-0.12 0 -0.22 0.02 -0.32 0.02 l-1.94 0 l-0.3 0 c-0.04 0.02 -0.08 0.06 -0.08 0.1 l0 0.12 c0.04 0.2 0.02 0.4 0.02 0.58 l0 9.54 c0 0.2 -0.02 0.4 -0.02 0.6 l0 0.54 l0 0.34 c-0.02 0.06 -0.06 0.12 -0.12 0.14 c-0.3 0.04 -0.6 0.08 -0.92 0.08 c-0.14 -0.02 -0.28 -0.04 -0.4 -0.08 c-0.08 -0.02 -0.12 -0.08 -0.12 -0.16 c-0.02 -0.22 -0.04 -0.44 -0.04 -0.68 c-0.04 -0.74 -0.04 -1.48 -0.04 -2.22 l0 -1.34 l0 -1 l0 -0.86 l-0.02 0 z M27.028 14.440000000000001 l-0.06 0.12 l0 0.22 c-0.02 0.78 -0.02 1.56 -0.04 2.34 c-0.02 0.6 -0.06 1.18 -0.1 1.78 c0 0.1 -0.04 0.2 -0.04 0.3 c-0.02 0.08 -0.06 0.12 -0.14 0.16 c-0.08 0.02 -0.16 0.04 -0.24 0.08 c-0.28 0.06 -0.54 0.08 -0.82 0 c-0.08 -0.04 -0.14 -0.1 -0.16 -0.18 c-0.02 -0.06 -0.04 -0.12 -0.04 -0.18 c-0.04 -0.34 -0.08 -0.66 -0.08 -1 c-0.04 -0.58 -0.02 -1.16 -0.04 -1.74 c-0.02 -0.48 -0.02 -0.96 -0.04 -1.42 c0 -0.06 0.02 -0.12 -0.04 -0.18 c-0.12 -0.04 -0.24 -0.02 -0.36 0 c-0.7 0.12 -1.42 0.24 -2.12 0.36 l-0.18 0.06 c-0.02 0.02 -0.06 0.06 -0.06 0.08 c-0.02 0.08 -0.02 0.14 -0.02 0.22 l-0.06 2.82 c0 0.2 -0.04 0.38 -0.06 0.56 c-0.02 0.1 0.02 0.24 -0.08 0.32 c-0.06 0.06 -0.18 0.06 -0.26 0.1 c-0.14 0.06 -0.3 0.08 -0.44 0.08 l-0.3 0 c-0.12 0 -0.22 -0.04 -0.32 -0.08 c-0.06 0 -0.1 -0.04 -0.1 -0.08 c-0.06 -0.26 -0.12 -0.52 -0.12 -0.78 c-0.02 -0.84 -0.02 -1.68 -0.02 -2.52 l0 -0.34 c-0.02 -0.1 -0.06 -0.14 -0.14 -0.14 c-0.18 0 -0.34 0.02 -0.52 0.04 c-0.34 0.02 -0.66 -0.04 -1 -0.1 c-0.04 -0.02 -0.08 -0.06 -0.1 -0.1 c-0.04 -0.18 -0.1 -0.34 -0.12 -0.5 c-0.02 -0.18 0 -0.32 0.02 -0.48 c0.02 -0.08 0.08 -0.14 0.16 -0.16 c0.14 -0.04 0.28 -0.06 0.44 -0.06 c0.38 -0.02 0.76 -0.1 1.12 -0.18 c0.04 0 0.08 -0.02 0.1 -0.04 c0.06 -0.12 0.04 -0.26 0.04 -0.38 l0 -3 l0 -1.58 c-0.02 -0.22 0.02 -0.44 0.12 -0.64 c0.18 -0.42 0.36 -0.84 0.56 -1.26 c0 -0.04 0.04 -0.08 0.08 -0.12 c0 -0.02 0.04 -0.02 0.04 -0.04 c0.2 -0.32 0.52 -0.48 0.78 -0.68 c0.14 -0.1 0.28 -0.16 0.46 -0.16 c0.1 -0.02 0.2 -0.04 0.3 -0.04 c0.06 -0.02 0.14 -0.02 0.2 -0.04 c0.18 -0.06 0.34 -0.1 0.52 -0.02 c0.04 0.02 0.1 0.02 0.14 0.02 c0.14 -0.06 0.26 -0.02 0.4 0 c0.22 0.06 0.46 0.14 0.64 0.28 c0.12 0.08 0.18 0.2 0.32 0.26 c0.12 0.04 0.18 0.16 0.26 0.24 c0.16 0.16 0.3 0.32 0.46 0.46 c0.12 0.12 0.22 0.26 0.32 0.4 c0.04 0.06 0.06 0.16 0.1 0.24 c0.06 0.18 0.12 0.34 0.12 0.54 c0 0.1 0.02 0.2 0.04 0.28 c0.04 0.18 0.08 0.34 0.12 0.52 c0.14 0.4 0.16 0.82 0.26 1.22 c0.06 0.32 0.06 0.62 0.06 0.94 l0 0.02 l0 1.38 c0 0.06 0 0.12 0.08 0.18 c0.42 -0.04 0.88 -0.02 1.32 -0.02 c0.06 0 0.12 0 0.18 0.02 c0.02 0 0.08 0.04 0.08 0.08 c0.02 0.14 0.06 0.3 0.08 0.46 c0.02 0.22 0 0.42 0 0.64 c0 0.08 -0.02 0.14 -0.04 0.22 s-0.08 0.14 -0.18 0.16 c-0.08 0.02 -0.14 0.02 -0.22 0.02 l-0.7 0 c-0.2 0 -0.38 0 -0.56 0.02 z M25.208 11.64 l0 -1.2 c0 -0.14 0 -0.28 -0.08 -0.42 c-0.04 -0.06 -0.04 -0.12 -0.06 -0.18 c-0.02 -0.2 -0.08 -0.38 -0.18 -0.56 l-0.12 -0.3 c-0.08 -0.26 -0.2 -0.5 -0.4 -0.7 c-0.12 -0.12 -0.22 -0.24 -0.34 -0.36 c-0.04 -0.04 -0.12 -0.08 -0.18 -0.1 c-0.1 -0.04 -0.22 -0.06 -0.34 -0.06 c-0.36 0.02 -0.5 0.14 -0.56 0.46 c-0.02 0.02 -0.02 0.04 -0.02 0.06 c0 0.16 -0.06 0.3 -0.1 0.44 c-0.06 0.18 -0.1 0.36 -0.12 0.54 c-0.02 0.14 -0.04 0.26 -0.1 0.4 c-0.1 0.28 -0.16 0.6 -0.16 0.9 c0 0.24 -0.02 0.48 -0.02 0.7 c0 0.1 0 0.2 0.02 0.3 c0.04 0.08 0.02 0.18 0.02 0.26 c-0.06 0.26 -0.06 0.52 -0.04 0.78 c0.02 0.24 0.04 0.48 0.04 0.74 c0 0.04 0 0.1 0.02 0.14 c0 0.02 0.02 0.04 0.04 0.04 c0.06 0.02 0.1 0.02 0.16 0 c0.3 -0.04 0.6 -0.08 0.9 -0.14 c0.42 -0.1 0.84 -0.16 1.24 -0.24 c0.1 0 0.18 -0.02 0.26 -0.04 s0.12 -0.06 0.12 -0.16 l0 -0.26 l0 -1.04 z M30.772000000000002 6.5 c0.14 -0.12 0.3 -0.22 0.5 -0.22 c0.04 0 0.08 -0.04 0.1 -0.08 c0.04 -0.12 0.12 -0.14 0.22 -0.14 l0.5 0 c0.52 0 1.04 -0.02 1.54 0 c0.2 0 0.4 -0.02 0.6 -0.1 c0.06 -0.02 0.14 -0.02 0.22 0 c0.1 0.04 0.22 0.06 0.34 0.08 c0.16 -0.04 0.3 0.02 0.44 0.08 c0.1 0.04 0.18 0.06 0.28 0.08 c0.12 0.02 0.22 0.08 0.32 0.16 c0.18 0.16 0.38 0.32 0.56 0.48 c0.04 0.04 0.06 0.08 0.08 0.12 c0.06 0.16 0.14 0.3 0.26 0.42 c0.04 0.02 0.06 0.08 0.08 0.12 c0.04 0.2 0.12 0.38 0.22 0.56 c0.08 0.12 0.1 0.26 0.12 0.4 c0.04 0.18 0.06 0.36 0.08 0.54 c0.02 0.04 0.02 0.06 0.02 0.1 c0.02 0.4 0.06 0.8 0.06 1.22 c0.02 0.26 0.02 0.54 0.06 0.82 c0.04 0.2 0.04 0.42 0.04 0.64 l0 0.1 c-0.06 0.32 -0.14 0.62 -0.24 0.94 c-0.04 0.1 -0.12 0.2 -0.18 0.3 s-0.04 0.16 0.04 0.22 c0.04 0.04 0.1 0.08 0.16 0.14 c0.06 0.08 0.1 0.16 0.14 0.24 c0.02 0.14 0.08 0.26 0.14 0.36 c0.1 0.18 0.18 0.38 0.26 0.56 c0.04 0.04 0.04 0.1 0.06 0.16 c0.04 0.14 0.08 0.26 0.1 0.38 c0.02 0.06 0.04 0.12 0.04 0.18 c0.02 0.24 0.08 0.5 0.08 0.74 c0 0.12 0.02 0.24 0.02 0.36 c0.02 0.18 0.02 0.36 -0.04 0.52 c-0.02 0.06 -0.02 0.12 -0.04 0.18 c-0.06 0.12 -0.06 0.26 -0.12 0.38 c-0.04 0.1 -0.14 0.18 -0.2 0.28 c-0.16 0.28 -0.36 0.5 -0.54 0.76 c-0.04 0.06 -0.12 0.12 -0.2 0.14 c-0.08 0.04 -0.12 0.1 -0.14 0.18 c-0.04 0.14 -0.12 0.22 -0.24 0.26 c-0.06 0.02 -0.1 0.04 -0.16 0.06 c-0.1 0.06 -0.2 0.08 -0.32 0.08 l-0.74 0 c-0.14 0 -0.28 0 -0.42 0.04 c-0.12 0.02 -0.24 0.02 -0.36 0 c-0.16 -0.04 -0.34 -0.04 -0.5 -0.04 c-0.6 0 -1.18 0 -1.78 -0.04 c-0.32 -0.02 -0.62 0 -0.94 0 l-0.18 0 c-0.28 0 -0.28 -0.02 -0.32 -0.3 c-0.04 -0.22 -0.04 -0.42 -0.04 -0.64 c0 -0.1 0.02 -0.2 0.06 -0.32 c0.02 -0.06 0.06 -0.12 0.14 -0.12 c0.1 -0.02 0.22 -0.02 0.32 -0.02 c0.16 0 0.18 -0.06 0.18 -0.2 l0 -0.22 l0 -5.94 c0 -0.4 0 -0.8 0.02 -1.2 c0 -0.36 0.02 -0.7 0.02 -1.04 c0.02 -0.44 0.02 -0.86 0.04 -1.3 c0 -0.06 -0.02 -0.14 -0.02 -0.2 c0 -0.04 -0.04 -0.08 -0.06 -0.08 c-0.08 -0.02 -0.16 -0.02 -0.26 -0.02 c-0.08 -0.02 -0.18 -0.04 -0.26 -0.08 c-0.06 -0.04 -0.12 -0.08 -0.14 -0.16 c-0.02 -0.12 -0.06 -0.24 -0.08 -0.36 c-0.04 -0.2 -0.02 -0.28 0.06 -0.56 z M32.872 10.1 l0.02 0 l0 1.98 l0 0.32 c0 0.04 0.06 0.08 0.1 0.08 c0.52 -0.06 1.04 -0.04 1.54 -0.02 c0.2 0 0.38 0.02 0.56 0.08 c0.2 0.04 0.36 -0.02 0.48 -0.16 c0.06 -0.06 0.08 -0.12 0.12 -0.18 c0.14 -0.24 0.18 -0.5 0.2 -0.78 c0 -0.74 -0.04 -1.46 -0.08 -2.18 c-0.02 -0.34 -0.12 -0.68 -0.32 -0.98 c-0.08 -0.14 -0.14 -0.28 -0.24 -0.4 c-0.02 -0.06 -0.08 -0.12 -0.12 -0.16 s-0.08 -0.06 -0.12 -0.06 c-0.04 -0.02 -0.08 -0.02 -0.12 -0.02 l-1.22 0 c-0.08 0 -0.16 0.02 -0.24 0.04 c-0.12 0.04 -0.22 0.04 -0.34 0.04 c-0.06 0 -0.1 0 -0.14 0.02 s-0.08 0.04 -0.08 0.06 c-0.02 0.1 -0.02 0.18 -0.02 0.26 c0.02 0.1 0.02 0.22 0.02 0.32 l0 1.74 z M32.892 15.9 l0.02 0 l0 1.46 l0 0.3 c0 0.02 0.06 0.08 0.1 0.08 c0.34 0 0.66 0.04 1 -0.02 c0.1 0 0.22 -0.02 0.32 -0.02 c0.14 0 0.26 -0.02 0.38 -0.06 c0.1 -0.02 0.2 -0.04 0.28 -0.06 c0.08 0 0.18 0 0.24 -0.04 c0.12 -0.02 0.22 -0.02 0.32 -0.04 c0.26 -0.02 0.46 -0.12 0.6 -0.34 c0.08 -0.1 0.14 -0.2 0.2 -0.3 s0.1 -0.2 0.1 -0.32 s0.02 -0.24 0.02 -0.36 c0 -0.54 -0.16 -1.04 -0.46 -1.48 c-0.02 -0.04 -0.06 -0.08 -0.1 -0.1 c-0.16 -0.1 -0.34 -0.18 -0.5 -0.28 c-0.06 -0.02 -0.14 -0.04 -0.2 -0.02 c-0.12 0.04 -0.24 0.02 -0.36 0 l-0.18 0 c-0.1 -0.02 -0.2 -0.02 -0.3 0.04 c-0.1 0.04 -0.2 0.04 -0.28 0 c-0.04 -0.02 -0.1 -0.04 -0.14 -0.06 c-0.1 -0.04 -0.2 -0.06 -0.3 -0.06 l-0.14 0 c-0.08 0 -0.14 -0.02 -0.2 -0.06 c-0.12 -0.08 -0.24 -0.06 -0.36 -0.02 c-0.02 0.02 -0.04 0.04 -0.04 0.06 c-0.02 0.04 -0.02 0.1 -0.02 0.16 l0 1.54 z M41.49600000000001 5.800000000000001 c0.08 -0.02 0.14 -0.04 0.2 -0.06 c0.26 -0.12 0.54 -0.1 0.82 -0.1 c0.04 0 0.06 0 0.08 0.02 c0.28 0.06 0.34 0.04 0.36 0.38 c0 0.36 0.02 0.74 0.02 1.1 l0 10.4 l0 0.36 c0 0.14 0.02 0.18 0.18 0.18 l0.22 0 c0.3 0.06 0.58 0 0.86 -0.06 c0.26 -0.06 0.52 -0.1 0.78 -0.1 l1.92 0 c0.04 0 0.08 0.02 0.14 0.02 c0.1 0.36 0.12 0.72 0.1 1.1 c0 0.08 -0.02 0.16 -0.04 0.24 c-0.02 0.1 -0.1 0.16 -0.2 0.18 c-0.12 0.02 -0.24 0.02 -0.36 0.02 c-0.3 0 -0.6 0 -0.92 -0.02 c-0.4 0 -0.82 0.04 -1.22 0.12 c-0.08 0.02 -0.14 0.02 -0.22 0.04 c-0.18 0.02 -0.34 0.04 -0.52 0.04 l-0.42 0 c-0.1 0 -0.18 -0.02 -0.26 -0.02 c-0.48 0 -0.94 -0.08 -1.42 -0.1 c-0.12 0 -0.24 -0.02 -0.36 -0.1 c-0.14 -0.26 -0.16 -0.56 -0.14 -0.86 c0.02 -0.06 0.02 -0.12 0.04 -0.18 c0.02 -0.08 0.06 -0.16 0.16 -0.2 c0.02 -0.02 0.04 -0.04 0.06 -0.04 c0.04 -0.12 0.04 -0.24 0.04 -0.36 l0 -2.76 c0 -2.16 -0.02 -4.34 0 -6.5 c0 -0.6 0 -1.22 0.02 -1.84 c0 -0.26 0.04 -0.52 0.06 -0.78 c0 -0.04 0 -0.06 0.02 -0.12 z M56.540000000000006 5.960000000000001 c0 0.02 0.02 0.02 0.02 0.04 c0.08 0.34 0.1 0.7 0.1 1.08 l-0.02 0.02 c-0.06 0.32 -0.04 0.38 -0.4 0.4 c-0.12 0.02 -0.26 0.02 -0.4 0.02 l-3.14 0 c-0.12 0 -0.24 0 -0.36 0.02 c-0.1 0 -0.14 0.04 -0.14 0.12 l0 0.36 s0.02 0.24 0.02 0.36 l0 0.66 c0 0.28 0 0.54 0.04 0.82 l0 0.3 l0 2.56 c0 0.12 -0.02 0.24 0.02 0.38 c0.06 -0.02 0.1 0 0.14 -0.02 c0.46 -0.16 0.92 -0.24 1.38 -0.26 c0.32 -0.04 0.66 -0.06 0.98 -0.12 c0.16 -0.04 0.32 -0.06 0.5 -0.06 c0.18 -0.02 0.32 -0.04 0.48 -0.14 c0.04 -0.02 0.12 -0.02 0.16 0.04 c0.08 0.1 0.18 0.18 0.3 0.26 c0.18 0.12 0.28 0.44 0.14 0.72 c-0.16 0.3 -0.24 0.42 -0.66 0.5 c-0.14 0.02 -0.26 0.04 -0.4 0.06 c-0.42 0.06 -0.84 0.12 -1.26 0.16 c-0.06 0.02 -0.14 0.02 -0.2 0.02 c-0.52 0.04 -1 0.18 -1.46 0.4 c-0.08 0.04 -0.12 0.1 -0.12 0.2 l0 0.54 l0 2 c0 0.1 0 0.2 0.02 0.32 c0 0.04 0.02 0.06 0.06 0.08 l0.32 0 l3.16 0 l0.24 0 c0.36 0.02 0.32 -0.02 0.38 0.32 c0.04 0.28 0.04 0.54 0.04 0.8 l0 0.08 c-0.1 0.3 -0.06 0.36 -0.42 0.36 c-0.54 0.02 -1.08 0.02 -1.64 0 l-1.16 0 c-0.48 0 -0.98 0 -1.48 -0.02 c-0.28 -0.02 -0.54 -0.06 -0.82 -0.1 c-0.06 0 -0.1 -0.06 -0.12 -0.12 c-0.16 -0.44 -0.16 -0.44 -0.16 -0.92 c-0.02 -0.54 -0.02 -1.1 -0.02 -1.66 l0 -4.02 c0.02 -1.2 0.04 -2.42 0.04 -3.62 c0 -0.4 0.04 -0.8 0.04 -1.2 c0 -0.08 0.02 -0.18 -0.06 -0.26 c-0.04 -0.16 -0.1 -0.3 -0.14 -0.44 c-0.04 -0.32 -0.06 -0.64 0.04 -0.94 c0.04 -0.08 0.08 -0.12 0.16 -0.12 l0.26 0 l5.22 0 c0.1 0 0.22 -0.02 0.32 0.02 z M66.08800000000002 7.48 c-0.06 -0.26 -0.08 -0.5 -0.08 -0.74 c0 -0.12 -0.02 -0.26 0 -0.4 c0.04 -0.26 0.08 -0.32 0.36 -0.34 c0.08 -0.02 0.16 -0.02 0.22 0 c0.38 0 0.76 -0.04 1.12 -0.16 c0.04 0 0.08 -0.02 0.1 -0.02 c0.24 -0.02 0.46 -0.04 0.7 -0.06 c0.1 0 0.2 0 0.28 0.02 c0.16 0 0.3 0.02 0.44 0.04 c0.06 0.02 0.12 0.02 0.18 0.04 c0.22 0.06 0.44 0.12 0.68 0.1 c0.12 0 0.24 0.02 0.36 0.08 c0.08 0.04 0.18 0.08 0.26 0.1 c0.08 0.04 0.16 0.06 0.24 0.1 c0.24 0.14 0.46 0.3 0.7 0.46 c0.06 0.04 0.1 0.1 0.14 0.16 c0.16 0.18 0.32 0.38 0.5 0.54 c0.1 0.08 0.16 0.18 0.22 0.28 c0.16 0.22 0.3 0.46 0.38 0.74 c0.06 0.18 0.12 0.36 0.16 0.56 c0 0.1 0.04 0.18 0.08 0.28 c0.02 0.06 0.04 0.12 0.04 0.18 c0.02 0.36 0.08 0.72 0.14 1.08 l0 0.04 c-0.02 0.38 0.08 0.76 0.08 1.16 c0.02 0.36 0.04 0.72 0.1 1.08 c0.02 0.12 0.06 0.24 0.08 0.36 c0 0.08 0.02 0.16 0.02 0.26 c0.02 0.24 0.04 0.48 0.04 0.72 c0 0.26 -0.02 0.52 -0.02 0.76 c0 0.26 -0.04 0.52 -0.08 0.76 c-0.04 0.3 -0.04 0.58 -0.12 0.88 l0 0.18 c0 0.12 -0.02 0.24 -0.08 0.34 c-0.04 0.12 -0.08 0.24 -0.1 0.36 c0 0.06 -0.02 0.14 -0.06 0.2 c-0.06 0.14 -0.08 0.28 -0.08 0.44 c0 0.1 -0.04 0.18 -0.1 0.26 c-0.08 0.1 -0.14 0.22 -0.18 0.36 c-0.04 0.12 -0.14 0.2 -0.22 0.28 c0 0.02 -0.02 0.04 -0.06 0.06 c-0.14 0.04 -0.26 0.14 -0.38 0.26 c-0.02 0.02 -0.08 0.04 -0.14 0.04 c-0.12 0 -0.22 0.02 -0.34 0.06 c-0.32 0.04 -0.64 0.14 -0.98 0.14 c-0.3 0.02 -0.6 0.02 -0.9 0 c-0.54 -0.02 -1.06 0 -1.58 0 c-0.06 0 -0.12 0 -0.18 0.02 l-0.1 0 c-0.28 0 -0.54 -0.02 -0.8 -0.04 c-0.04 -0.02 -0.1 -0.04 -0.14 -0.06 c-0.08 -0.12 -0.22 -0.14 -0.34 -0.2 c-0.04 -0.02 -0.08 -0.06 -0.08 -0.12 c0.02 -0.24 0 -0.5 0.1 -0.74 c0.02 -0.08 0.06 -0.16 0.08 -0.24 c0.06 -0.14 0.16 -0.18 0.3 -0.2 c0.1 -0.02 0.22 0 0.32 0.04 c0.04 0 0.1 -0.04 0.1 -0.08 c0.02 -0.12 0.02 -0.22 0.02 -0.34 l0 -3.74 l0 -4.28 l0 -1.74 c0 -0.08 0 -0.16 -0.02 -0.22 c0 -0.04 -0.04 -0.06 -0.08 -0.08 c-0.16 -0.02 -0.32 -0.02 -0.46 0.02 c-0.18 0.06 -0.36 0.06 -0.54 0 c-0.08 -0.04 -0.2 -0.04 -0.3 -0.04 z M69.02800000000002 7.4 c0 0.04 -0.02 0.06 -0.02 0.1 l0 0.34 l0 9.68 l0 0.26 l0 0.12 c0.02 0.04 0.06 0.08 0.1 0.08 l0.22 0 c0.32 0.02 0.62 0 0.92 0.02 c0.24 0 0.46 -0.04 0.68 -0.08 c0.14 -0.02 0.28 -0.08 0.42 -0.12 c0.08 -0.04 0.12 -0.08 0.12 -0.16 c0.02 -0.16 0.06 -0.3 0.12 -0.42 c0.06 -0.14 0.08 -0.28 0.12 -0.42 c0.02 -0.06 0.04 -0.1 0.06 -0.14 c0.06 -0.1 0.08 -0.2 0.1 -0.3 c0.04 -0.24 0.06 -0.46 0.1 -0.7 c0.1 -0.6 0.1 -1.2 0.1 -1.8 c0 -0.2 -0.02 -0.4 -0.08 -0.58 c-0.04 -0.08 -0.04 -0.16 -0.06 -0.24 c-0.02 -0.2 -0.02 -0.4 -0.06 -0.58 c-0.02 -0.08 -0.02 -0.18 -0.02 -0.26 c0.02 -0.3 0 -0.58 -0.04 -0.88 c-0.02 -0.12 -0.02 -0.26 -0.04 -0.4 c0 -0.06 0 -0.14 -0.02 -0.2 c-0.04 -0.34 -0.1 -0.68 -0.16 -1.02 c-0.04 -0.32 -0.16 -0.6 -0.26 -0.9 c-0.02 -0.1 -0.08 -0.18 -0.14 -0.26 c-0.14 -0.14 -0.28 -0.3 -0.4 -0.46 c-0.12 -0.14 -0.24 -0.24 -0.4 -0.32 c-0.2 -0.14 -0.4 -0.2 -0.64 -0.26 c-0.1 -0.02 -0.2 -0.04 -0.32 -0.06 s-0.26 -0.06 -0.4 -0.04 z M78.07200000000002 7.279999999999999 c-0.54 -0.1 -1.1 -0.1 -1.66 -0.08 c-0.22 0.02 -0.28 -0.02 -0.38 -0.22 c-0.1 -0.22 -0.12 -0.46 -0.12 -0.72 c0 -0.28 0.04 -0.34 0.36 -0.46 c0.18 -0.08 0.36 -0.08 0.56 -0.1 c0.42 -0.02 0.84 0 1.26 0.02 l0.62 0 c0.28 -0.02 0.58 -0.02 0.86 -0.02 c0.04 0 0.1 0 0.14 0.02 c0.14 0.06 0.26 0.06 0.4 0.06 l1.08 0 c0.08 0 0.18 -0.02 0.26 0.02 c0 0.02 0.02 0.04 0.04 0.06 c0.02 0.22 0.06 0.42 0.08 0.64 c0 0.1 -0.02 0.2 0 0.28 c0 0.14 -0.04 0.28 -0.08 0.4 c-0.02 0.08 -0.08 0.14 -0.16 0.14 c-0.2 0.02 -0.42 0.02 -0.62 0.02 l-0.82 0 c-0.12 0 -0.18 0.06 -0.18 0.18 l0 0.3 c0 0.2 0.02 0.42 0.02 0.62 l0 3.32 c0 0.78 0.02 1.58 0 2.36 l0 3.38 c0 0.12 0 0.22 0.02 0.34 c0 0.02 0.02 0.04 0.04 0.04 c0.06 0.02 0.12 0.04 0.18 0.04 c0.28 0 0.56 0.08 0.84 0.02 l0.78 0.06 c0.04 0.02 0.08 0.02 0.12 0.02 l0.18 0.12 c0.04 0.04 0.06 0.1 0.08 0.16 c0.08 0.22 0.06 0.44 0.02 0.66 c0 0.02 -0.02 0.04 -0.02 0.06 c-0.1 0.38 -0.14 0.38 -0.48 0.34 c-0.02 0 -0.06 -0.02 -0.08 -0.02 c-0.32 0 -0.64 -0.02 -0.96 -0.04 c-0.22 0 -0.42 0.02 -0.62 0.04 c-0.12 0.02 -0.24 0.02 -0.32 0.12 c-0.2 0.06 -0.4 0.12 -0.6 0.14 c-0.18 0.02 -0.34 -0.06 -0.5 -0.14 c-0.04 -0.02 -0.08 -0.06 -0.12 -0.08 c-0.06 -0.02 -0.12 -0.04 -0.18 -0.04 c-0.1 0 -0.2 0.02 -0.3 0 c-0.1 0 -0.22 0 -0.32 0.04 c-0.08 0.04 -0.16 0.06 -0.26 0.06 c-0.12 0 -0.26 0.02 -0.4 0.06 c-0.24 0.06 -0.48 0.02 -0.72 -0.06 c-0.08 -0.06 -0.16 -0.14 -0.22 -0.2 c-0.02 -0.02 -0.02 -0.04 -0.02 -0.06 c0 -0.1 0.02 -0.18 0.02 -0.26 c0.02 -0.12 0.04 -0.24 0.02 -0.38 c-0.02 -0.1 0 -0.22 0.04 -0.32 c0.02 -0.12 0.12 -0.22 0.26 -0.24 c0.24 -0.02 0.5 -0.04 0.74 -0.06 l0.36 -0.06 s0.24 -0.04 0.36 0 c0.1 0.02 0.2 0 0.3 -0.02 c0.16 -0.02 0.18 -0.04 0.18 -0.22 l0 -0.88 c-0.02 -0.46 -0.02 -0.9 -0.02 -1.34 l0 -3.34 c0.02 -0.98 0.02 -1.96 0.04 -2.94 c0 -0.48 0 -0.96 0.04 -1.44 l0 -0.12 c0.02 -0.12 -0.04 -0.2 -0.14 -0.28 z M84.89600000000002 7.42 c-0.08 -0.34 -0.1 -0.7 -0.08 -1.06 l0.06 -0.24 c0.02 -0.06 0.06 -0.1 0.12 -0.12 l0.66 -0.06 c0.04 0 0.06 0 0.1 -0.02 c0.48 -0.08 0.94 -0.08 1.42 -0.08 l3.82 0 c0.28 0 0.58 0.04 0.86 0.08 c0.04 0 0.08 0.04 0.08 0.06 c0.06 0.36 0.1 0.72 0.08 1.08 c0 0.12 -0.04 0.22 -0.08 0.32 c-0.04 0.04 -0.08 0.08 -0.12 0.08 c-0.18 0 -0.36 0.02 -0.54 0.02 l-3.16 0 l-0.4 0 c-0.1 0 -0.16 0.06 -0.16 0.16 s-0.02 0.18 0 0.26 c0.04 0.22 0.02 0.44 0.02 0.66 l0 0.68 c0 0.2 0 0.4 0.02 0.58 c0.02 0.08 0.02 0.18 0.02 0.26 l0 1.72 c0 0.14 -0.02 0.28 -0.02 0.42 c-0.02 0.06 0 0.12 0 0.18 c0 0.04 0.04 0.08 0.08 0.06 c0.12 0 0.24 -0.02 0.36 -0.04 c0.28 -0.06 0.56 -0.06 0.86 -0.04 c0.2 0 0.38 -0.04 0.56 -0.12 c0.08 -0.04 0.16 -0.1 0.24 -0.14 c0.16 -0.1 0.3 -0.1 0.46 -0.04 l0.12 0.18 c0.16 0.14 0.22 0.34 0.28 0.54 c0.04 0.1 0.08 0.22 0.12 0.34 c0.02 0.08 0.02 0.16 0.04 0.24 c0 0.04 -0.02 0.06 -0.02 0.08 c-0.08 0.08 -0.14 0.16 -0.22 0.24 c-0.02 0 -0.04 0.02 -0.08 0.02 c-0.12 0.02 -0.22 0.08 -0.32 0.16 s-0.22 0.12 -0.36 0.16 c-0.08 0 -0.16 0.02 -0.24 0.06 c-0.14 0.08 -0.28 0.08 -0.42 0.06 c-0.06 -0.02 -0.12 -0.02 -0.18 -0.04 c-0.36 -0.12 -0.7 -0.06 -1.02 0.06 c-0.04 0.02 -0.08 0.04 -0.1 0.08 c-0.04 0.06 -0.06 0.12 -0.12 0.16 c-0.02 0.02 -0.04 0.08 -0.04 0.1 l0 0.44 l0 2.44 c0 0.22 0.02 0.46 0.04 0.68 c0.02 0.28 0.02 0.56 0 0.86 c-0.04 0.04 -0.12 0.08 -0.16 0.14 s-0.06 0.14 -0.08 0.2 c-0.18 0.1 -0.4 0.12 -0.58 0.18 c-0.18 0.04 -0.34 -0.04 -0.5 -0.12 c-0.04 -0.02 -0.08 -0.06 -0.1 -0.08 c-0.12 -0.1 -0.18 -0.2 -0.18 -0.34 l0 -0.34 c-0.02 -0.68 0 -1.36 -0.02 -2.04 c-0.02 -0.64 0 -1.28 0 -1.92 l0 -2.5 c0 -0.98 0.02 -1.94 0.04 -2.92 c0 -0.52 0.02 -1.06 0.04 -1.6 c0 -0.06 -0.04 -0.12 -0.1 -0.12 l-0.26 0 l-0.66 0 c-0.06 0 -0.12 0 -0.18 -0.06 z M95.18000000000002 7.42 c-0.08 -0.34 -0.1 -0.7 -0.08 -1.06 l0.06 -0.24 c0.02 -0.06 0.06 -0.1 0.12 -0.12 l0.66 -0.06 c0.04 0 0.06 0 0.1 -0.02 c0.48 -0.08 0.94 -0.08 1.42 -0.08 l3.82 0 c0.28 0 0.58 0.04 0.86 0.08 c0.04 0 0.08 0.04 0.08 0.06 c0.06 0.36 0.1 0.72 0.08 1.08 c0 0.12 -0.04 0.22 -0.08 0.32 c-0.04 0.04 -0.08 0.08 -0.12 0.08 c-0.18 0 -0.36 0.02 -0.54 0.02 l-3.16 0 l-0.4 0 c-0.1 0 -0.16 0.06 -0.16 0.16 s-0.02 0.18 0 0.26 c0.04 0.22 0.02 0.44 0.02 0.66 l0 0.68 c0 0.2 0 0.4 0.02 0.58 c0.02 0.08 0.02 0.18 0.02 0.26 l0 1.72 c0 0.14 -0.02 0.28 -0.02 0.42 c-0.02 0.06 0 0.12 0 0.18 c0 0.04 0.04 0.08 0.08 0.06 c0.12 0 0.24 -0.02 0.36 -0.04 c0.28 -0.06 0.56 -0.06 0.86 -0.04 c0.2 0 0.38 -0.04 0.56 -0.12 c0.08 -0.04 0.16 -0.1 0.24 -0.14 c0.16 -0.1 0.3 -0.1 0.46 -0.04 l0.12 0.18 c0.16 0.14 0.22 0.34 0.28 0.54 c0.04 0.1 0.08 0.22 0.12 0.34 c0.02 0.08 0.02 0.16 0.04 0.24 c0 0.04 -0.02 0.06 -0.02 0.08 c-0.08 0.08 -0.14 0.16 -0.22 0.24 c-0.02 0 -0.04 0.02 -0.08 0.02 c-0.12 0.02 -0.22 0.08 -0.32 0.16 s-0.22 0.12 -0.36 0.16 c-0.08 0 -0.16 0.02 -0.24 0.06 c-0.14 0.08 -0.28 0.08 -0.42 0.06 c-0.06 -0.02 -0.12 -0.02 -0.18 -0.04 c-0.36 -0.12 -0.7 -0.06 -1.02 0.06 c-0.04 0.02 -0.08 0.04 -0.1 0.08 c-0.04 0.06 -0.06 0.12 -0.12 0.16 c-0.02 0.02 -0.04 0.08 -0.04 0.1 l0 0.44 l0 2.44 c0 0.22 0.02 0.46 0.04 0.68 c0.02 0.28 0.02 0.56 0 0.86 c-0.04 0.04 -0.12 0.08 -0.16 0.14 s-0.06 0.14 -0.08 0.2 c-0.18 0.1 -0.4 0.12 -0.58 0.18 c-0.18 0.04 -0.34 -0.04 -0.5 -0.12 c-0.04 -0.02 -0.08 -0.06 -0.1 -0.08 c-0.12 -0.1 -0.18 -0.2 -0.18 -0.34 l0 -0.34 c-0.02 -0.68 0 -1.36 -0.02 -2.04 c-0.02 -0.64 0 -1.28 0 -1.92 l0 -2.5 c0 -0.98 0.02 -1.94 0.04 -2.92 c0 -0.52 0.02 -1.06 0.04 -1.6 c0 -0.06 -0.04 -0.12 -0.1 -0.12 l-0.26 0 l-0.66 0 c-0.06 0 -0.12 0 -0.18 -0.06 z M106.00400000000003 5.84 c0.06 -0.02 0.12 -0.02 0.18 -0.06 c0.26 -0.12 0.52 -0.1 0.8 -0.1 c0.06 0.02 0.12 0.02 0.16 0.04 c0.12 0.02 0.2 0.08 0.22 0.22 c0.04 0.14 0.06 0.28 0.06 0.42 c0.02 0.3 0.08 0.58 0.06 0.88 c0.04 0.54 0 1.06 0.02 1.6 c0 0.1 0.02 0.22 0.02 0.32 s0.02 0.2 0.02 0.3 l0 1.92 c0 0.14 0.02 0.26 0.02 0.4 l0 0.34 l0 2.68 l0 0.22 c0 0.08 0.02 0.16 0.06 0.24 c0.08 0.12 0.1 0.28 0.12 0.44 c0 0.06 0.02 0.12 0.06 0.18 c0.1 0.22 0.18 0.44 0.26 0.68 c0.06 0.16 0.14 0.3 0.26 0.42 c0.12 0.14 0.22 0.26 0.34 0.4 c0.04 0.04 0.08 0.08 0.12 0.1 c0.1 0.08 0.22 0.14 0.34 0.14 c0.18 0.02 0.38 0.02 0.54 -0.06 c0.04 -0.02 0.08 -0.06 0.1 -0.1 c0.06 -0.08 0.1 -0.16 0.12 -0.26 c0.02 -0.22 0.08 -0.44 0.14 -0.64 c0.06 -0.14 0.08 -0.26 0.08 -0.4 c0.02 -0.14 0.06 -0.3 0.12 -0.44 c0.12 -0.38 0.18 -0.78 0.18 -1.18 l0 -0.42 l0 -0.3 c-0.08 -0.14 -0.02 -0.26 0 -0.38 c0.02 -0.28 0.02 -0.54 0 -0.8 c-0.04 -0.48 -0.02 -0.98 -0.02 -1.46 c0 -0.88 0.02 -1.74 0.02 -2.62 c0 -0.56 0.02 -1.12 0.04 -1.68 c0 -0.16 0.02 -0.32 0.06 -0.46 c0.02 -0.12 0.02 -0.24 0.04 -0.36 c0.02 -0.04 0.04 -0.08 0.1 -0.1 c0.04 0 0.08 0 0.12 -0.02 c0.32 -0.16 0.64 -0.12 0.98 -0.1 c0.08 0 0.14 0.04 0.22 0.06 c0.04 0 0.08 0.04 0.08 0.08 c0.06 0.34 0.12 0.66 0.12 0.98 c0 0.68 0.02 1.36 0.02 2.02 c0.02 2.5 0 4.98 0 7.46 c0 0.42 0.02 0.42 -0.14 0.78 c-0.18 0.42 -0.36 0.82 -0.54 1.24 c-0.02 0.02 -0.02 0.04 -0.04 0.06 c0 0.02 -0.02 0.04 -0.04 0.06 c-0.14 0.08 -0.18 0.26 -0.32 0.36 c-0.18 0.1 -0.34 0.24 -0.52 0.36 c-0.12 0.1 -0.26 0.16 -0.42 0.18 c-0.14 0 -0.3 0.06 -0.46 0.06 c-0.08 0 -0.16 0.04 -0.24 0.06 c-0.12 0.04 -0.22 0.04 -0.34 -0.02 c-0.08 -0.04 -0.16 -0.04 -0.24 0 s-0.16 0.02 -0.24 0 c-0.14 -0.02 -0.3 -0.06 -0.44 -0.12 c-0.18 -0.06 -0.36 -0.16 -0.5 -0.32 c-0.02 -0.02 -0.06 -0.06 -0.1 -0.08 c-0.14 -0.08 -0.24 -0.18 -0.34 -0.3 c-0.14 -0.16 -0.28 -0.3 -0.44 -0.44 c-0.14 -0.14 -0.24 -0.3 -0.36 -0.44 l-0.02 -0.02 c-0.04 -0.24 -0.18 -0.44 -0.18 -0.66 c0 -0.14 -0.02 -0.28 -0.06 -0.4 c-0.04 -0.2 -0.1 -0.38 -0.14 -0.58 c-0.14 -0.46 -0.16 -0.94 -0.28 -1.4 c0 -0.18 -0.02 -0.36 -0.02 -0.56 c0 -1.3 0 -2.62 0.02 -3.94 c0 -0.2 0 -0.42 0.02 -0.62 c0 -0.46 0.02 -0.9 0.02 -1.36 c0 -0.6 0.02 -1.18 0.08 -1.78 c0.02 -0.18 0.04 -0.38 0.06 -0.56 c0 -0.06 0.04 -0.1 0.04 -0.16 z M116.52800000000003 10.6 c0.2 0.28 0.42 0.54 0.66 0.8 c0.18 0.22 0.4 0.36 0.64 0.48 c0.18 0.06 0.34 0.14 0.5 0.22 c0.28 0.18 0.52 0.36 0.74 0.58 c0.2 0.2 0.4 0.42 0.62 0.58 c0.06 0.06 0.1 0.12 0.18 0.18 l0.16 0 c0.06 0.02 0.1 0.04 0.14 0.08 c0.14 0.14 0.24 0.3 0.28 0.5 c0.02 0.16 0.06 0.32 0.12 0.48 c0.06 0.2 0.08 0.42 0.1 0.64 l0 0.58 c0 0.1 0 0.22 0.06 0.32 c0.02 0.04 0.02 0.1 0.02 0.16 c0.02 0.12 0.02 0.24 0.04 0.34 c0.04 0.28 0.04 0.54 -0.02 0.82 c-0.02 0.04 -0.02 0.1 -0.02 0.16 c-0.02 0.04 -0.02 0.1 -0.04 0.16 c-0.08 0.2 -0.12 0.42 -0.2 0.64 c0 0.02 -0.02 0.06 -0.04 0.08 c-0.1 0.14 -0.18 0.3 -0.28 0.44 c-0.04 0.06 -0.08 0.12 -0.14 0.18 c-0.16 0.04 -0.32 0.1 -0.48 0.2 c-0.04 0.04 -0.1 0.06 -0.18 0.06 c-0.06 0 -0.14 0.02 -0.22 0.02 c-0.12 0.02 -0.2 0.06 -0.28 0.16 s-0.18 0.14 -0.3 0.16 l-0.1 0 c-0.12 0.02 -0.26 0.06 -0.38 0.06 c-0.14 0 -0.26 -0.04 -0.38 -0.06 l-0.2 0 c-0.12 0 -0.24 -0.02 -0.34 -0.08 c-0.18 -0.08 -0.38 -0.14 -0.56 -0.18 c-0.14 -0.04 -0.26 -0.1 -0.38 -0.18 s-0.24 -0.16 -0.36 -0.22 c-0.3 -0.16 -0.5 -0.44 -0.68 -0.74 c-0.02 -0.1 -0.06 -0.2 -0.06 -0.3 c-0.02 -0.2 -0.08 -0.38 -0.1 -0.58 c-0.06 -0.3 -0.12 -0.6 -0.1 -0.9 c0.02 -0.1 0.02 -0.2 0.04 -0.3 c0.02 -0.14 0.04 -0.28 0.04 -0.42 c0 -0.08 0 -0.16 0.02 -0.24 c0.06 -0.14 0.04 -0.26 0.02 -0.38 c-0.04 -0.12 -0.06 -0.22 -0.1 -0.34 c0.04 -0.1 0.08 -0.2 0.12 -0.32 c0.02 -0.06 0.08 -0.1 0.14 -0.1 l0.24 0 c0.22 -0.02 0.46 -0.02 0.68 -0.02 c0.1 0 0.16 0.04 0.22 0.1 c0.04 0.04 0.06 0.08 0.06 0.12 c-0.02 0.12 0 0.22 0.1 0.3 c0.04 0.04 0.06 0.1 0.04 0.18 c-0.02 0.04 -0.04 0.1 -0.06 0.16 c-0.04 0.1 -0.06 0.22 -0.04 0.34 c0.04 0.12 0.02 0.26 0.04 0.38 c0 0.14 -0.02 0.26 0.04 0.4 c0.02 0.06 0.02 0.12 0 0.18 c-0.06 0.18 -0.04 0.34 -0.02 0.52 c0 0.08 0.04 0.16 0.12 0.22 c0.18 0.16 0.36 0.3 0.6 0.38 c0.06 0.02 0.14 0.06 0.2 0.08 c0.1 0.04 0.2 0.06 0.32 0.06 c0.08 0 0.18 0 0.26 0.04 c0.28 0.06 0.54 0.02 0.8 -0.08 c0.1 -0.02 0.2 -0.08 0.3 -0.12 c0.08 -0.22 0.16 -0.42 0.14 -0.66 l0 -1.42 l0 -0.2 c0 -0.14 -0.04 -0.26 -0.18 -0.32 c-0.04 -0.04 -0.08 -0.08 -0.1 -0.14 c-0.04 -0.18 -0.16 -0.32 -0.3 -0.44 c-0.26 -0.24 -0.5 -0.48 -0.76 -0.72 c-0.06 -0.04 -0.1 -0.1 -0.18 -0.12 c-0.08 0 -0.18 -0.04 -0.24 -0.08 c-0.14 -0.08 -0.28 -0.12 -0.44 -0.16 c-0.4 -0.1 -0.76 -0.28 -1.06 -0.56 c-0.26 -0.24 -0.42 -0.52 -0.58 -0.78 c-0.08 -0.12 -0.14 -0.26 -0.2 -0.38 c-0.1 -0.18 -0.12 -0.4 -0.18 -0.58 c-0.02 -0.04 0 -0.08 0 -0.1 c0.04 -0.14 0.06 -0.26 -0.02 -0.38 c-0.02 -0.24 -0.08 -0.46 -0.06 -0.7 c0.02 -0.22 0.04 -0.44 0.02 -0.66 l0 -0.08 c0.06 -0.16 0.06 -0.3 0.06 -0.46 l0 -0.94 c-0.02 -0.2 0.04 -0.38 0.16 -0.54 c0.04 -0.06 0.06 -0.1 0.1 -0.14 c0.14 -0.18 0.3 -0.38 0.46 -0.56 c0.02 -0.04 0.06 -0.06 0.12 -0.1 c0.18 -0.08 0.32 -0.2 0.48 -0.32 c0.12 -0.1 0.26 -0.18 0.42 -0.24 c0.14 -0.04 0.26 -0.12 0.4 -0.12 c0.06 0 0.12 -0.02 0.2 -0.02 c0.16 0 0.32 -0.02 0.48 -0.04 c0.1 -0.02 0.22 0 0.32 0.02 c0.18 0.02 0.34 0.04 0.52 0.04 c0.12 0.02 0.26 0.02 0.38 0.06 c0.1 0.02 0.2 0.08 0.3 0.14 c0.16 0.1 0.28 0.26 0.38 0.42 c0.08 0.12 0.14 0.24 0.24 0.34 c0.06 0.08 0.12 0.16 0.14 0.26 c0.02 0.06 0.04 0.12 0.08 0.18 c0.06 0.18 0.12 0.36 0.14 0.56 c0.02 0.08 0.04 0.16 0.04 0.22 c0.02 0.16 0.08 0.3 0.2 0.4 c0.06 0.04 0.06 0.08 0.06 0.14 c0 0.24 0 0.48 -0.02 0.72 c-0.04 0.18 -0.04 0.36 -0.04 0.54 c0 0.26 -0.02 0.5 -0.08 0.74 c-0.02 0.1 -0.02 0.18 0 0.26 c0.02 0.06 0.02 0.1 0.02 0.16 c0 0.04 0 0.06 -0.02 0.1 c-0.08 0.08 -0.16 0.14 -0.26 0.18 c-0.22 0.06 -0.44 0.1 -0.68 0.14 c-0.02 0.02 -0.06 0 -0.08 -0.02 c-0.06 -0.06 -0.14 -0.14 -0.2 -0.22 c0 -0.02 -0.02 -0.06 -0.02 -0.08 c-0.02 -0.14 -0.04 -0.26 -0.04 -0.4 c0.02 -0.18 0 -0.36 0 -0.54 c0 -0.14 0.02 -0.28 -0.02 -0.42 c-0.02 -0.02 -0.02 -0.04 -0.02 -0.06 c0.04 -0.36 -0.06 -0.72 -0.14 -1.06 c0 -0.02 0 -0.04 -0.02 -0.06 c-0.1 -0.18 -0.18 -0.4 -0.34 -0.56 c-0.1 -0.12 -0.22 -0.24 -0.34 -0.34 c-0.14 -0.12 -0.3 -0.18 -0.44 -0.26 l-0.1 0 c-0.22 0 -0.42 0.08 -0.62 0.18 c-0.04 0.02 -0.06 0.06 -0.1 0.08 l-0.28 0.28 s-0.2 0.2 -0.22 0.34 c0 0.06 -0.02 0.1 -0.02 0.14 c-0.02 0.04 -0.04 0.1 -0.02 0.16 c0.02 0.16 -0.08 0.34 -0.06 0.5 l0 1.44 c0 0.08 0.02 0.16 0.02 0.26 z M124.77200000000005 7.279999999999999 c-0.54 -0.1 -1.1 -0.1 -1.66 -0.08 c-0.22 0.02 -0.28 -0.02 -0.38 -0.22 c-0.1 -0.22 -0.12 -0.46 -0.12 -0.72 c0 -0.28 0.04 -0.34 0.36 -0.46 c0.18 -0.08 0.36 -0.08 0.56 -0.1 c0.42 -0.02 0.84 0 1.26 0.02 l0.62 0 c0.28 -0.02 0.58 -0.02 0.86 -0.02 c0.04 0 0.1 0 0.14 0.02 c0.14 0.06 0.26 0.06 0.4 0.06 l1.08 0 c0.08 0 0.18 -0.02 0.26 0.02 c0 0.02 0.02 0.04 0.04 0.06 c0.02 0.22 0.06 0.42 0.08 0.64 c0 0.1 -0.02 0.2 0 0.28 c0 0.14 -0.04 0.28 -0.08 0.4 c-0.02 0.08 -0.08 0.14 -0.16 0.14 c-0.2 0.02 -0.42 0.02 -0.62 0.02 l-0.82 0 c-0.12 0 -0.18 0.06 -0.18 0.18 l0 0.3 c0 0.2 0.02 0.42 0.02 0.62 l0 3.32 c0 0.78 0.02 1.58 0 2.36 l0 3.38 c0 0.12 0 0.22 0.02 0.34 c0 0.02 0.02 0.04 0.04 0.04 c0.06 0.02 0.12 0.04 0.18 0.04 c0.28 0 0.56 0.08 0.84 0.02 l0.78 0.06 c0.04 0.02 0.08 0.02 0.12 0.02 l0.18 0.12 c0.04 0.04 0.06 0.1 0.08 0.16 c0.08 0.22 0.06 0.44 0.02 0.66 c0 0.02 -0.02 0.04 -0.02 0.06 c-0.1 0.38 -0.14 0.38 -0.48 0.34 c-0.02 0 -0.06 -0.02 -0.08 -0.02 c-0.32 0 -0.64 -0.02 -0.96 -0.04 c-0.22 0 -0.42 0.02 -0.62 0.04 c-0.12 0.02 -0.24 0.02 -0.32 0.12 c-0.2 0.06 -0.4 0.12 -0.6 0.14 c-0.18 0.02 -0.34 -0.06 -0.5 -0.14 c-0.04 -0.02 -0.08 -0.06 -0.12 -0.08 c-0.06 -0.02 -0.12 -0.04 -0.18 -0.04 c-0.1 0 -0.2 0.02 -0.3 0 c-0.1 0 -0.22 0 -0.32 0.04 c-0.08 0.04 -0.16 0.06 -0.26 0.06 c-0.12 0 -0.26 0.02 -0.4 0.06 c-0.24 0.06 -0.48 0.02 -0.72 -0.06 c-0.08 -0.06 -0.16 -0.14 -0.22 -0.2 c-0.02 -0.02 -0.02 -0.04 -0.02 -0.06 c0 -0.1 0.02 -0.18 0.02 -0.26 c0.02 -0.12 0.04 -0.24 0.02 -0.38 c-0.02 -0.1 0 -0.22 0.04 -0.32 c0.02 -0.12 0.12 -0.22 0.26 -0.24 c0.24 -0.02 0.5 -0.04 0.74 -0.06 l0.36 -0.06 s0.24 -0.04 0.36 0 c0.1 0.02 0.2 0 0.3 -0.02 c0.16 -0.02 0.18 -0.04 0.18 -0.22 l0 -0.88 c-0.02 -0.46 -0.02 -0.9 -0.02 -1.34 l0 -3.34 c0.02 -0.98 0.02 -1.96 0.04 -2.94 c0 -0.48 0 -0.96 0.04 -1.44 l0 -0.12 c0.02 -0.12 -0.04 -0.2 -0.14 -0.28 z M134.31600000000003 19.86 l-0.18 -0.06 s-0.12 -0.02 -0.16 0 s-0.1 0.02 -0.14 0.02 c-0.3 -0.04 -0.66 -0.12 -0.9 -0.4 c-0.02 0 -0.04 -0.02 -0.06 -0.04 c-0.32 -0.2 -0.52 -0.5 -0.8 -0.76 c-0.1 -0.08 -0.16 -0.18 -0.22 -0.28 c-0.04 -0.08 -0.08 -0.18 -0.1 -0.26 c-0.06 -0.14 -0.1 -0.28 -0.1 -0.42 c0.02 -0.1 -0.02 -0.2 -0.04 -0.3 c-0.04 -0.14 -0.06 -0.28 -0.1 -0.42 c-0.1 -0.34 -0.14 -0.68 -0.22 -1.02 c-0.04 -0.18 -0.04 -0.36 -0.04 -0.54 c0 -0.62 -0.02 -1.24 -0.02 -1.86 s0.02 -1.24 0.02 -1.88 l0 -0.9 c0.02 -0.14 0 -0.28 -0.08 -0.4 c-0.02 -0.04 -0.02 -0.1 -0.02 -0.16 c0.02 -0.04 0.02 -0.06 0.02 -0.1 c0.04 -0.22 0.04 -0.44 -0.02 -0.66 c-0.02 -0.1 -0.02 -0.2 0 -0.3 c0.04 -0.18 0.06 -0.34 0 -0.5 l0 -0.14 c0.02 -0.06 0.02 -0.1 0.04 -0.16 c0.06 -0.14 0.08 -0.3 0.08 -0.46 c0 -0.12 0.02 -0.24 0.08 -0.36 c0.1 -0.24 0.26 -0.44 0.36 -0.68 c0.02 -0.04 0.04 -0.08 0.08 -0.1 c0.2 -0.22 0.4 -0.44 0.64 -0.6 c0.16 -0.1 0.3 -0.22 0.46 -0.34 c0.08 -0.08 0.18 -0.12 0.3 -0.14 c0.16 -0.04 0.3 -0.06 0.46 -0.1 c0.08 -0.04 0.16 -0.04 0.22 -0.04 c0.08 -0.02 0.16 -0.02 0.24 -0.04 c0.06 -0.02 0.14 -0.02 0.2 0.02 c0.02 0.02 0.06 0.02 0.08 0.04 c0.1 0.06 0.22 0.08 0.34 0.08 l0.2 0 s0.14 0.02 0.2 0.08 c0.02 0.02 0.04 0.04 0.06 0.04 c0.06 0.08 0.14 0.12 0.22 0.14 c0.22 0.08 0.36 0.22 0.5 0.4 c0.08 0.12 0.18 0.26 0.3 0.36 c0.04 0.04 0.08 0.1 0.1 0.16 c0.06 0.14 0.12 0.26 0.16 0.42 c0.02 0.1 0.08 0.2 0.12 0.3 c0.06 0.12 0.1 0.26 0.12 0.38 c0 0.18 0.04 0.36 0.08 0.54 c0.04 0.16 0.06 0.34 0.06 0.5 c-0.02 0.16 0 0.32 0.06 0.46 c0.02 0.06 0.02 0.12 0.02 0.16 c0.02 0.1 0.02 0.2 -0.04 0.26 c-0.04 0.06 -0.04 0.14 -0.04 0.2 l0 0.36 l0 6.62 c0.02 0.3 -0.06 0.6 -0.18 0.88 l-0.42 0.96 c-0.04 0.06 -0.08 0.1 -0.12 0.16 c-0.18 0.26 -0.46 0.42 -0.7 0.6 c-0.1 0.08 -0.2 0.12 -0.32 0.14 c-0.06 0 -0.14 0.02 -0.2 0.02 c-0.2 0 -0.4 0.06 -0.6 0.12 z M132.81600000000003 13.26 l0 2.24 l0 0.34 c0 0.06 0 0.12 0.02 0.16 c0.08 0.14 0.1 0.28 0.12 0.42 c0.02 0.06 0.04 0.14 0.06 0.2 c0.08 0.2 0.16 0.38 0.24 0.58 c0.04 0.08 0.08 0.18 0.12 0.24 c0.14 0.16 0.28 0.32 0.4 0.46 c0.16 0.18 0.38 0.24 0.62 0.22 c0.18 -0.02 0.32 -0.08 0.4 -0.26 c0.02 -0.04 0.02 -0.08 0.04 -0.12 c0 -0.18 0.06 -0.36 0.12 -0.54 c0.04 -0.14 0.08 -0.28 0.08 -0.42 c0 -0.1 0.04 -0.2 0.06 -0.3 c0.12 -0.28 0.16 -0.58 0.18 -0.88 c0 -0.22 0 -0.42 0.02 -0.64 c0 -0.08 0 -0.16 -0.04 -0.24 c-0.02 -0.04 -0.02 -0.1 0 -0.16 c0.06 -0.26 0.04 -0.52 0.02 -0.78 c-0.04 -0.38 -0.02 -0.78 -0.02 -1.16 c0 -0.74 0.02 -1.46 0.02 -2.2 c0.02 -0.12 0.02 -0.22 -0.02 -0.34 c-0.02 -0.04 -0.02 -0.1 -0.02 -0.16 c-0.02 -0.28 -0.06 -0.56 -0.12 -0.84 s-0.12 -0.56 -0.12 -0.86 c0 -0.14 -0.06 -0.28 -0.12 -0.42 c-0.04 -0.08 -0.1 -0.14 -0.14 -0.22 c-0.04 -0.1 -0.12 -0.16 -0.22 -0.2 c-0.04 -0.04 -0.1 -0.06 -0.14 -0.08 c-0.3 -0.1 -0.56 -0.08 -0.8 0.12 c-0.14 0.12 -0.26 0.24 -0.38 0.38 c-0.08 0.06 -0.12 0.16 -0.14 0.26 c-0.04 0.2 -0.08 0.42 -0.12 0.62 l0 0.1 c0 0.1 -0.02 0.2 0 0.3 c0 0.12 -0.08 0.22 -0.1 0.34 l0 0.02 c-0.02 0.26 -0.06 0.52 -0.08 0.78 c-0.02 0.18 -0.02 0.38 0.02 0.56 c0.02 0.06 0.02 0.12 0.02 0.18 c0 0.78 -0.02 1.58 0.02 2.3 z M140.12000000000006 5.74 c0.3 -0.14 0.6 -0.2 0.92 -0.2 c0.08 0 0.18 0 0.28 0.02 c0.08 0.02 0.12 0.06 0.14 0.14 c0.04 0.08 0.06 0.14 0.08 0.22 c0.04 0.18 0.06 0.36 0.1 0.54 c0.02 0.06 0.04 0.12 0.06 0.2 c0.04 0.06 0.08 0.12 0.1 0.18 c0.08 0.34 0.18 0.66 0.26 1 c0.06 0.2 0.12 0.4 0.22 0.6 c0.14 0.28 0.28 0.56 0.42 0.86 c0.12 0.26 0.26 0.52 0.38 0.8 c0.16 0.32 0.3 0.66 0.46 1 c0.06 0.14 0.16 0.28 0.24 0.44 c0.26 0.46 0.46 0.94 0.6 1.46 c0.02 0.1 0.06 0.2 0.1 0.3 c0.22 0.52 0.44 1.02 0.66 1.52 c0.08 0.16 0.16 0.3 0.26 0.44 c0.12 0.16 0.24 0.34 0.34 0.52 c0.06 0.12 0.14 0.2 0.2 0.3 c0.02 0.02 0.04 0.02 0.06 0.04 c0.02 0 0.06 -0.04 0.06 -0.08 l0 -0.36 l0 -9.86 l0 -0.36 c0 -0.04 0.02 -0.08 0.04 -0.12 c0.38 -0.1 0.76 -0.1 1.14 -0.1 c0.04 0 0.08 0.02 0.14 0.02 c0.18 0.06 0.24 0.06 0.26 0.3 c0.04 0.44 0.02 0.88 0.02 1.32 l0 1.42 c0.02 0.14 0 0.28 0 0.42 c0 0.28 0.02 0.56 0 0.86 c0 0.28 0.02 0.58 0 0.88 l0 0.84 l0 0.9 l0 1.1 c0 0.4 -0.02 0.82 -0.02 1.22 c0 0.18 0 0.34 -0.02 0.5 c0 0.72 0 1.42 -0.02 2.14 c0 0.26 -0.02 0.52 -0.04 0.78 l0 0.14 c-0.02 0.26 0.06 0.48 0.3 0.62 c0.12 0.06 0.16 0.14 0.16 0.26 c0.02 0.06 0.02 0.14 0.02 0.2 c0 0.08 -0.04 0.12 -0.08 0.16 c-0.14 0.1 -0.24 0.26 -0.34 0.4 c-0.04 0.08 -0.08 0.14 -0.14 0.2 c-0.12 0.1 -0.24 0.16 -0.38 0.14 c-0.06 -0.02 -0.1 0 -0.14 0 c-0.14 0 -0.24 -0.06 -0.32 -0.16 c-0.1 -0.12 -0.22 -0.24 -0.32 -0.36 c-0.08 -0.08 -0.14 -0.18 -0.18 -0.26 c-0.14 -0.3 -0.32 -0.6 -0.5 -0.86 c-0.1 -0.14 -0.2 -0.28 -0.3 -0.4 c-0.14 -0.12 -0.26 -0.28 -0.36 -0.44 c-0.08 -0.1 -0.16 -0.2 -0.22 -0.32 c-0.06 -0.08 -0.12 -0.16 -0.18 -0.26 c-0.1 -0.22 -0.22 -0.42 -0.36 -0.6 s-0.26 -0.38 -0.36 -0.58 c-0.16 -0.28 -0.3 -0.56 -0.42 -0.86 c-0.06 -0.22 -0.16 -0.42 -0.26 -0.62 c-0.18 -0.38 -0.34 -0.78 -0.46 -1.18 c-0.06 -0.22 -0.16 -0.42 -0.26 -0.62 c-0.24 -0.44 -0.46 -0.86 -0.64 -1.32 c-0.02 -0.06 -0.06 -0.12 -0.1 -0.18 l-0.02 0 l-0.04 0 l0 0.28 l0 3.74 c-0.02 1 -0.02 2.02 -0.04 3.04 c0 0.38 -0.02 0.76 -0.08 1.14 c-0.02 0.08 -0.02 0.16 -0.02 0.24 c-0.02 0.1 -0.08 0.18 -0.18 0.22 c-0.26 0.1 -0.52 0.12 -0.8 0.08 c-0.08 0 -0.18 -0.04 -0.26 -0.06 c-0.06 -0.02 -0.08 -0.06 -0.08 -0.12 c-0.02 -0.06 -0.02 -0.12 -0.04 -0.18 c0 -0.08 0 -0.16 -0.02 -0.24 c-0.04 -0.32 -0.06 -0.64 -0.08 -0.96 l0 -0.48 c-0.02 -0.2 -0.02 -0.4 -0.02 -0.62 l0 -10.14 c0 -0.22 0.02 -0.44 -0.04 -0.66 c-0.02 -0.04 0 -0.1 0.02 -0.14 c0.06 -0.14 0.08 -0.28 0.1 -0.44 z M158.32800000000003 12.58 l0 -5.6 c0 -0.14 0 -0.28 0.02 -0.42 c0.02 -0.08 0.02 -0.16 0.02 -0.26 l0 -0.32 c0 -0.04 0.04 -0.08 0.08 -0.1 c0.06 -0.02 0.12 -0.04 0.18 -0.04 c0.06 -0.02 0.12 -0.04 0.16 -0.06 c0.06 -0.06 0.12 -0.08 0.2 -0.08 s0.14 0 0.2 -0.02 c0.2 0 0.4 0 0.58 -0.04 c0.12 -0.02 0.24 0 0.36 0.02 c0.16 0.04 0.34 0.04 0.52 0 c0.14 -0.02 0.28 -0.02 0.42 0 c0.1 0.04 0.22 0 0.32 0 c0.08 0 0.16 -0.02 0.22 0 c0.12 0.02 0.24 0.02 0.36 0 c0.04 -0.02 0.08 0 0.14 0 c0.1 0.02 0.2 0.06 0.3 0.08 c0.16 0.02 0.3 0.06 0.42 0.18 c0.02 0.02 0.04 0.04 0.08 0.04 c0.1 0.04 0.2 0.1 0.26 0.18 c0.2 0.1 0.34 0.26 0.52 0.4 c0.02 0.02 0.04 0.02 0.04 0.04 c0.1 0.18 0.26 0.3 0.36 0.46 c0.06 0.08 0.12 0.16 0.12 0.26 c0.02 0.06 0.04 0.1 0.08 0.16 c0 0.02 0.04 0.06 0.04 0.08 c0 0.22 0.1 0.42 0.12 0.64 c0.04 0.32 0.12 0.62 0.24 0.9 c0.04 0.1 0.06 0.18 0.08 0.26 c0 0.06 0 0.12 0.02 0.2 c0 0.08 0 0.14 0.02 0.22 c0.02 0.12 0.06 0.26 0.08 0.38 s-0.02 0.24 0 0.36 c0.02 0.14 0.02 0.3 -0.04 0.44 c-0.04 0.16 -0.06 0.3 -0.04 0.46 c0 0.14 -0.02 0.26 -0.1 0.38 c-0.08 0.1 -0.08 0.24 -0.06 0.38 c0.02 0.2 -0.02 0.38 -0.1 0.56 c-0.06 0.16 -0.08 0.32 -0.1 0.48 c-0.02 0.04 -0.02 0.08 -0.04 0.12 c-0.06 0.12 -0.12 0.24 -0.16 0.36 c-0.02 0.04 -0.06 0.06 -0.08 0.1 c-0.04 0.04 -0.08 0.08 -0.1 0.12 c-0.08 0.18 -0.2 0.3 -0.32 0.42 c-0.06 0.06 -0.1 0.14 -0.18 0.18 c-0.06 0.06 -0.14 0.08 -0.22 0.12 c-0.1 0.02 -0.18 0.08 -0.26 0.14 c-0.04 0.06 -0.1 0.1 -0.14 0.14 c-0.06 0.04 -0.1 0.08 -0.18 0.06 c-0.16 0 -0.3 0.04 -0.44 0.1 c-0.2 0.08 -0.42 0.12 -0.64 0.12 c-0.14 -0.02 -0.26 0.02 -0.38 0.04 l-0.16 0 c-0.12 -0.04 -0.24 -0.04 -0.36 -0.04 c-0.16 0.02 -0.32 0 -0.48 -0.04 c-0.08 -0.02 -0.16 -0.02 -0.24 -0.02 c-0.04 0 -0.1 0.06 -0.1 0.12 l0 0.3 l0 2.4 c0 0.36 -0.02 0.72 -0.08 1.08 c-0.04 0.18 -0.12 0.32 -0.2 0.48 c0 0.02 -0.04 0.06 -0.06 0.06 c-0.1 0.04 -0.2 0.02 -0.28 0.1 l-0.02 0 c-0.18 0 -0.36 0.02 -0.54 0 c-0.1 0 -0.16 -0.06 -0.22 -0.16 c-0.08 -0.2 -0.16 -0.38 -0.18 -0.6 c-0.04 -0.26 -0.06 -0.52 -0.06 -0.78 l0 -5.54 l0 0 z M159.96800000000002 10.38 l0 0.58 l0 2.12 l0 0.3 c0 0.06 0.06 0.1 0.1 0.1 c0.1 0.02 0.2 0.02 0.3 0.02 c0.08 0 0.14 0 0.22 0.02 c0.22 0.02 0.42 0.02 0.62 0.02 c0.34 0 0.64 -0.06 0.96 -0.2 c0.22 -0.08 0.4 -0.24 0.54 -0.46 c0.12 -0.2 0.22 -0.44 0.24 -0.7 c0.04 -0.28 0.08 -0.58 0.14 -0.86 c0.08 -0.3 0.1 -0.6 0.1 -0.9 c0 -0.18 -0.02 -0.36 -0.06 -0.52 c-0.06 -0.24 -0.12 -0.48 -0.16 -0.74 c-0.08 -0.36 -0.2 -0.72 -0.3 -1.1 c-0.02 -0.08 -0.06 -0.14 -0.12 -0.18 c-0.14 -0.12 -0.26 -0.26 -0.4 -0.38 c-0.12 -0.1 -0.26 -0.16 -0.42 -0.16 c-0.26 -0.02 -0.52 -0.08 -0.78 -0.02 l-0.22 0 l-0.54 0 l-0.12 0 s-0.1 0.06 -0.1 0.1 l0 0.32 l0 2.64 z M168.412 5.800000000000001 c0.08 -0.02 0.14 -0.04 0.2 -0.06 c0.26 -0.12 0.54 -0.1 0.82 -0.1 c0.04 0 0.06 0 0.08 0.02 c0.28 0.06 0.34 0.04 0.36 0.38 c0 0.36 0.02 0.74 0.02 1.1 l0 10.4 l0 0.36 c0 0.14 0.02 0.18 0.18 0.18 l0.22 0 c0.3 0.06 0.58 0 0.86 -0.06 c0.26 -0.06 0.52 -0.1 0.78 -0.1 l1.92 0 c0.04 0 0.08 0.02 0.14 0.02 c0.1 0.36 0.12 0.72 0.1 1.1 c0 0.08 -0.02 0.16 -0.04 0.24 c-0.02 0.1 -0.1 0.16 -0.2 0.18 c-0.12 0.02 -0.24 0.02 -0.36 0.02 c-0.3 0 -0.6 0 -0.92 -0.02 c-0.4 0 -0.82 0.04 -1.22 0.12 c-0.08 0.02 -0.14 0.02 -0.22 0.04 c-0.18 0.02 -0.34 0.04 -0.52 0.04 l-0.42 0 c-0.1 0 -0.18 -0.02 -0.26 -0.02 c-0.48 0 -0.94 -0.08 -1.42 -0.1 c-0.12 0 -0.24 -0.02 -0.36 -0.1 c-0.14 -0.26 -0.16 -0.56 -0.14 -0.86 c0.02 -0.06 0.02 -0.12 0.04 -0.18 c0.02 -0.08 0.06 -0.16 0.16 -0.2 c0.02 -0.02 0.04 -0.04 0.06 -0.04 c0.04 -0.12 0.04 -0.24 0.04 -0.36 l0 -2.76 c0 -2.16 -0.02 -4.34 0 -6.5 c0 -0.6 0 -1.22 0.02 -1.84 c0 -0.26 0.04 -0.52 0.06 -0.78 c0 -0.04 0 -0.06 0.02 -0.12 z M183.67600000000002 14.440000000000001 l-0.06 0.12 l0 0.22 c-0.02 0.78 -0.02 1.56 -0.04 2.34 c-0.02 0.6 -0.06 1.18 -0.1 1.78 c0 0.1 -0.04 0.2 -0.04 0.3 c-0.02 0.08 -0.06 0.12 -0.14 0.16 c-0.08 0.02 -0.16 0.04 -0.24 0.08 c-0.28 0.06 -0.54 0.08 -0.82 0 c-0.08 -0.04 -0.14 -0.1 -0.16 -0.18 c-0.02 -0.06 -0.04 -0.12 -0.04 -0.18 c-0.04 -0.34 -0.08 -0.66 -0.08 -1 c-0.04 -0.58 -0.02 -1.16 -0.04 -1.74 c-0.02 -0.48 -0.02 -0.96 -0.04 -1.42 c0 -0.06 0.02 -0.12 -0.04 -0.18 c-0.12 -0.04 -0.24 -0.02 -0.36 0 c-0.7 0.12 -1.42 0.24 -2.12 0.36 l-0.18 0.06 c-0.02 0.02 -0.06 0.06 -0.06 0.08 c-0.02 0.08 -0.02 0.14 -0.02 0.22 l-0.06 2.82 c0 0.2 -0.04 0.38 -0.06 0.56 c-0.02 0.1 0.02 0.24 -0.08 0.32 c-0.06 0.06 -0.18 0.06 -0.26 0.1 c-0.14 0.06 -0.3 0.08 -0.44 0.08 l-0.3 0 c-0.12 0 -0.22 -0.04 -0.32 -0.08 c-0.06 0 -0.1 -0.04 -0.1 -0.08 c-0.06 -0.26 -0.12 -0.52 -0.12 -0.78 c-0.02 -0.84 -0.02 -1.68 -0.02 -2.52 l0 -0.34 c-0.02 -0.1 -0.06 -0.14 -0.14 -0.14 c-0.18 0 -0.34 0.02 -0.52 0.04 c-0.34 0.02 -0.66 -0.04 -1 -0.1 c-0.04 -0.02 -0.08 -0.06 -0.1 -0.1 c-0.04 -0.18 -0.1 -0.34 -0.12 -0.5 c-0.02 -0.18 0 -0.32 0.02 -0.48 c0.02 -0.08 0.08 -0.14 0.16 -0.16 c0.14 -0.04 0.28 -0.06 0.44 -0.06 c0.38 -0.02 0.76 -0.1 1.12 -0.18 c0.04 0 0.08 -0.02 0.1 -0.04 c0.06 -0.12 0.04 -0.26 0.04 -0.38 l0 -3 l0 -1.58 c-0.02 -0.22 0.02 -0.44 0.12 -0.64 c0.18 -0.42 0.36 -0.84 0.56 -1.26 c0 -0.04 0.04 -0.08 0.08 -0.12 c0 -0.02 0.04 -0.02 0.04 -0.04 c0.2 -0.32 0.52 -0.48 0.78 -0.68 c0.14 -0.1 0.28 -0.16 0.46 -0.16 c0.1 -0.02 0.2 -0.04 0.3 -0.04 c0.06 -0.02 0.14 -0.02 0.2 -0.04 c0.18 -0.06 0.34 -0.1 0.52 -0.02 c0.04 0.02 0.1 0.02 0.14 0.02 c0.14 -0.06 0.26 -0.02 0.4 0 c0.22 0.06 0.46 0.14 0.64 0.28 c0.12 0.08 0.18 0.2 0.32 0.26 c0.12 0.04 0.18 0.16 0.26 0.24 c0.16 0.16 0.3 0.32 0.46 0.46 c0.12 0.12 0.22 0.26 0.32 0.4 c0.04 0.06 0.06 0.16 0.1 0.24 c0.06 0.18 0.12 0.34 0.12 0.54 c0 0.1 0.02 0.2 0.04 0.28 c0.04 0.18 0.08 0.34 0.12 0.52 c0.14 0.4 0.16 0.82 0.26 1.22 c0.06 0.32 0.06 0.62 0.06 0.94 l0 0.02 l0 1.38 c0 0.06 0 0.12 0.08 0.18 c0.42 -0.04 0.88 -0.02 1.32 -0.02 c0.06 0 0.12 0 0.18 0.02 c0.02 0 0.08 0.04 0.08 0.08 c0.02 0.14 0.06 0.3 0.08 0.46 c0.02 0.22 0 0.42 0 0.64 c0 0.08 -0.02 0.14 -0.04 0.22 s-0.08 0.14 -0.18 0.16 c-0.08 0.02 -0.14 0.02 -0.22 0.02 l-0.7 0 c-0.2 0 -0.38 0 -0.56 0.02 z M181.85600000000002 11.64 l0 -1.2 c0 -0.14 0 -0.28 -0.08 -0.42 c-0.04 -0.06 -0.04 -0.12 -0.06 -0.18 c-0.02 -0.2 -0.08 -0.38 -0.18 -0.56 l-0.12 -0.3 c-0.08 -0.26 -0.2 -0.5 -0.4 -0.7 c-0.12 -0.12 -0.22 -0.24 -0.34 -0.36 c-0.04 -0.04 -0.12 -0.08 -0.18 -0.1 c-0.1 -0.04 -0.22 -0.06 -0.34 -0.06 c-0.36 0.02 -0.5 0.14 -0.56 0.46 c-0.02 0.02 -0.02 0.04 -0.02 0.06 c0 0.16 -0.06 0.3 -0.1 0.44 c-0.06 0.18 -0.1 0.36 -0.12 0.54 c-0.02 0.14 -0.04 0.26 -0.1 0.4 c-0.1 0.28 -0.16 0.6 -0.16 0.9 c0 0.24 -0.02 0.48 -0.02 0.7 c0 0.1 0 0.2 0.02 0.3 c0.04 0.08 0.02 0.18 0.02 0.26 c-0.06 0.26 -0.06 0.52 -0.04 0.78 c0.02 0.24 0.04 0.48 0.04 0.74 c0 0.04 0 0.1 0.02 0.14 c0 0.02 0.02 0.04 0.04 0.04 c0.06 0.02 0.1 0.02 0.16 0 c0.3 -0.04 0.6 -0.08 0.9 -0.14 c0.42 -0.1 0.84 -0.16 1.24 -0.24 c0.1 0 0.18 -0.02 0.26 -0.04 s0.12 -0.06 0.12 -0.16 l0 -0.26 l0 -1.04 z M191.14 17.14 c0 -0.72 -0.02 -1.44 0 -2.14 c0 -0.2 -0.02 -0.4 -0.1 -0.58 c-0.02 -0.06 -0.04 -0.14 -0.04 -0.22 c-0.04 -0.34 -0.14 -0.64 -0.22 -0.96 c-0.02 -0.08 -0.06 -0.16 -0.08 -0.22 c-0.1 -0.18 -0.18 -0.36 -0.26 -0.52 c-0.22 -0.44 -0.38 -0.88 -0.52 -1.34 c-0.1 -0.38 -0.24 -0.74 -0.42 -1.08 c-0.2 -0.42 -0.36 -0.88 -0.48 -1.34 c-0.04 -0.2 -0.1 -0.38 -0.18 -0.56 c-0.1 -0.24 -0.18 -0.48 -0.26 -0.72 c-0.04 -0.08 -0.06 -0.16 -0.14 -0.2 s-0.12 -0.1 -0.12 -0.18 c-0.02 -0.06 -0.02 -0.12 -0.02 -0.18 c0 -0.18 -0.02 -0.34 -0.1 -0.5 c-0.02 -0.06 -0.02 -0.14 0.02 -0.2 c0.04 -0.08 0.06 -0.16 0.06 -0.26 c0 -0.06 0 -0.14 0.02 -0.2 c0 -0.1 0.04 -0.14 0.14 -0.16 c0.06 -0.02 0.12 -0.02 0.2 -0.06 c0.08 -0.02 0.16 -0.04 0.26 -0.04 l0.54 0 c0.02 0 0.02 -0.02 0.04 -0.02 c0.32 0.04 0.36 0.08 0.4 0.36 c0.02 0.12 0.02 0.24 0.02 0.38 c0 0.1 0.02 0.2 0.06 0.3 c0.1 0.26 0.18 0.56 0.32 0.82 c0.04 0.08 0.06 0.16 0.08 0.26 c0.06 0.14 0.1 0.3 0.16 0.44 c0.06 0.16 0.12 0.3 0.14 0.46 c0.02 0.26 0.12 0.5 0.24 0.74 c0.24 0.42 0.4 0.88 0.56 1.36 c0.02 0.1 0.04 0.2 0.08 0.3 c0.06 0.28 0.16 0.54 0.28 0.78 c0.02 0.04 0.02 0.04 0.04 0.06 c0.02 0.04 0.06 0.02 0.08 0 c0.14 -0.2 0.22 -0.44 0.28 -0.68 c0.04 -0.08 0.04 -0.16 0.06 -0.24 c0.06 -0.2 0.1 -0.4 0.2 -0.58 c0.02 -0.04 0.02 -0.08 0.04 -0.14 c0.08 -0.28 0.2 -0.54 0.34 -0.8 c0.16 -0.28 0.26 -0.56 0.3 -0.86 c0.02 -0.14 0.06 -0.28 0.12 -0.4 l0.06 -0.12 c0.1 -0.4 0.28 -0.76 0.42 -1.16 c0.08 -0.22 0.16 -0.44 0.14 -0.68 c0 -0.1 0.02 -0.22 0.04 -0.32 c0.02 -0.18 0.1 -0.24 0.28 -0.26 l0.14 0 l0.48 0 c0.12 0 0.24 0.02 0.36 0.06 c0.3 0.08 0.3 0.04 0.32 0.38 c0 0.06 0 0.14 0.02 0.2 c0.12 0.12 0.06 0.24 0.02 0.38 c-0.04 0.1 -0.06 0.2 -0.06 0.3 l0 0.2 c0 0.12 -0.04 0.22 -0.16 0.28 c-0.06 0.04 -0.08 0.08 -0.1 0.14 c-0.08 0.26 -0.18 0.52 -0.28 0.76 c-0.08 0.2 -0.14 0.38 -0.2 0.58 c-0.1 0.48 -0.28 0.92 -0.48 1.34 c-0.16 0.34 -0.3 0.68 -0.38 1.02 c-0.18 0.58 -0.4 1.14 -0.68 1.68 c-0.12 0.22 -0.22 0.46 -0.28 0.72 c-0.06 0.3 -0.1 0.6 -0.18 0.9 c-0.02 0.12 -0.02 0.24 -0.02 0.34 l0 1.06 l0 3.62 c0 0.32 0.02 0.3 -0.3 0.36 c-0.28 0.04 -0.58 0.04 -0.86 0.04 c-0.1 0 -0.2 -0.04 -0.3 -0.06 c-0.06 -0.02 -0.12 -0.08 -0.12 -0.14 c-0.02 -0.08 -0.02 -0.16 -0.02 -0.24 c0 -0.66 0 -1.3 -0.02 -1.96 l0 -0.3 l0.02 0 z M206.624 20.18 c-0.1 0.08 -0.22 0.1 -0.32 0.14 c-0.22 0.06 -0.46 0.1 -0.7 0.14 l-0.14 0 c-0.22 -0.02 -0.3 0 -0.36 -0.32 c-0.02 -0.1 -0.04 -0.2 -0.06 -0.32 c0 -0.14 -0.04 -0.28 -0.08 -0.42 c-0.12 -0.28 -0.18 -0.58 -0.26 -0.86 c-0.02 -0.08 -0.02 -0.14 -0.02 -0.22 c-0.02 -0.16 -0.04 -0.3 -0.06 -0.46 c-0.04 -0.24 -0.08 -0.22 -0.24 -0.1 c-0.12 0.08 -0.22 0.2 -0.3 0.3 s-0.16 0.18 -0.28 0.22 c-0.04 0.02 -0.06 0.04 -0.1 0.06 c-0.18 0.14 -0.38 0.18 -0.6 0.16 c-0.18 -0.02 -0.34 -0.02 -0.5 -0.02 l-0.12 0 c-0.24 -0.06 -0.46 -0.1 -0.7 -0.08 c-0.04 0 -0.08 -0.02 -0.12 -0.02 c-0.18 -0.08 -0.36 -0.12 -0.54 -0.16 c-0.06 -0.02 -0.14 -0.04 -0.16 -0.08 c-0.1 -0.12 -0.24 -0.18 -0.38 -0.22 c-0.14 -0.06 -0.26 -0.14 -0.36 -0.28 c-0.02 -0.04 -0.06 -0.1 -0.1 -0.14 c-0.18 -0.1 -0.24 -0.26 -0.26 -0.44 c0 -0.12 -0.04 -0.22 -0.08 -0.32 c-0.08 -0.2 -0.16 -0.42 -0.22 -0.64 c-0.14 -0.4 -0.16 -0.8 -0.16 -1.22 c0.02 -0.84 0.04 -1.68 0.04 -2.52 l0 -0.32 c0 -0.44 0.02 -0.86 0.08 -1.3 c0.02 -0.28 0.06 -0.56 0 -0.86 c-0.02 -0.08 -0.02 -0.16 0 -0.24 c0.02 -0.2 0.04 -0.4 0.04 -0.58 l0 -0.14 c0.1 -0.34 0.08 -0.68 0.2 -1 c0.04 -0.14 0.06 -0.28 0.08 -0.42 c0.04 -0.26 0.1 -0.5 0.16 -0.74 c0.04 -0.12 0.06 -0.26 0.08 -0.4 c0.02 -0.18 0.06 -0.34 0.2 -0.48 c0.04 -0.04 0.08 -0.1 0.1 -0.16 c0.04 -0.12 0.14 -0.22 0.24 -0.28 c0.18 -0.12 0.36 -0.26 0.54 -0.38 c0.06 -0.04 0.12 -0.06 0.2 -0.06 c0.12 0 0.24 -0.02 0.36 -0.06 l0.02 0 c0.42 -0.02 0.84 -0.1 1.26 -0.08 c0.18 0 0.34 0.04 0.5 0.06 c0.04 0 0.08 0.02 0.1 0.04 c0.1 0.04 0.2 0.1 0.3 0.14 c0.2 0.1 0.38 0.2 0.5 0.4 c0.04 0.08 0.12 0.14 0.2 0.2 c0.06 0.06 0.12 0.12 0.14 0.2 c0.02 0.16 0.1 0.3 0.16 0.44 c0.1 0.16 0.14 0.32 0.16 0.52 l0 0.1 c0.08 0.34 0.06 0.7 0.04 1.04 c-0.02 0.22 0 0.44 0 0.64 c-0.02 0.12 -0.02 0.22 -0.04 0.34 l0 0.24 c0 0.48 -0.06 0.96 -0.16 1.44 c0 0.04 -0.02 0.08 -0.04 0.14 c-0.04 0.12 -0.12 0.18 -0.26 0.2 c-0.24 0.04 -0.48 0.06 -0.72 0 c-0.08 -0.02 -0.18 -0.02 -0.28 -0.04 c-0.06 0 -0.14 -0.04 -0.2 -0.06 c-0.04 -0.02 -0.08 -0.06 -0.08 -0.12 c0 -0.1 0 -0.18 0.02 -0.28 c0.04 -0.36 0.1 -0.72 0.14 -1.08 c0.04 -0.58 0.06 -1.16 0.06 -1.76 c0 -0.1 0 -0.22 -0.02 -0.32 c-0.02 -0.26 -0.14 -0.48 -0.28 -0.7 c-0.1 -0.14 -0.24 -0.22 -0.44 -0.22 c-0.26 0 -0.52 0.02 -0.78 0.06 c-0.08 0.02 -0.16 0.06 -0.22 0.12 c-0.16 0.18 -0.28 0.36 -0.32 0.6 c-0.04 0.2 -0.1 0.4 -0.1 0.6 c-0.02 0.06 -0.02 0.12 -0.04 0.18 c-0.1 0.34 -0.1 0.72 -0.2 1.06 c0 0.36 -0.06 0.72 -0.06 1.08 c0 0.42 0 0.84 -0.08 1.26 c-0.02 0.14 -0.06 0.28 -0.02 0.42 c0.02 0.06 0 0.1 0 0.16 c0.02 0.14 0 0.3 -0.02 0.46 s0.02 0.3 0.02 0.46 c0.02 0.08 0 0.14 0 0.22 c-0.02 0.06 -0.02 0.12 -0.02 0.18 c-0.02 0.56 -0.02 1.1 -0.02 1.66 c-0.02 0.32 0.04 0.62 0.16 0.92 c0.06 0.16 0.12 0.34 0.18 0.5 c0.06 0.12 0.12 0.2 0.24 0.26 c0.14 0.08 0.28 0.14 0.44 0.16 c0.1 0.02 0.18 0.04 0.28 0.04 c0.24 0.02 0.46 0.08 0.68 0.04 c0.1 -0.04 0.16 -0.12 0.22 -0.2 c0.06 -0.06 0.1 -0.16 0.1 -0.26 c0.04 -0.5 0.08 -1.02 0.06 -1.54 c0 -0.2 -0.04 -0.4 -0.08 -0.6 c-0.02 -0.08 -0.08 -0.14 -0.16 -0.14 c-0.28 -0.04 -0.58 -0.14 -0.88 -0.14 c-0.14 0.02 -0.26 -0.06 -0.38 -0.1 c-0.04 -0.02 -0.08 -0.06 -0.1 -0.1 c-0.1 -0.32 -0.12 -0.66 -0.02 -1 c0.02 -0.12 0.1 -0.2 0.24 -0.24 c0.02 0 0.06 -0.04 0.1 -0.02 c0.14 0 0.26 -0.06 0.38 -0.1 c0.14 -0.02 0.26 0.06 0.38 0.08 l0.3 0 c0.12 0 0.24 0 0.36 0.04 l0.1 0 c0.22 -0.06 0.42 0 0.62 0.08 c0.06 0.02 0.1 0.02 0.16 0.02 c0.08 0.02 0.16 0.02 0.24 0.04 c0.06 0.02 0.12 0.02 0.18 0 c0.1 -0.06 0.22 -0.06 0.36 -0.08 c0.08 0.06 0.18 0.12 0.26 0.18 c0.06 0.14 0.1 0.26 0.16 0.4 c0.04 0.12 0.08 0.24 0.1 0.38 c0 0.04 0 0.08 0.02 0.1 c0.12 0.28 0.08 0.56 0.04 0.82 c-0.06 0.32 -0.06 0.62 -0.02 0.94 c0.04 0.34 0.1 0.68 0.2 1.02 c0.14 0.48 0.22 0.98 0.32 1.48 c0.02 0.08 0.02 0.14 0.02 0.22 c0.02 0.12 0.04 0.24 0.12 0.34 c0.08 0.12 0.12 0.26 0.14 0.4 c0.02 0.16 0.06 0.3 0.1 0.46 c0.04 0.12 0.06 0.26 0.06 0.38 l0 0.46 z M209.48799999999997 12.54 l0 -5.6 c0 -0.18 -0.02 -0.36 0.02 -0.54 c0.02 -0.08 0 -0.16 0 -0.24 l0 -0.3 c0.02 -0.08 0.06 -0.12 0.14 -0.14 c0.04 -0.02 0.08 -0.02 0.12 -0.04 c0.06 0 0.12 -0.02 0.16 -0.06 c0.08 -0.04 0.16 -0.06 0.26 -0.08 l0.24 0 c0.14 0 0.3 0 0.46 -0.04 c0.14 -0.02 0.26 -0.02 0.4 0.02 c0.18 0.04 0.36 0.04 0.54 0 c0.12 -0.02 0.26 -0.04 0.38 0 c0.08 0.02 0.18 0 0.26 0 c0.16 -0.02 0.3 -0.04 0.44 0 c0.02 0.02 0.04 0.02 0.06 0 c0.24 -0.06 0.44 0.06 0.68 0.08 c0.12 0.02 0.26 0.06 0.36 0.16 c0.02 0.04 0.06 0.06 0.1 0.06 c0.08 0.02 0.14 0.06 0.18 0.1 c0.1 0.06 0.2 0.14 0.28 0.2 c0.06 0.06 0.12 0.14 0.2 0.18 c0.2 0.14 0.3 0.36 0.46 0.54 c0.1 0.1 0.18 0.2 0.18 0.36 c0 0.04 0.04 0.08 0.06 0.12 c0.02 0.02 0.04 0.06 0.04 0.08 c0.02 0.24 0.14 0.44 0.14 0.66 c0.02 0.28 0.12 0.56 0.22 0.82 c0.04 0.16 0.08 0.3 0.1 0.46 c0.04 0.2 0.06 0.4 0.1 0.6 c0.02 0.04 0.02 0.06 0.02 0.1 c-0.02 0.3 0.04 0.58 -0.06 0.88 c-0.04 0.14 -0.02 0.28 -0.02 0.44 c0 0.08 -0.02 0.16 -0.06 0.22 c-0.1 0.14 -0.14 0.32 -0.1 0.48 c0.02 0.16 0 0.3 -0.06 0.44 c-0.08 0.18 -0.1 0.36 -0.14 0.56 c-0.02 0.08 -0.04 0.16 -0.1 0.24 c-0.02 0.06 -0.04 0.1 -0.06 0.16 c-0.04 0.1 -0.1 0.18 -0.16 0.26 c-0.04 0.04 -0.08 0.1 -0.12 0.16 c-0.02 0.06 -0.04 0.12 0 0.16 c0.06 0.12 0.12 0.22 0.2 0.32 c0.16 0.26 0.34 0.54 0.5 0.8 c0.2 0.38 0.4 0.76 0.52 1.18 c0.08 0.2 0.14 0.38 0.26 0.54 c0.08 0.1 0.12 0.22 0.16 0.34 c0.1 0.22 0.18 0.44 0.32 0.64 c0.06 0.08 0.08 0.16 0.1 0.24 c0.04 0.14 0.08 0.24 0.18 0.32 c0.08 0.06 0.12 0.14 0.14 0.24 c0 0.08 0.04 0.18 0.08 0.26 s0.02 0.14 -0.04 0.2 c-0.06 0.08 -0.12 0.14 -0.2 0.18 c-0.2 0.14 -0.4 0.26 -0.6 0.38 c-0.1 0.06 -0.22 0.1 -0.32 0.12 c-0.06 0.04 -0.14 0.02 -0.18 -0.04 c-0.1 -0.08 -0.2 -0.18 -0.28 -0.3 c-0.2 -0.32 -0.4 -0.66 -0.52 -1.02 c-0.12 -0.34 -0.26 -0.64 -0.42 -0.96 c-0.1 -0.22 -0.2 -0.46 -0.28 -0.7 c-0.08 -0.22 -0.18 -0.46 -0.3 -0.68 l-0.6 -1.02 l-0.06 -0.12 c-0.06 -0.06 -0.1 -0.08 -0.18 -0.06 c-0.06 0.02 -0.12 0.04 -0.16 0.06 c-0.18 0.08 -0.38 0.12 -0.56 0.12 c-0.14 0 -0.28 -0.02 -0.4 0.04 l-0.18 0 c-0.12 0.02 -0.24 -0.08 -0.36 -0.04 s-0.22 0.02 -0.34 0 c-0.08 -0.02 -0.18 -0.02 -0.26 -0.04 c-0.28 0 -0.3 0.02 -0.3 0.28 l0 2.54 c0 0.36 -0.02 0.7 -0.08 1.06 c-0.02 0.18 -0.12 0.34 -0.18 0.5 c-0.02 0.04 -0.06 0.06 -0.1 0.08 c-0.08 0.02 -0.16 0.02 -0.22 0.08 c-0.02 0.02 -0.06 0.02 -0.1 0.02 l-0.44 0 s-0.24 -0.06 -0.28 -0.2 c-0.14 -0.26 -0.2 -0.56 -0.22 -0.84 c-0.02 -0.18 -0.02 -0.34 -0.02 -0.52 l0 -5.5 l0 0 z M211.128 10.28 l0 2.68 l0 0.3 c0 0.06 0.04 0.1 0.1 0.12 c0.14 0.02 0.28 0.04 0.44 0.02 c0.26 0.04 0.52 0.02 0.78 0.02 c0.14 0.02 0.26 0 0.4 -0.02 c0.32 -0.06 0.58 -0.2 0.82 -0.38 c0.12 -0.1 0.22 -0.2 0.28 -0.34 c0.08 -0.22 0.16 -0.42 0.2 -0.64 c0.02 -0.28 0.06 -0.54 0.12 -0.82 c0.02 -0.12 0.06 -0.24 0.08 -0.36 c0.04 -0.28 0.02 -0.56 0.02 -0.84 c0 -0.04 -0.02 -0.06 -0.02 -0.1 c-0.14 -0.52 -0.22 -1.06 -0.38 -1.58 c-0.16 -0.58 -0.08 -0.48 -0.5 -0.84 c-0.04 -0.04 -0.08 -0.06 -0.1 -0.1 c-0.12 -0.1 -0.24 -0.16 -0.4 -0.18 c-0.2 -0.04 -0.42 -0.04 -0.64 -0.06 c-0.28 0.04 -0.58 0 -0.88 0.02 l-0.16 0 c-0.12 0 -0.16 0.04 -0.16 0.18 l0 0.26 l0 2.66 z M222.75199999999998 19.86 l-0.18 -0.06 s-0.12 -0.02 -0.16 0 s-0.1 0.02 -0.14 0.02 c-0.3 -0.04 -0.66 -0.12 -0.9 -0.4 c-0.02 0 -0.04 -0.02 -0.06 -0.04 c-0.32 -0.2 -0.52 -0.5 -0.8 -0.76 c-0.1 -0.08 -0.16 -0.18 -0.22 -0.28 c-0.04 -0.08 -0.08 -0.18 -0.1 -0.26 c-0.06 -0.14 -0.1 -0.28 -0.1 -0.42 c0.02 -0.1 -0.02 -0.2 -0.04 -0.3 c-0.04 -0.14 -0.06 -0.28 -0.1 -0.42 c-0.1 -0.34 -0.14 -0.68 -0.22 -1.02 c-0.04 -0.18 -0.04 -0.36 -0.04 -0.54 c0 -0.62 -0.02 -1.24 -0.02 -1.86 s0.02 -1.24 0.02 -1.88 l0 -0.9 c0.02 -0.14 0 -0.28 -0.08 -0.4 c-0.02 -0.04 -0.02 -0.1 -0.02 -0.16 c0.02 -0.04 0.02 -0.06 0.02 -0.1 c0.04 -0.22 0.04 -0.44 -0.02 -0.66 c-0.02 -0.1 -0.02 -0.2 0 -0.3 c0.04 -0.18 0.06 -0.34 0 -0.5 l0 -0.14 c0.02 -0.06 0.02 -0.1 0.04 -0.16 c0.06 -0.14 0.08 -0.3 0.08 -0.46 c0 -0.12 0.02 -0.24 0.08 -0.36 c0.1 -0.24 0.26 -0.44 0.36 -0.68 c0.02 -0.04 0.04 -0.08 0.08 -0.1 c0.2 -0.22 0.4 -0.44 0.64 -0.6 c0.16 -0.1 0.3 -0.22 0.46 -0.34 c0.08 -0.08 0.18 -0.12 0.3 -0.14 c0.16 -0.04 0.3 -0.06 0.46 -0.1 c0.08 -0.04 0.16 -0.04 0.22 -0.04 c0.08 -0.02 0.16 -0.02 0.24 -0.04 c0.06 -0.02 0.14 -0.02 0.2 0.02 c0.02 0.02 0.06 0.02 0.08 0.04 c0.1 0.06 0.22 0.08 0.34 0.08 l0.2 0 s0.14 0.02 0.2 0.08 c0.02 0.02 0.04 0.04 0.06 0.04 c0.06 0.08 0.14 0.12 0.22 0.14 c0.22 0.08 0.36 0.22 0.5 0.4 c0.08 0.12 0.18 0.26 0.3 0.36 c0.04 0.04 0.08 0.1 0.1 0.16 c0.06 0.14 0.12 0.26 0.16 0.42 c0.02 0.1 0.08 0.2 0.12 0.3 c0.06 0.12 0.1 0.26 0.12 0.38 c0 0.18 0.04 0.36 0.08 0.54 c0.04 0.16 0.06 0.34 0.06 0.5 c-0.02 0.16 0 0.32 0.06 0.46 c0.02 0.06 0.02 0.12 0.02 0.16 c0.02 0.1 0.02 0.2 -0.04 0.26 c-0.04 0.06 -0.04 0.14 -0.04 0.2 l0 0.36 l0 6.62 c0.02 0.3 -0.06 0.6 -0.18 0.88 l-0.42 0.96 c-0.04 0.06 -0.08 0.1 -0.12 0.16 c-0.18 0.26 -0.46 0.42 -0.7 0.6 c-0.1 0.08 -0.2 0.12 -0.32 0.14 c-0.06 0 -0.14 0.02 -0.2 0.02 c-0.2 0 -0.4 0.06 -0.6 0.12 z M221.25199999999998 13.26 l0 2.24 l0 0.34 c0 0.06 0 0.12 0.02 0.16 c0.08 0.14 0.1 0.28 0.12 0.42 c0.02 0.06 0.04 0.14 0.06 0.2 c0.08 0.2 0.16 0.38 0.24 0.58 c0.04 0.08 0.08 0.18 0.12 0.24 c0.14 0.16 0.28 0.32 0.4 0.46 c0.16 0.18 0.38 0.24 0.62 0.22 c0.18 -0.02 0.32 -0.08 0.4 -0.26 c0.02 -0.04 0.02 -0.08 0.04 -0.12 c0 -0.18 0.06 -0.36 0.12 -0.54 c0.04 -0.14 0.08 -0.28 0.08 -0.42 c0 -0.1 0.04 -0.2 0.06 -0.3 c0.12 -0.28 0.16 -0.58 0.18 -0.88 c0 -0.22 0 -0.42 0.02 -0.64 c0 -0.08 0 -0.16 -0.04 -0.24 c-0.02 -0.04 -0.02 -0.1 0 -0.16 c0.06 -0.26 0.04 -0.52 0.02 -0.78 c-0.04 -0.38 -0.02 -0.78 -0.02 -1.16 c0 -0.74 0.02 -1.46 0.02 -2.2 c0.02 -0.12 0.02 -0.22 -0.02 -0.34 c-0.02 -0.04 -0.02 -0.1 -0.02 -0.16 c-0.02 -0.28 -0.06 -0.56 -0.12 -0.84 s-0.12 -0.56 -0.12 -0.86 c0 -0.14 -0.06 -0.28 -0.12 -0.42 c-0.04 -0.08 -0.1 -0.14 -0.14 -0.22 c-0.04 -0.1 -0.12 -0.16 -0.22 -0.2 c-0.04 -0.04 -0.1 -0.06 -0.14 -0.08 c-0.3 -0.1 -0.56 -0.08 -0.8 0.12 c-0.14 0.12 -0.26 0.24 -0.38 0.38 c-0.08 0.06 -0.12 0.16 -0.14 0.26 c-0.04 0.2 -0.08 0.42 -0.12 0.62 l0 0.1 c0 0.1 -0.02 0.2 0 0.3 c0 0.12 -0.08 0.22 -0.1 0.34 l0 0.02 c-0.02 0.26 -0.06 0.52 -0.08 0.78 c-0.02 0.18 -0.02 0.38 0.02 0.56 c0.02 0.06 0.02 0.12 0.02 0.18 c0 0.78 -0.02 1.58 0.02 2.3 z M228.616 5.84 c0.06 -0.02 0.12 -0.02 0.18 -0.06 c0.26 -0.12 0.52 -0.1 0.8 -0.1 c0.06 0.02 0.12 0.02 0.16 0.04 c0.12 0.02 0.2 0.08 0.22 0.22 c0.04 0.14 0.06 0.28 0.06 0.42 c0.02 0.3 0.08 0.58 0.06 0.88 c0.04 0.54 0 1.06 0.02 1.6 c0 0.1 0.02 0.22 0.02 0.32 s0.02 0.2 0.02 0.3 l0 1.92 c0 0.14 0.02 0.26 0.02 0.4 l0 0.34 l0 2.68 l0 0.22 c0 0.08 0.02 0.16 0.06 0.24 c0.08 0.12 0.1 0.28 0.12 0.44 c0 0.06 0.02 0.12 0.06 0.18 c0.1 0.22 0.18 0.44 0.26 0.68 c0.06 0.16 0.14 0.3 0.26 0.42 c0.12 0.14 0.22 0.26 0.34 0.4 c0.04 0.04 0.08 0.08 0.12 0.1 c0.1 0.08 0.22 0.14 0.34 0.14 c0.18 0.02 0.38 0.02 0.54 -0.06 c0.04 -0.02 0.08 -0.06 0.1 -0.1 c0.06 -0.08 0.1 -0.16 0.12 -0.26 c0.02 -0.22 0.08 -0.44 0.14 -0.64 c0.06 -0.14 0.08 -0.26 0.08 -0.4 c0.02 -0.14 0.06 -0.3 0.12 -0.44 c0.12 -0.38 0.18 -0.78 0.18 -1.18 l0 -0.42 l0 -0.3 c-0.08 -0.14 -0.02 -0.26 0 -0.38 c0.02 -0.28 0.02 -0.54 0 -0.8 c-0.04 -0.48 -0.02 -0.98 -0.02 -1.46 c0 -0.88 0.02 -1.74 0.02 -2.62 c0 -0.56 0.02 -1.12 0.04 -1.68 c0 -0.16 0.02 -0.32 0.06 -0.46 c0.02 -0.12 0.02 -0.24 0.04 -0.36 c0.02 -0.04 0.04 -0.08 0.1 -0.1 c0.04 0 0.08 0 0.12 -0.02 c0.32 -0.16 0.64 -0.12 0.98 -0.1 c0.08 0 0.14 0.04 0.22 0.06 c0.04 0 0.08 0.04 0.08 0.08 c0.06 0.34 0.12 0.66 0.12 0.98 c0 0.68 0.02 1.36 0.02 2.02 c0.02 2.5 0 4.98 0 7.46 c0 0.42 0.02 0.42 -0.14 0.78 c-0.18 0.42 -0.36 0.82 -0.54 1.24 c-0.02 0.02 -0.02 0.04 -0.04 0.06 c0 0.02 -0.02 0.04 -0.04 0.06 c-0.14 0.08 -0.18 0.26 -0.32 0.36 c-0.18 0.1 -0.34 0.24 -0.52 0.36 c-0.12 0.1 -0.26 0.16 -0.42 0.18 c-0.14 0 -0.3 0.06 -0.46 0.06 c-0.08 0 -0.16 0.04 -0.24 0.06 c-0.12 0.04 -0.22 0.04 -0.34 -0.02 c-0.08 -0.04 -0.16 -0.04 -0.24 0 s-0.16 0.02 -0.24 0 c-0.14 -0.02 -0.3 -0.06 -0.44 -0.12 c-0.18 -0.06 -0.36 -0.16 -0.5 -0.32 c-0.02 -0.02 -0.06 -0.06 -0.1 -0.08 c-0.14 -0.08 -0.24 -0.18 -0.34 -0.3 c-0.14 -0.16 -0.28 -0.3 -0.44 -0.44 c-0.14 -0.14 -0.24 -0.3 -0.36 -0.44 l-0.02 -0.02 c-0.04 -0.24 -0.18 -0.44 -0.18 -0.66 c0 -0.14 -0.02 -0.28 -0.06 -0.4 c-0.04 -0.2 -0.1 -0.38 -0.14 -0.58 c-0.14 -0.46 -0.16 -0.94 -0.28 -1.4 c0 -0.18 -0.02 -0.36 -0.02 -0.56 c0 -1.3 0 -2.62 0.02 -3.94 c0 -0.2 0 -0.42 0.02 -0.62 c0 -0.46 0.02 -0.9 0.02 -1.36 c0 -0.6 0.02 -1.18 0.08 -1.78 c0.02 -0.18 0.04 -0.38 0.06 -0.56 c0 -0.06 0.04 -0.1 0.04 -0.16 z M238 5.74 c0.3 -0.14 0.6 -0.2 0.92 -0.2 c0.08 0 0.18 0 0.28 0.02 c0.08 0.02 0.12 0.06 0.14 0.14 c0.04 0.08 0.06 0.14 0.08 0.22 c0.04 0.18 0.06 0.36 0.1 0.54 c0.02 0.06 0.04 0.12 0.06 0.2 c0.04 0.06 0.08 0.12 0.1 0.18 c0.08 0.34 0.18 0.66 0.26 1 c0.06 0.2 0.12 0.4 0.22 0.6 c0.14 0.28 0.28 0.56 0.42 0.86 c0.12 0.26 0.26 0.52 0.38 0.8 c0.16 0.32 0.3 0.66 0.46 1 c0.06 0.14 0.16 0.28 0.24 0.44 c0.26 0.46 0.46 0.94 0.6 1.46 c0.02 0.1 0.06 0.2 0.1 0.3 c0.22 0.52 0.44 1.02 0.66 1.52 c0.08 0.16 0.16 0.3 0.26 0.44 c0.12 0.16 0.24 0.34 0.34 0.52 c0.06 0.12 0.14 0.2 0.2 0.3 c0.02 0.02 0.04 0.02 0.06 0.04 c0.02 0 0.06 -0.04 0.06 -0.08 l0 -0.36 l0 -9.86 l0 -0.36 c0 -0.04 0.02 -0.08 0.04 -0.12 c0.38 -0.1 0.76 -0.1 1.14 -0.1 c0.04 0 0.08 0.02 0.14 0.02 c0.18 0.06 0.24 0.06 0.26 0.3 c0.04 0.44 0.02 0.88 0.02 1.32 l0 1.42 c0.02 0.14 0 0.28 0 0.42 c0 0.28 0.02 0.56 0 0.86 c0 0.28 0.02 0.58 0 0.88 l0 0.84 l0 0.9 l0 1.1 c0 0.4 -0.02 0.82 -0.02 1.22 c0 0.18 0 0.34 -0.02 0.5 c0 0.72 0 1.42 -0.02 2.14 c0 0.26 -0.02 0.52 -0.04 0.78 l0 0.14 c-0.02 0.26 0.06 0.48 0.3 0.62 c0.12 0.06 0.16 0.14 0.16 0.26 c0.02 0.06 0.02 0.14 0.02 0.2 c0 0.08 -0.04 0.12 -0.08 0.16 c-0.14 0.1 -0.24 0.26 -0.34 0.4 c-0.04 0.08 -0.08 0.14 -0.14 0.2 c-0.12 0.1 -0.24 0.16 -0.38 0.14 c-0.06 -0.02 -0.1 0 -0.14 0 c-0.14 0 -0.24 -0.06 -0.32 -0.16 c-0.1 -0.12 -0.22 -0.24 -0.32 -0.36 c-0.08 -0.08 -0.14 -0.18 -0.18 -0.26 c-0.14 -0.3 -0.32 -0.6 -0.5 -0.86 c-0.1 -0.14 -0.2 -0.28 -0.3 -0.4 c-0.14 -0.12 -0.26 -0.28 -0.36 -0.44 c-0.08 -0.1 -0.16 -0.2 -0.22 -0.32 c-0.06 -0.08 -0.12 -0.16 -0.18 -0.26 c-0.1 -0.22 -0.22 -0.42 -0.36 -0.6 s-0.26 -0.38 -0.36 -0.58 c-0.16 -0.28 -0.3 -0.56 -0.42 -0.86 c-0.06 -0.22 -0.16 -0.42 -0.26 -0.62 c-0.18 -0.38 -0.34 -0.78 -0.46 -1.18 c-0.06 -0.22 -0.16 -0.42 -0.26 -0.62 c-0.24 -0.44 -0.46 -0.86 -0.64 -1.32 c-0.02 -0.06 -0.06 -0.12 -0.1 -0.18 l-0.02 0 l-0.04 0 l0 0.28 l0 3.74 c-0.02 1 -0.02 2.02 -0.04 3.04 c0 0.38 -0.02 0.76 -0.08 1.14 c-0.02 0.08 -0.02 0.16 -0.02 0.24 c-0.02 0.1 -0.08 0.18 -0.18 0.22 c-0.26 0.1 -0.52 0.12 -0.8 0.08 c-0.08 0 -0.18 -0.04 -0.26 -0.06 c-0.06 -0.02 -0.08 -0.06 -0.08 -0.12 c-0.02 -0.06 -0.02 -0.12 -0.04 -0.18 c0 -0.08 0 -0.16 -0.02 -0.24 c-0.04 -0.32 -0.06 -0.64 -0.08 -0.96 l0 -0.48 c-0.02 -0.2 -0.02 -0.4 -0.02 -0.62 l0 -10.14 c0 -0.22 0.02 -0.44 -0.04 -0.66 c-0.02 -0.04 0 -0.1 0.02 -0.14 c0.06 -0.14 0.08 -0.28 0.1 -0.44 z M249.54399999999998 7.48 c-0.06 -0.26 -0.08 -0.5 -0.08 -0.74 c0 -0.12 -0.02 -0.26 0 -0.4 c0.04 -0.26 0.08 -0.32 0.36 -0.34 c0.08 -0.02 0.16 -0.02 0.22 0 c0.38 0 0.76 -0.04 1.12 -0.16 c0.04 0 0.08 -0.02 0.1 -0.02 c0.24 -0.02 0.46 -0.04 0.7 -0.06 c0.1 0 0.2 0 0.28 0.02 c0.16 0 0.3 0.02 0.44 0.04 c0.06 0.02 0.12 0.02 0.18 0.04 c0.22 0.06 0.44 0.12 0.68 0.1 c0.12 0 0.24 0.02 0.36 0.08 c0.08 0.04 0.18 0.08 0.26 0.1 c0.08 0.04 0.16 0.06 0.24 0.1 c0.24 0.14 0.46 0.3 0.7 0.46 c0.06 0.04 0.1 0.1 0.14 0.16 c0.16 0.18 0.32 0.38 0.5 0.54 c0.1 0.08 0.16 0.18 0.22 0.28 c0.16 0.22 0.3 0.46 0.38 0.74 c0.06 0.18 0.12 0.36 0.16 0.56 c0 0.1 0.04 0.18 0.08 0.28 c0.02 0.06 0.04 0.12 0.04 0.18 c0.02 0.36 0.08 0.72 0.14 1.08 l0 0.04 c-0.02 0.38 0.08 0.76 0.08 1.16 c0.02 0.36 0.04 0.72 0.1 1.08 c0.02 0.12 0.06 0.24 0.08 0.36 c0 0.08 0.02 0.16 0.02 0.26 c0.02 0.24 0.04 0.48 0.04 0.72 c0 0.26 -0.02 0.52 -0.02 0.76 c0 0.26 -0.04 0.52 -0.08 0.76 c-0.04 0.3 -0.04 0.58 -0.12 0.88 l0 0.18 c0 0.12 -0.02 0.24 -0.08 0.34 c-0.04 0.12 -0.08 0.24 -0.1 0.36 c0 0.06 -0.02 0.14 -0.06 0.2 c-0.06 0.14 -0.08 0.28 -0.08 0.44 c0 0.1 -0.04 0.18 -0.1 0.26 c-0.08 0.1 -0.14 0.22 -0.18 0.36 c-0.04 0.12 -0.14 0.2 -0.22 0.28 c0 0.02 -0.02 0.04 -0.06 0.06 c-0.14 0.04 -0.26 0.14 -0.38 0.26 c-0.02 0.02 -0.08 0.04 -0.14 0.04 c-0.12 0 -0.22 0.02 -0.34 0.06 c-0.32 0.04 -0.64 0.14 -0.98 0.14 c-0.3 0.02 -0.6 0.02 -0.9 0 c-0.54 -0.02 -1.06 0 -1.58 0 c-0.06 0 -0.12 0 -0.18 0.02 l-0.1 0 c-0.28 0 -0.54 -0.02 -0.8 -0.04 c-0.04 -0.02 -0.1 -0.04 -0.14 -0.06 c-0.08 -0.12 -0.22 -0.14 -0.34 -0.2 c-0.04 -0.02 -0.08 -0.06 -0.08 -0.12 c0.02 -0.24 0 -0.5 0.1 -0.74 c0.02 -0.08 0.06 -0.16 0.08 -0.24 c0.06 -0.14 0.16 -0.18 0.3 -0.2 c0.1 -0.02 0.22 0 0.32 0.04 c0.04 0 0.1 -0.04 0.1 -0.08 c0.02 -0.12 0.02 -0.22 0.02 -0.34 l0 -3.74 l0 -4.28 l0 -1.74 c0 -0.08 0 -0.16 -0.02 -0.22 c0 -0.04 -0.04 -0.06 -0.08 -0.08 c-0.16 -0.02 -0.32 -0.02 -0.46 0.02 c-0.18 0.06 -0.36 0.06 -0.54 0 c-0.08 -0.04 -0.2 -0.04 -0.3 -0.04 z M252.48399999999998 7.4 c0 0.04 -0.02 0.06 -0.02 0.1 l0 0.34 l0 9.68 l0 0.26 l0 0.12 c0.02 0.04 0.06 0.08 0.1 0.08 l0.22 0 c0.32 0.02 0.62 0 0.92 0.02 c0.24 0 0.46 -0.04 0.68 -0.08 c0.14 -0.02 0.28 -0.08 0.42 -0.12 c0.08 -0.04 0.12 -0.08 0.12 -0.16 c0.02 -0.16 0.06 -0.3 0.12 -0.42 c0.06 -0.14 0.08 -0.28 0.12 -0.42 c0.02 -0.06 0.04 -0.1 0.06 -0.14 c0.06 -0.1 0.08 -0.2 0.1 -0.3 c0.04 -0.24 0.06 -0.46 0.1 -0.7 c0.1 -0.6 0.1 -1.2 0.1 -1.8 c0 -0.2 -0.02 -0.4 -0.08 -0.58 c-0.04 -0.08 -0.04 -0.16 -0.06 -0.24 c-0.02 -0.2 -0.02 -0.4 -0.06 -0.58 c-0.02 -0.08 -0.02 -0.18 -0.02 -0.26 c0.02 -0.3 0 -0.58 -0.04 -0.88 c-0.02 -0.12 -0.02 -0.26 -0.04 -0.4 c0 -0.06 0 -0.14 -0.02 -0.2 c-0.04 -0.34 -0.1 -0.68 -0.16 -1.02 c-0.04 -0.32 -0.16 -0.6 -0.26 -0.9 c-0.02 -0.1 -0.08 -0.18 -0.14 -0.26 c-0.14 -0.14 -0.28 -0.3 -0.4 -0.46 c-0.12 -0.14 -0.24 -0.24 -0.4 -0.32 c-0.2 -0.14 -0.4 -0.2 -0.64 -0.26 c-0.1 -0.02 -0.2 -0.04 -0.32 -0.06 s-0.26 -0.06 -0.4 -0.04 z"></path>
  </g>
</svg>
