<svg width="130.1493594225715" height="126.9" viewBox="0 0 130.1493594225715 126.9" class="css-1j8o68f">
  <defs id="SvgjsDefs5706"></defs>
  <g id="SvgjsG5707" featurekey="rootContainer"
     transform="matrix(1.2441176176071167,0,0,1.2441176176071167,0.014669528077630436,0)" fill="#f33535">
    <path xmlns="http://www.w3.org/2000/svg"
          d="M50.8 102h5.8l1.8-.2 1.7-.3h1.7l1.9-.3 1.8-.4.9-.2.9-.3 1.7-.6 2-.8a54 54 0 0 0 15.3-9.4l1.4-1.2.7-.5.6-.4 1-.5.8-.5 1.5-1.2 1.5-1.5.8-1 .9-1.1a50.9 50.9 0 0 0 3.9-5.8 34.8 34.8 0 0 0 1.6-3.1l.2-.4.2-.4.3-.8.3-.9.2-.4v-.4l.4-1.2.2-.6v-.3h.1v-.2l.7-2.5c.2-.9.4-1.7.5-2.6a25.4 25.4 0 0 0 .2-2.6v-3.1c0-.3 0-1 .1-1.5v-2.1a21.3 21.3 0 0 0 .2-2.6v-2.6c0-.9-.1-1.1-.1-1.6l-.2-1.5c-.1-1-.4-2-.5-3s-.2-1-.3-1.4l-.3-1.4-.3-1.4v-1.7l-.4-1.4-.2-.7-.2-.7-.4-1.4-.5-1.4-.4-1-.5-1-1-2.1a40.7 40.7 0 0 1-1.8-4.1 3.6 3.6 0 0 0-.8-1.2l-.7-.6-.2-.3-.3-.5a25.7 25.7 0 0 0-1.6-2.3l-.8-1.1-.9-1.1-.4-.5-.2-.3-.2-.2h-.1l-.9-1-.5-.5-.5-.5-.9-1.1-1.1-1a47.9 47.9 0 0 0-3.8-3l-.1-.5-1.3-.9A29 29 0 0 0 72 .4h-3.1a.8.8 0 0 0-.6 1.2A3.9 3.9 0 0 0 69.9 3l-.6.3-.4-.2a.9.9 0 0 0 0-.3c-.1-.5-.2-.9-1.3-1.3L65.3.7l-.6-.2h-.6L62.8 0l-1.3 1.2A48.5 48.5 0 0 0 39 2.4 31.1 31.1 0 0 0 31.4 4h-.5l-.5.2-1 .4-1 .5-.9.6-1.8 1.5-.8.6-.7.7c-1 .9-1.9 1.9-2.8 2.8L20 12.8l-1.4 1.5-.5.5-.5.5-1.1 1a55.1 55.1 0 0 0-7 7l.2-.5.6-1.1.6-1.1.6-1.1.6-1.2.6-1.2 1.2-2.4.4-.8.3-.6a1 1 0 0 0 0-.8 3.7 3.7 0 0 1-.2-1.2 17.1 17.1 0 0 0-2.1 1.1l-1.5 1.1-.8.6-.7.7-.8 1-.5 1-.5 1-.2.5-.3.5-.3.6-.4.8-.4.8-.7 1.7-.5 1.3-.5 1.3v.7l-.2.6-.3 1.3v.2h-.4v.3l-.2.7-.3 1.4-.2.7-.2.7-.4 1.7-.4 1.9-.2.9v2.8l-.6 1.9a38.3 38.3 0 0 0-.1 4.1 52.7 52.7 0 0 0-.7 8.7 5.2 5.2 0 0 0 0 .7c.5 3 .8 6 1.5 9l.4 1.8.5 1.8a18.3 18.3 0 0 0 .6 1.7l.4.8.4.8.9 1.7.5.8.5.8.5.8.5.8L7.8 77c1.4 2 2.9 4 4.5 5.9a35.6 35.6 0 0 0 2.6 2.7l.7.6.3.3.4.3 1.5 1.1 1 1a34 34 0 0 0 8.2 6.2l1.4.7 1.5.7.7.3.8.3 1.5.6.9.4.8.4.8.4 1 .4 1.9.7 1.9.6 1.6.4 1.6.4 1.6.3h5.7z"></path>
  </g>
  <g id="SvgjsG5708" featurekey="symbolFeature-0"
     transform="matrix(1.0584499835968018,0,0,1.0584499835968018,26.567346250724256,13.913834860804828)" fill="#d8e9f0">
    <g xmlns="http://www.w3.org/2000/svg">
      <rect x="-4.152" y="14.552" transform="matrix(0.5827 -0.8127 0.8127 0.5827 -8.0535 16.6112)" width="32.6"
            height="3.19"></rect>
      <path
        d="M22.941,6.635c0,0,0.537,1.59,0.924,3.925l32.284,28.205l-2.103,2.974L24.235,15.963   c-0.257,6.632-3.557,14.215-17.623,13.301l41.704,23.135l10.518-13.634L22.941,6.635z"></path>
      <polygon points="53.139,47.794 57.599,50.405 59.848,47.686 56.149,43.841  "></polygon>
      <path
        d="M70.438,62.118l-9.284-12.476c-1.885-0.941-1.667,1.09-1.667,1.09c8.291,11.459-0.871,5.439-7.036,10.516   c-6.164,5.077,4.425,10.517,12.62,8.195C73.267,67.122,70.438,62.118,70.438,62.118z M52.595,64.513   c-0.868-2.466,4.28-3.482,4.28-3.482c-8.994,3.917,6.963,6.89,6.963,6.89C60.139,69.37,53.468,66.978,52.595,64.513z"></path>
    </g>
  </g>
  <g id="SvgjsG5709" featurekey="nameFeature-0"
     transform="matrix(0.07828644663095474,0,0,0.07828644663095474,59.94424800980934,107.24652534905385)"
     fill="#d8e9f0">
    <path
      d="M3.88 21.2 c0.4 0.56 0.84 1.08 1.32 1.6 c0.36 0.44 0.8 0.72 1.28 0.96 c0.36 0.12 0.68 0.28 1 0.44 c0.56 0.36 1.04 0.72 1.48 1.16 c0.4 0.4 0.8 0.84 1.24 1.16 c0.12 0.12 0.2 0.24 0.36 0.36 l0.32 0 c0.12 0.04 0.2 0.08 0.28 0.16 c0.28 0.28 0.48 0.6 0.56 1 c0.04 0.32 0.12 0.64 0.24 0.96 c0.12 0.4 0.16 0.84 0.2 1.28 l0 1.16 c0 0.2 0 0.44 0.12 0.64 c0.04 0.08 0.04 0.2 0.04 0.32 c0.04 0.24 0.04 0.48 0.08 0.68 c0.08 0.56 0.08 1.08 -0.04 1.64 c-0.04 0.08 -0.04 0.2 -0.04 0.32 c-0.04 0.08 -0.04 0.2 -0.08 0.32 c-0.16 0.4 -0.24 0.84 -0.4 1.28 c0 0.04 -0.04 0.12 -0.08 0.16 c-0.2 0.28 -0.36 0.6 -0.56 0.88 c-0.08 0.12 -0.16 0.24 -0.28 0.36 c-0.32 0.08 -0.64 0.2 -0.96 0.4 c-0.08 0.08 -0.2 0.12 -0.36 0.12 c-0.12 0 -0.28 0.04 -0.44 0.04 c-0.24 0.04 -0.4 0.12 -0.56 0.32 s-0.36 0.28 -0.6 0.32 l-0.2 0 c-0.24 0.04 -0.52 0.12 -0.76 0.12 c-0.28 0 -0.52 -0.08 -0.76 -0.12 l-0.4 0 c-0.24 0 -0.48 -0.04 -0.68 -0.16 c-0.36 -0.16 -0.76 -0.28 -1.12 -0.36 c-0.28 -0.08 -0.52 -0.2 -0.76 -0.36 s-0.48 -0.32 -0.72 -0.44 c-0.6 -0.32 -1 -0.88 -1.36 -1.48 c-0.04 -0.2 -0.12 -0.4 -0.12 -0.6 c-0.04 -0.4 -0.16 -0.76 -0.2 -1.16 c-0.12 -0.6 -0.24 -1.2 -0.2 -1.8 c0.04 -0.2 0.04 -0.4 0.08 -0.6 c0.04 -0.28 0.08 -0.56 0.08 -0.84 c0 -0.16 0 -0.32 0.04 -0.48 c0.12 -0.28 0.08 -0.52 0.04 -0.76 c-0.08 -0.24 -0.12 -0.44 -0.2 -0.68 c0.08 -0.2 0.16 -0.4 0.24 -0.64 c0.04 -0.12 0.16 -0.2 0.28 -0.2 l0.48 0 c0.44 -0.04 0.92 -0.04 1.36 -0.04 c0.2 0 0.32 0.08 0.44 0.2 c0.08 0.08 0.12 0.16 0.12 0.24 c-0.04 0.24 0 0.44 0.2 0.6 c0.08 0.08 0.12 0.2 0.08 0.36 c-0.04 0.08 -0.08 0.2 -0.12 0.32 c-0.08 0.2 -0.12 0.44 -0.08 0.68 c0.08 0.24 0.04 0.52 0.08 0.76 c0 0.28 -0.04 0.52 0.08 0.8 c0.04 0.12 0.04 0.24 0 0.36 c-0.12 0.36 -0.08 0.68 -0.04 1.04 c0 0.16 0.08 0.32 0.24 0.44 c0.36 0.32 0.72 0.6 1.2 0.76 c0.12 0.04 0.28 0.12 0.4 0.16 c0.2 0.08 0.4 0.12 0.64 0.12 c0.16 0 0.36 0 0.52 0.08 c0.56 0.12 1.08 0.04 1.6 -0.16 c0.2 -0.04 0.4 -0.16 0.6 -0.24 c0.16 -0.44 0.32 -0.84 0.28 -1.32 l0 -2.84 l0 -0.4 c0 -0.28 -0.08 -0.52 -0.36 -0.64 c-0.08 -0.08 -0.16 -0.16 -0.2 -0.28 c-0.08 -0.36 -0.32 -0.64 -0.6 -0.88 c-0.52 -0.48 -1 -0.96 -1.52 -1.44 c-0.12 -0.08 -0.2 -0.2 -0.36 -0.24 c-0.16 0 -0.36 -0.08 -0.48 -0.16 c-0.28 -0.16 -0.56 -0.24 -0.88 -0.32 c-0.8 -0.2 -1.52 -0.56 -2.12 -1.12 c-0.52 -0.48 -0.84 -1.04 -1.16 -1.56 c-0.16 -0.24 -0.28 -0.52 -0.4 -0.76 c-0.2 -0.36 -0.24 -0.8 -0.36 -1.16 c-0.04 -0.08 0 -0.16 0 -0.2 c0.08 -0.28 0.12 -0.52 -0.04 -0.76 c-0.04 -0.48 -0.16 -0.92 -0.12 -1.4 c0.04 -0.44 0.08 -0.88 0.04 -1.32 l0 -0.16 c0.12 -0.32 0.12 -0.6 0.12 -0.92 l0 -1.88 c-0.04 -0.4 0.08 -0.76 0.32 -1.08 c0.08 -0.12 0.12 -0.2 0.2 -0.28 c0.28 -0.36 0.6 -0.76 0.92 -1.12 c0.04 -0.08 0.12 -0.12 0.24 -0.2 c0.36 -0.16 0.64 -0.4 0.96 -0.64 c0.24 -0.2 0.52 -0.36 0.84 -0.48 c0.28 -0.08 0.52 -0.24 0.8 -0.24 c0.12 0 0.24 -0.04 0.4 -0.04 c0.32 0 0.64 -0.04 0.96 -0.08 c0.2 -0.04 0.44 0 0.64 0.04 c0.36 0.04 0.68 0.08 1.04 0.08 c0.24 0.04 0.52 0.04 0.76 0.12 c0.2 0.04 0.4 0.16 0.6 0.28 c0.32 0.2 0.56 0.52 0.76 0.84 c0.16 0.24 0.28 0.48 0.48 0.68 c0.12 0.16 0.24 0.32 0.28 0.52 c0.04 0.12 0.08 0.24 0.16 0.36 c0.12 0.36 0.24 0.72 0.28 1.12 c0.04 0.16 0.08 0.32 0.08 0.44 c0.04 0.32 0.16 0.6 0.4 0.8 c0.12 0.08 0.12 0.16 0.12 0.28 c0 0.48 0 0.96 -0.04 1.44 c-0.08 0.36 -0.08 0.72 -0.08 1.08 c0 0.52 -0.04 1 -0.16 1.48 c-0.04 0.2 -0.04 0.36 0 0.52 c0.04 0.12 0.04 0.2 0.04 0.32 c0 0.08 0 0.12 -0.04 0.2 c-0.16 0.16 -0.32 0.28 -0.52 0.36 c-0.44 0.12 -0.88 0.2 -1.36 0.28 c-0.04 0.04 -0.12 0 -0.16 -0.04 c-0.12 -0.12 -0.28 -0.28 -0.4 -0.44 c0 -0.04 -0.04 -0.12 -0.04 -0.16 c-0.04 -0.28 -0.08 -0.52 -0.08 -0.8 c0.04 -0.36 0 -0.72 0 -1.08 c0 -0.28 0.04 -0.56 -0.04 -0.84 c-0.04 -0.04 -0.04 -0.08 -0.04 -0.12 c0.08 -0.72 -0.12 -1.44 -0.28 -2.12 c0 -0.04 0 -0.08 -0.04 -0.12 c-0.2 -0.36 -0.36 -0.8 -0.68 -1.12 c-0.2 -0.24 -0.44 -0.48 -0.68 -0.68 c-0.28 -0.24 -0.6 -0.36 -0.88 -0.52 l-0.2 0 c-0.44 0 -0.84 0.16 -1.24 0.36 c-0.08 0.04 -0.12 0.12 -0.2 0.16 l-0.56 0.56 s-0.4 0.4 -0.44 0.68 c0 0.12 -0.04 0.2 -0.04 0.28 c-0.04 0.08 -0.08 0.2 -0.04 0.32 c0.04 0.32 -0.16 0.68 -0.12 1 l0 2.88 c0 0.16 0.04 0.32 0.04 0.52 z M15.526000000000002 25.16 l0 -11.2 c0 -0.28 0 -0.56 0.04 -0.84 c0.04 -0.16 0.04 -0.32 0.04 -0.52 l0 -0.64 c0 -0.08 0.08 -0.16 0.16 -0.2 c0.12 -0.04 0.24 -0.08 0.36 -0.08 c0.12 -0.04 0.24 -0.08 0.32 -0.12 c0.12 -0.12 0.24 -0.16 0.4 -0.16 s0.28 0 0.4 -0.04 c0.4 0 0.8 0 1.16 -0.08 c0.24 -0.04 0.48 0 0.72 0.04 c0.32 0.08 0.68 0.08 1.04 0 c0.28 -0.04 0.56 -0.04 0.84 0 c0.2 0.08 0.44 0 0.64 0 c0.16 0 0.32 -0.04 0.44 0 c0.24 0.04 0.48 0.04 0.72 0 c0.08 -0.04 0.16 0 0.28 0 c0.2 0.04 0.4 0.12 0.6 0.16 c0.32 0.04 0.6 0.12 0.84 0.36 c0.04 0.04 0.08 0.08 0.16 0.08 c0.2 0.08 0.4 0.2 0.52 0.36 c0.4 0.2 0.68 0.52 1.04 0.8 c0.04 0.04 0.08 0.04 0.08 0.08 c0.2 0.36 0.52 0.6 0.72 0.92 c0.12 0.16 0.24 0.32 0.24 0.52 c0.04 0.12 0.08 0.2 0.16 0.32 c0 0.04 0.08 0.12 0.08 0.16 c0 0.44 0.2 0.84 0.24 1.28 c0.08 0.64 0.24 1.24 0.48 1.8 c0.08 0.2 0.12 0.36 0.16 0.52 c0 0.12 0 0.24 0.04 0.4 c0 0.16 0 0.28 0.04 0.44 c0.04 0.24 0.12 0.52 0.16 0.76 s-0.04 0.48 0 0.72 c0.04 0.28 0.04 0.6 -0.08 0.88 c-0.08 0.32 -0.12 0.6 -0.08 0.92 c0 0.28 -0.04 0.52 -0.2 0.76 c-0.16 0.2 -0.16 0.48 -0.12 0.76 c0.04 0.4 -0.04 0.76 -0.2 1.12 c-0.12 0.32 -0.16 0.64 -0.2 0.96 c-0.04 0.08 -0.04 0.16 -0.08 0.24 c-0.12 0.24 -0.24 0.48 -0.32 0.72 c-0.04 0.08 -0.12 0.12 -0.16 0.2 c-0.08 0.08 -0.16 0.16 -0.2 0.24 c-0.16 0.36 -0.4 0.6 -0.64 0.84 c-0.12 0.12 -0.2 0.28 -0.36 0.36 c-0.12 0.12 -0.28 0.16 -0.44 0.24 c-0.2 0.04 -0.36 0.16 -0.52 0.28 c-0.08 0.12 -0.2 0.2 -0.28 0.28 c-0.12 0.08 -0.2 0.16 -0.36 0.12 c-0.32 0 -0.6 0.08 -0.88 0.2 c-0.4 0.16 -0.84 0.24 -1.28 0.24 c-0.28 -0.04 -0.52 0.04 -0.76 0.08 l-0.32 0 c-0.24 -0.08 -0.48 -0.08 -0.72 -0.08 c-0.32 0.04 -0.64 0 -0.96 -0.08 c-0.16 -0.04 -0.32 -0.04 -0.48 -0.04 c-0.08 0 -0.2 0.12 -0.2 0.24 l0 0.6 l0 4.8 c0 0.72 -0.04 1.44 -0.16 2.16 c-0.08 0.36 -0.24 0.64 -0.4 0.96 c0 0.04 -0.08 0.12 -0.12 0.12 c-0.2 0.08 -0.4 0.04 -0.56 0.2 l-0.04 0 c-0.36 0 -0.72 0.04 -1.08 0 c-0.2 0 -0.32 -0.12 -0.44 -0.32 c-0.16 -0.4 -0.32 -0.76 -0.36 -1.2 c-0.08 -0.52 -0.12 -1.04 -0.12 -1.56 l0 -11.08 l0 0 z M18.806 20.76 l0 1.16 l0 4.24 l0 0.6 c0 0.12 0.12 0.2 0.2 0.2 c0.2 0.04 0.4 0.04 0.6 0.04 c0.16 0 0.28 0 0.44 0.04 c0.44 0.04 0.84 0.04 1.24 0.04 c0.68 0 1.28 -0.12 1.92 -0.4 c0.44 -0.16 0.8 -0.48 1.08 -0.92 c0.24 -0.4 0.44 -0.88 0.48 -1.4 c0.08 -0.56 0.16 -1.16 0.28 -1.72 c0.16 -0.6 0.2 -1.2 0.2 -1.8 c0 -0.36 -0.04 -0.72 -0.12 -1.04 c-0.12 -0.48 -0.24 -0.96 -0.32 -1.48 c-0.16 -0.72 -0.4 -1.44 -0.6 -2.2 c-0.04 -0.16 -0.12 -0.28 -0.24 -0.36 c-0.28 -0.24 -0.52 -0.52 -0.8 -0.76 c-0.24 -0.2 -0.52 -0.32 -0.84 -0.32 c-0.52 -0.04 -1.04 -0.16 -1.56 -0.04 l-0.44 0 l-1.08 0 l-0.24 0 s-0.2 0.12 -0.2 0.2 l0 0.64 l0 5.28 z M32.292 11.600000000000001 c0.16 -0.04 0.28 -0.08 0.4 -0.12 c0.52 -0.24 1.08 -0.2 1.64 -0.2 c0.08 0 0.12 0 0.16 0.04 c0.56 0.12 0.68 0.08 0.72 0.76 c0 0.72 0.04 1.48 0.04 2.2 l0 20.8 l0 0.72 c0 0.28 0.04 0.36 0.36 0.36 l0.44 0 c0.6 0.12 1.16 0 1.72 -0.12 c0.52 -0.12 1.04 -0.2 1.56 -0.2 l3.84 0 c0.08 0 0.16 0.04 0.28 0.04 c0.2 0.72 0.24 1.44 0.2 2.2 c0 0.16 -0.04 0.32 -0.08 0.48 c-0.04 0.2 -0.2 0.32 -0.4 0.36 c-0.24 0.04 -0.48 0.04 -0.72 0.04 c-0.6 0 -1.2 0 -1.84 -0.04 c-0.8 0 -1.64 0.08 -2.44 0.24 c-0.16 0.04 -0.28 0.04 -0.44 0.08 c-0.36 0.04 -0.68 0.08 -1.04 0.08 l-0.84 0 c-0.2 0 -0.36 -0.04 -0.52 -0.04 c-0.96 0 -1.88 -0.16 -2.84 -0.2 c-0.24 0 -0.48 -0.04 -0.72 -0.2 c-0.28 -0.52 -0.32 -1.12 -0.28 -1.72 c0.04 -0.12 0.04 -0.24 0.08 -0.36 c0.04 -0.16 0.12 -0.32 0.32 -0.4 c0.04 -0.04 0.08 -0.08 0.12 -0.08 c0.08 -0.24 0.08 -0.48 0.08 -0.72 l0 -5.52 c0 -4.32 -0.04 -8.68 0 -13 c0 -1.2 0 -2.44 0.04 -3.68 c0 -0.52 0.08 -1.04 0.12 -1.56 c0 -0.08 0 -0.12 0.04 -0.24 z M59.418000000000006 28.880000000000003 l-0.12 0.24 l0 0.44 c-0.04 1.56 -0.04 3.12 -0.08 4.68 c-0.04 1.2 -0.12 2.36 -0.2 3.56 c0 0.2 -0.08 0.4 -0.08 0.6 c-0.04 0.16 -0.12 0.24 -0.28 0.32 c-0.16 0.04 -0.32 0.08 -0.48 0.16 c-0.56 0.12 -1.08 0.16 -1.64 0 c-0.16 -0.08 -0.28 -0.2 -0.32 -0.36 c-0.04 -0.12 -0.08 -0.24 -0.08 -0.36 c-0.08 -0.68 -0.16 -1.32 -0.16 -2 c-0.08 -1.16 -0.04 -2.32 -0.08 -3.48 c-0.04 -0.96 -0.04 -1.92 -0.08 -2.84 c0 -0.12 0.04 -0.24 -0.08 -0.36 c-0.24 -0.08 -0.48 -0.04 -0.72 0 c-1.4 0.24 -2.84 0.48 -4.24 0.72 l-0.36 0.12 c-0.04 0.04 -0.12 0.12 -0.12 0.16 c-0.04 0.16 -0.04 0.28 -0.04 0.44 l-0.12 5.64 c0 0.4 -0.08 0.76 -0.12 1.12 c-0.04 0.2 0.04 0.48 -0.16 0.64 c-0.12 0.12 -0.36 0.12 -0.52 0.2 c-0.28 0.12 -0.6 0.16 -0.88 0.16 l-0.6 0 c-0.24 0 -0.44 -0.08 -0.64 -0.16 c-0.12 0 -0.2 -0.08 -0.2 -0.16 c-0.12 -0.52 -0.24 -1.04 -0.24 -1.56 c-0.04 -1.68 -0.04 -3.36 -0.04 -5.04 l0 -0.68 c-0.04 -0.2 -0.12 -0.28 -0.28 -0.28 c-0.36 0 -0.68 0.04 -1.04 0.08 c-0.68 0.04 -1.32 -0.08 -2 -0.2 c-0.08 -0.04 -0.16 -0.12 -0.2 -0.2 c-0.08 -0.36 -0.2 -0.68 -0.24 -1 c-0.04 -0.36 0 -0.64 0.04 -0.96 c0.04 -0.16 0.16 -0.28 0.32 -0.32 c0.28 -0.08 0.56 -0.12 0.88 -0.12 c0.76 -0.04 1.52 -0.2 2.24 -0.36 c0.08 0 0.16 -0.04 0.2 -0.08 c0.12 -0.24 0.08 -0.52 0.08 -0.76 l0 -6 l0 -3.16 c-0.04 -0.44 0.04 -0.88 0.24 -1.28 c0.36 -0.84 0.72 -1.68 1.12 -2.52 c0 -0.08 0.08 -0.16 0.16 -0.24 c0 -0.04 0.08 -0.04 0.08 -0.08 c0.4 -0.64 1.04 -0.96 1.56 -1.36 c0.28 -0.2 0.56 -0.32 0.92 -0.32 c0.2 -0.04 0.4 -0.08 0.6 -0.08 c0.12 -0.04 0.28 -0.04 0.4 -0.08 c0.36 -0.12 0.68 -0.2 1.04 -0.04 c0.08 0.04 0.2 0.04 0.28 0.04 c0.28 -0.12 0.52 -0.04 0.8 0 c0.44 0.12 0.92 0.28 1.28 0.56 c0.24 0.16 0.36 0.4 0.64 0.52 c0.24 0.08 0.36 0.32 0.52 0.48 c0.32 0.32 0.6 0.64 0.92 0.92 c0.24 0.24 0.44 0.52 0.64 0.8 c0.08 0.12 0.12 0.32 0.2 0.48 c0.12 0.36 0.24 0.68 0.24 1.08 c0 0.2 0.04 0.4 0.08 0.56 c0.08 0.36 0.16 0.68 0.24 1.04 c0.28 0.8 0.32 1.64 0.52 2.44 c0.12 0.64 0.12 1.24 0.12 1.88 l0 0.04 l0 2.76 c0 0.12 0 0.24 0.16 0.36 c0.84 -0.08 1.76 -0.04 2.64 -0.04 c0.12 0 0.24 0 0.36 0.04 c0.04 0 0.16 0.08 0.16 0.16 c0.04 0.28 0.12 0.6 0.16 0.92 c0.04 0.44 0 0.84 0 1.28 c0 0.16 -0.04 0.28 -0.08 0.44 s-0.16 0.28 -0.36 0.32 c-0.16 0.04 -0.28 0.04 -0.44 0.04 l-1.4 0 c-0.4 0 -0.76 0 -1.12 0.04 z M55.778000000000006 23.28 l0 -2.4 c0 -0.28 0 -0.56 -0.16 -0.84 c-0.08 -0.12 -0.08 -0.24 -0.12 -0.36 c-0.04 -0.4 -0.16 -0.76 -0.36 -1.12 l-0.24 -0.6 c-0.16 -0.52 -0.4 -1 -0.8 -1.4 c-0.24 -0.24 -0.44 -0.48 -0.68 -0.72 c-0.08 -0.08 -0.24 -0.16 -0.36 -0.2 c-0.2 -0.08 -0.44 -0.12 -0.68 -0.12 c-0.72 0.04 -1 0.28 -1.12 0.92 c-0.04 0.04 -0.04 0.08 -0.04 0.12 c0 0.32 -0.12 0.6 -0.2 0.88 c-0.12 0.36 -0.2 0.72 -0.24 1.08 c-0.04 0.28 -0.08 0.52 -0.2 0.8 c-0.2 0.56 -0.32 1.2 -0.32 1.8 c0 0.48 -0.04 0.96 -0.04 1.4 c0 0.2 0 0.4 0.04 0.6 c0.08 0.16 0.04 0.36 0.04 0.52 c-0.12 0.52 -0.12 1.04 -0.08 1.56 c0.04 0.48 0.08 0.96 0.08 1.48 c0 0.08 0 0.2 0.04 0.28 c0 0.04 0.04 0.08 0.08 0.08 c0.12 0.04 0.2 0.04 0.32 0 c0.6 -0.08 1.2 -0.16 1.8 -0.28 c0.84 -0.2 1.68 -0.32 2.48 -0.48 c0.2 0 0.36 -0.04 0.52 -0.08 s0.24 -0.12 0.24 -0.32 l0 -0.52 l0 -2.08 z M66.984 21.2 c0.4 0.56 0.84 1.08 1.32 1.6 c0.36 0.44 0.8 0.72 1.28 0.96 c0.36 0.12 0.68 0.28 1 0.44 c0.56 0.36 1.04 0.72 1.48 1.16 c0.4 0.4 0.8 0.84 1.24 1.16 c0.12 0.12 0.2 0.24 0.36 0.36 l0.32 0 c0.12 0.04 0.2 0.08 0.28 0.16 c0.28 0.28 0.48 0.6 0.56 1 c0.04 0.32 0.12 0.64 0.24 0.96 c0.12 0.4 0.16 0.84 0.2 1.28 l0 1.16 c0 0.2 0 0.44 0.12 0.64 c0.04 0.08 0.04 0.2 0.04 0.32 c0.04 0.24 0.04 0.48 0.08 0.68 c0.08 0.56 0.08 1.08 -0.04 1.64 c-0.04 0.08 -0.04 0.2 -0.04 0.32 c-0.04 0.08 -0.04 0.2 -0.08 0.32 c-0.16 0.4 -0.24 0.84 -0.4 1.28 c0 0.04 -0.04 0.12 -0.08 0.16 c-0.2 0.28 -0.36 0.6 -0.56 0.88 c-0.08 0.12 -0.16 0.24 -0.28 0.36 c-0.32 0.08 -0.64 0.2 -0.96 0.4 c-0.08 0.08 -0.2 0.12 -0.36 0.12 c-0.12 0 -0.28 0.04 -0.44 0.04 c-0.24 0.04 -0.4 0.12 -0.56 0.32 s-0.36 0.28 -0.6 0.32 l-0.2 0 c-0.24 0.04 -0.52 0.12 -0.76 0.12 c-0.28 0 -0.52 -0.08 -0.76 -0.12 l-0.4 0 c-0.24 0 -0.48 -0.04 -0.68 -0.16 c-0.36 -0.16 -0.76 -0.28 -1.12 -0.36 c-0.28 -0.08 -0.52 -0.2 -0.76 -0.36 s-0.48 -0.32 -0.72 -0.44 c-0.6 -0.32 -1 -0.88 -1.36 -1.48 c-0.04 -0.2 -0.12 -0.4 -0.12 -0.6 c-0.04 -0.4 -0.16 -0.76 -0.2 -1.16 c-0.12 -0.6 -0.24 -1.2 -0.2 -1.8 c0.04 -0.2 0.04 -0.4 0.08 -0.6 c0.04 -0.28 0.08 -0.56 0.08 -0.84 c0 -0.16 0 -0.32 0.04 -0.48 c0.12 -0.28 0.08 -0.52 0.04 -0.76 c-0.08 -0.24 -0.12 -0.44 -0.2 -0.68 c0.08 -0.2 0.16 -0.4 0.24 -0.64 c0.04 -0.12 0.16 -0.2 0.28 -0.2 l0.48 0 c0.44 -0.04 0.92 -0.04 1.36 -0.04 c0.2 0 0.32 0.08 0.44 0.2 c0.08 0.08 0.12 0.16 0.12 0.24 c-0.04 0.24 0 0.44 0.2 0.6 c0.08 0.08 0.12 0.2 0.08 0.36 c-0.04 0.08 -0.08 0.2 -0.12 0.32 c-0.08 0.2 -0.12 0.44 -0.08 0.68 c0.08 0.24 0.04 0.52 0.08 0.76 c0 0.28 -0.04 0.52 0.08 0.8 c0.04 0.12 0.04 0.24 0 0.36 c-0.12 0.36 -0.08 0.68 -0.04 1.04 c0 0.16 0.08 0.32 0.24 0.44 c0.36 0.32 0.72 0.6 1.2 0.76 c0.12 0.04 0.28 0.12 0.4 0.16 c0.2 0.08 0.4 0.12 0.64 0.12 c0.16 0 0.36 0 0.52 0.08 c0.56 0.12 1.08 0.04 1.6 -0.16 c0.2 -0.04 0.4 -0.16 0.6 -0.24 c0.16 -0.44 0.32 -0.84 0.28 -1.32 l0 -2.84 l0 -0.4 c0 -0.28 -0.08 -0.52 -0.36 -0.64 c-0.08 -0.08 -0.16 -0.16 -0.2 -0.28 c-0.08 -0.36 -0.32 -0.64 -0.6 -0.88 c-0.52 -0.48 -1 -0.96 -1.52 -1.44 c-0.12 -0.08 -0.2 -0.2 -0.36 -0.24 c-0.16 0 -0.36 -0.08 -0.48 -0.16 c-0.28 -0.16 -0.56 -0.24 -0.88 -0.32 c-0.8 -0.2 -1.52 -0.56 -2.12 -1.12 c-0.52 -0.48 -0.84 -1.04 -1.16 -1.56 c-0.16 -0.24 -0.28 -0.52 -0.4 -0.76 c-0.2 -0.36 -0.24 -0.8 -0.36 -1.16 c-0.04 -0.08 0 -0.16 0 -0.2 c0.08 -0.28 0.12 -0.52 -0.04 -0.76 c-0.04 -0.48 -0.16 -0.92 -0.12 -1.4 c0.04 -0.44 0.08 -0.88 0.04 -1.32 l0 -0.16 c0.12 -0.32 0.12 -0.6 0.12 -0.92 l0 -1.88 c-0.04 -0.4 0.08 -0.76 0.32 -1.08 c0.08 -0.12 0.12 -0.2 0.2 -0.28 c0.28 -0.36 0.6 -0.76 0.92 -1.12 c0.04 -0.08 0.12 -0.12 0.24 -0.2 c0.36 -0.16 0.64 -0.4 0.96 -0.64 c0.24 -0.2 0.52 -0.36 0.84 -0.48 c0.28 -0.08 0.52 -0.24 0.8 -0.24 c0.12 0 0.24 -0.04 0.4 -0.04 c0.32 0 0.64 -0.04 0.96 -0.08 c0.2 -0.04 0.44 0 0.64 0.04 c0.36 0.04 0.68 0.08 1.04 0.08 c0.24 0.04 0.52 0.04 0.76 0.12 c0.2 0.04 0.4 0.16 0.6 0.28 c0.32 0.2 0.56 0.52 0.76 0.84 c0.16 0.24 0.28 0.48 0.48 0.68 c0.12 0.16 0.24 0.32 0.28 0.52 c0.04 0.12 0.08 0.24 0.16 0.36 c0.12 0.36 0.24 0.72 0.28 1.12 c0.04 0.16 0.08 0.32 0.08 0.44 c0.04 0.32 0.16 0.6 0.4 0.8 c0.12 0.08 0.12 0.16 0.12 0.28 c0 0.48 0 0.96 -0.04 1.44 c-0.08 0.36 -0.08 0.72 -0.08 1.08 c0 0.52 -0.04 1 -0.16 1.48 c-0.04 0.2 -0.04 0.36 0 0.52 c0.04 0.12 0.04 0.2 0.04 0.32 c0 0.08 0 0.12 -0.04 0.2 c-0.16 0.16 -0.32 0.28 -0.52 0.36 c-0.44 0.12 -0.88 0.2 -1.36 0.28 c-0.04 0.04 -0.12 0 -0.16 -0.04 c-0.12 -0.12 -0.28 -0.28 -0.4 -0.44 c0 -0.04 -0.04 -0.12 -0.04 -0.16 c-0.04 -0.28 -0.08 -0.52 -0.08 -0.8 c0.04 -0.36 0 -0.72 0 -1.08 c0 -0.28 0.04 -0.56 -0.04 -0.84 c-0.04 -0.04 -0.04 -0.08 -0.04 -0.12 c0.08 -0.72 -0.12 -1.44 -0.28 -2.12 c0 -0.04 0 -0.08 -0.04 -0.12 c-0.2 -0.36 -0.36 -0.8 -0.68 -1.12 c-0.2 -0.24 -0.44 -0.48 -0.68 -0.68 c-0.28 -0.24 -0.6 -0.36 -0.88 -0.52 l-0.2 0 c-0.44 0 -0.84 0.16 -1.24 0.36 c-0.08 0.04 -0.12 0.12 -0.2 0.16 l-0.56 0.56 s-0.4 0.4 -0.44 0.68 c0 0.12 -0.04 0.2 -0.04 0.28 c-0.04 0.08 -0.08 0.2 -0.04 0.32 c0.04 0.32 -0.16 0.68 -0.12 1 l0 2.88 c0 0.16 0.04 0.32 0.04 0.52 z M85.31 10 l0.6 -0.24 c0.48 -0.2 1 -0.16 1.48 0 c0.12 0.04 0.24 0.12 0.24 0.24 c0.04 0.28 0.08 0.56 0.12 0.8 c0.08 0.6 0 1.2 0.12 1.76 c0.04 0.16 0 0.36 0 0.52 c0 1.2 0 2.4 0.12 3.6 c0.08 1.28 0.08 2.56 0.08 3.84 c0 0.28 0.04 0.56 0.08 0.8 l0 0.68 l0 1.68 c0 0.08 0.04 0.16 0.04 0.24 s0.12 0.16 0.2 0.12 c0.12 0 0.24 -0.04 0.36 -0.08 c0.28 -0.12 0.56 -0.2 0.84 -0.32 c0.12 -0.04 0.28 -0.08 0.4 -0.08 c0.36 0 0.64 -0.08 0.96 -0.16 c0.44 -0.12 0.88 -0.12 1.32 -0.12 c0.08 0 0.2 0.04 0.28 0.08 s0.2 0.12 0.2 0.2 c0.2 0.68 0.36 1.4 0.32 2.12 c0 0.16 0 0.32 -0.04 0.48 s-0.12 0.24 -0.24 0.28 c-0.2 0.04 -0.36 0.12 -0.56 0.12 c-0.64 0 -1.24 0.16 -1.8 0.32 c-0.68 0.16 -1.32 0.4 -2 0.6 c-0.16 0.04 -0.2 0.16 -0.2 0.32 c0 0.8 -0.08 1.6 0 2.36 c0.04 0.2 0.04 0.4 0.04 0.6 l0 6.64 c0 1.04 -0.08 2.12 -0.12 3.16 c0 0.16 -0.12 0.28 -0.28 0.28 c-0.24 0 -0.48 0.04 -0.72 0.08 c-0.64 0.08 -1.32 0.12 -1.96 -0.04 c-0.24 -0.08 -0.36 -0.2 -0.36 -0.4 c-0.08 -0.36 -0.12 -0.76 -0.12 -1.12 c-0.08 -3.2 -0.04 -6.4 -0.04 -9.6 c0 -0.24 0.04 -0.48 -0.08 -0.72 c-0.08 0 -0.2 0 -0.28 0.04 c-0.68 0.24 -1.32 0.48 -2 0.72 c-0.2 0.08 -0.28 0.2 -0.28 0.4 l0 0.64 l0 6.2 c0 0.28 0 0.56 -0.04 0.8 c0 0.2 -0.08 0.28 -0.28 0.32 c-0.56 0.08 -1.16 0.16 -1.76 0.16 c-0.24 0 -0.48 -0.04 -0.72 -0.12 c-0.04 0 -0.08 0 -0.12 -0.04 c-0.2 -0.08 -0.32 -0.2 -0.32 -0.44 c-0.04 -0.4 -0.04 -0.84 -0.04 -1.24 c-0.04 -1.64 -0.04 -3.24 -0.04 -4.88 l0 -0.64 c0 -0.36 -0.04 -0.4 -0.4 -0.4 c-0.16 -0.04 -0.36 -0.04 -0.56 -0.08 c-0.12 0 -0.2 -0.08 -0.24 -0.16 c-0.12 -0.4 -0.24 -0.8 -0.2 -1.24 c0 -0.32 0 -0.68 0.08 -1 c0.08 -0.2 0.16 -0.36 0.4 -0.4 c0.28 -0.12 0.6 -0.2 0.92 -0.28 c0.04 -0.12 0.04 -0.24 0.04 -0.36 c0.04 -1.04 0.04 -2.04 0.08 -3.08 c0 -0.6 0 -1.2 0.04 -1.76 c0.08 -0.6 0.04 -1.2 0.08 -1.76 c0.04 -1.04 0.04 -2.04 0.08 -3.04 c0.04 -0.72 0.04 -1.44 0.08 -2.12 l0.12 -1.56 c0 -0.16 0.04 -0.32 0.08 -0.52 l0.24 -1.08 c0.04 -0.28 0.36 -0.56 0.64 -0.6 l0.32 0 c0.56 0 0.64 0.16 0.68 0.56 c0.04 0.12 0.04 0.2 0.08 0.28 c0.24 0.88 0.32 1.76 0.36 2.64 c0.04 1.12 0.12 2.24 0.12 3.36 c0 0.12 -0.04 0.2 0 0.32 c0.12 1.08 0.12 2.16 0.12 3.24 c0 0.56 0.04 1.12 0.04 1.68 l0 0.28 c0.12 0.68 0.08 1.36 0.08 2 c0 0.16 0.04 0.28 0.04 0.44 c0 0.04 0.08 0.08 0.12 0.08 l0.12 0 l2.16 -0.84 c0.16 -0.08 0.28 -0.16 0.28 -0.36 c0.04 -0.88 0.04 -1.72 0.08 -2.6 c0 -1.24 0 -2.48 0.04 -3.76 c0 -0.64 0.08 -1.32 0.12 -1.96 c0 -0.32 0 -0.6 0.04 -0.88 c0 -1.2 0.04 -2.36 0.08 -3.56 c0.04 -0.64 0.12 -1.32 0.16 -1.96 c0 -0.16 0.04 -0.32 0.08 -0.48 z M102.996 10 l0.6 -0.24 c0.48 -0.2 1 -0.16 1.48 0 c0.12 0.04 0.24 0.12 0.24 0.24 c0.04 0.28 0.08 0.56 0.12 0.8 c0.08 0.6 0 1.2 0.12 1.76 c0.04 0.16 0 0.36 0 0.52 c0 1.2 0 2.4 0.12 3.6 c0.08 1.28 0.08 2.56 0.08 3.84 c0 0.28 0.04 0.56 0.08 0.8 l0 0.68 l0 1.68 c0 0.08 0.04 0.16 0.04 0.24 s0.12 0.16 0.2 0.12 c0.12 0 0.24 -0.04 0.36 -0.08 c0.28 -0.12 0.56 -0.2 0.84 -0.32 c0.12 -0.04 0.28 -0.08 0.4 -0.08 c0.36 0 0.64 -0.08 0.96 -0.16 c0.44 -0.12 0.88 -0.12 1.32 -0.12 c0.08 0 0.2 0.04 0.28 0.08 s0.2 0.12 0.2 0.2 c0.2 0.68 0.36 1.4 0.32 2.12 c0 0.16 0 0.32 -0.04 0.48 s-0.12 0.24 -0.24 0.28 c-0.2 0.04 -0.36 0.12 -0.56 0.12 c-0.64 0 -1.24 0.16 -1.8 0.32 c-0.68 0.16 -1.32 0.4 -2 0.6 c-0.16 0.04 -0.2 0.16 -0.2 0.32 c0 0.8 -0.08 1.6 0 2.36 c0.04 0.2 0.04 0.4 0.04 0.6 l0 6.64 c0 1.04 -0.08 2.12 -0.12 3.16 c0 0.16 -0.12 0.28 -0.28 0.28 c-0.24 0 -0.48 0.04 -0.72 0.08 c-0.64 0.08 -1.32 0.12 -1.96 -0.04 c-0.24 -0.08 -0.36 -0.2 -0.36 -0.4 c-0.08 -0.36 -0.12 -0.76 -0.12 -1.12 c-0.08 -3.2 -0.04 -6.4 -0.04 -9.6 c0 -0.24 0.04 -0.48 -0.08 -0.72 c-0.08 0 -0.2 0 -0.28 0.04 c-0.68 0.24 -1.32 0.48 -2 0.72 c-0.2 0.08 -0.28 0.2 -0.28 0.4 l0 0.64 l0 6.2 c0 0.28 0 0.56 -0.04 0.8 c0 0.2 -0.08 0.28 -0.28 0.32 c-0.56 0.08 -1.16 0.16 -1.76 0.16 c-0.24 0 -0.48 -0.04 -0.72 -0.12 c-0.04 0 -0.08 0 -0.12 -0.04 c-0.2 -0.08 -0.32 -0.2 -0.32 -0.44 c-0.04 -0.4 -0.04 -0.84 -0.04 -1.24 c-0.04 -1.64 -0.04 -3.24 -0.04 -4.88 l0 -0.64 c0 -0.36 -0.04 -0.4 -0.4 -0.4 c-0.16 -0.04 -0.36 -0.04 -0.56 -0.08 c-0.12 0 -0.2 -0.08 -0.24 -0.16 c-0.12 -0.4 -0.24 -0.8 -0.2 -1.24 c0 -0.32 0 -0.68 0.08 -1 c0.08 -0.2 0.16 -0.36 0.4 -0.4 c0.28 -0.12 0.6 -0.2 0.92 -0.28 c0.04 -0.12 0.04 -0.24 0.04 -0.36 c0.04 -1.04 0.04 -2.04 0.08 -3.08 c0 -0.6 0 -1.2 0.04 -1.76 c0.08 -0.6 0.04 -1.2 0.08 -1.76 c0.04 -1.04 0.04 -2.04 0.08 -3.04 c0.04 -0.72 0.04 -1.44 0.08 -2.12 l0.12 -1.56 c0 -0.16 0.04 -0.32 0.08 -0.52 l0.24 -1.08 c0.04 -0.28 0.36 -0.56 0.64 -0.6 l0.32 0 c0.56 0 0.64 0.16 0.68 0.56 c0.04 0.12 0.04 0.2 0.08 0.28 c0.24 0.88 0.32 1.76 0.36 2.64 c0.04 1.12 0.12 2.24 0.12 3.36 c0 0.12 -0.04 0.2 0 0.32 c0.12 1.08 0.12 2.16 0.12 3.24 c0 0.56 0.04 1.12 0.04 1.68 l0 0.28 c0.12 0.68 0.08 1.36 0.08 2 c0 0.16 0.04 0.28 0.04 0.44 c0 0.04 0.08 0.08 0.12 0.08 l0.12 0 l2.16 -0.84 c0.16 -0.08 0.28 -0.16 0.28 -0.36 c0.04 -0.88 0.04 -1.72 0.08 -2.6 c0 -1.24 0 -2.48 0.04 -3.76 c0 -0.64 0.08 -1.32 0.12 -1.96 c0 -0.32 0 -0.6 0.04 -0.88 c0 -1.2 0.04 -2.36 0.08 -3.56 c0.04 -0.64 0.12 -1.32 0.16 -1.96 c0 -0.16 0.04 -0.32 0.08 -0.48 z M120.682 10 l0.6 -0.24 c0.48 -0.2 1 -0.16 1.48 0 c0.12 0.04 0.24 0.12 0.24 0.24 c0.04 0.28 0.08 0.56 0.12 0.8 c0.08 0.6 0 1.2 0.12 1.76 c0.04 0.16 0 0.36 0 0.52 c0 1.2 0 2.4 0.12 3.6 c0.08 1.28 0.08 2.56 0.08 3.84 c0 0.28 0.04 0.56 0.08 0.8 l0 0.68 l0 1.68 c0 0.08 0.04 0.16 0.04 0.24 s0.12 0.16 0.2 0.12 c0.12 0 0.24 -0.04 0.36 -0.08 c0.28 -0.12 0.56 -0.2 0.84 -0.32 c0.12 -0.04 0.28 -0.08 0.4 -0.08 c0.36 0 0.64 -0.08 0.96 -0.16 c0.44 -0.12 0.88 -0.12 1.32 -0.12 c0.08 0 0.2 0.04 0.28 0.08 s0.2 0.12 0.2 0.2 c0.2 0.68 0.36 1.4 0.32 2.12 c0 0.16 0 0.32 -0.04 0.48 s-0.12 0.24 -0.24 0.28 c-0.2 0.04 -0.36 0.12 -0.56 0.12 c-0.64 0 -1.24 0.16 -1.8 0.32 c-0.68 0.16 -1.32 0.4 -2 0.6 c-0.16 0.04 -0.2 0.16 -0.2 0.32 c0 0.8 -0.08 1.6 0 2.36 c0.04 0.2 0.04 0.4 0.04 0.6 l0 6.64 c0 1.04 -0.08 2.12 -0.12 3.16 c0 0.16 -0.12 0.28 -0.28 0.28 c-0.24 0 -0.48 0.04 -0.72 0.08 c-0.64 0.08 -1.32 0.12 -1.96 -0.04 c-0.24 -0.08 -0.36 -0.2 -0.36 -0.4 c-0.08 -0.36 -0.12 -0.76 -0.12 -1.12 c-0.08 -3.2 -0.04 -6.4 -0.04 -9.6 c0 -0.24 0.04 -0.48 -0.08 -0.72 c-0.08 0 -0.2 0 -0.28 0.04 c-0.68 0.24 -1.32 0.48 -2 0.72 c-0.2 0.08 -0.28 0.2 -0.28 0.4 l0 0.64 l0 6.2 c0 0.28 0 0.56 -0.04 0.8 c0 0.2 -0.08 0.28 -0.28 0.32 c-0.56 0.08 -1.16 0.16 -1.76 0.16 c-0.24 0 -0.48 -0.04 -0.72 -0.12 c-0.04 0 -0.08 0 -0.12 -0.04 c-0.2 -0.08 -0.32 -0.2 -0.32 -0.44 c-0.04 -0.4 -0.04 -0.84 -0.04 -1.24 c-0.04 -1.64 -0.04 -3.24 -0.04 -4.88 l0 -0.64 c0 -0.36 -0.04 -0.4 -0.4 -0.4 c-0.16 -0.04 -0.36 -0.04 -0.56 -0.08 c-0.12 0 -0.2 -0.08 -0.24 -0.16 c-0.12 -0.4 -0.24 -0.8 -0.2 -1.24 c0 -0.32 0 -0.68 0.08 -1 c0.08 -0.2 0.16 -0.36 0.4 -0.4 c0.28 -0.12 0.6 -0.2 0.92 -0.28 c0.04 -0.12 0.04 -0.24 0.04 -0.36 c0.04 -1.04 0.04 -2.04 0.08 -3.08 c0 -0.6 0 -1.2 0.04 -1.76 c0.08 -0.6 0.04 -1.2 0.08 -1.76 c0.04 -1.04 0.04 -2.04 0.08 -3.04 c0.04 -0.72 0.04 -1.44 0.08 -2.12 l0.12 -1.56 c0 -0.16 0.04 -0.32 0.08 -0.52 l0.24 -1.08 c0.04 -0.28 0.36 -0.56 0.64 -0.6 l0.32 0 c0.56 0 0.64 0.16 0.68 0.56 c0.04 0.12 0.04 0.2 0.08 0.28 c0.24 0.88 0.32 1.76 0.36 2.64 c0.04 1.12 0.12 2.24 0.12 3.36 c0 0.12 -0.04 0.2 0 0.32 c0.12 1.08 0.12 2.16 0.12 3.24 c0 0.56 0.04 1.12 0.04 1.68 l0 0.28 c0.12 0.68 0.08 1.36 0.08 2 c0 0.16 0.04 0.28 0.04 0.44 c0 0.04 0.08 0.08 0.12 0.08 l0.12 0 l2.16 -0.84 c0.16 -0.08 0.28 -0.16 0.28 -0.36 c0.04 -0.88 0.04 -1.72 0.08 -2.6 c0 -1.24 0 -2.48 0.04 -3.76 c0 -0.64 0.08 -1.32 0.12 -1.96 c0 -0.32 0 -0.6 0.04 -0.88 c0 -1.2 0.04 -2.36 0.08 -3.56 c0.04 -0.64 0.12 -1.32 0.16 -1.96 c0 -0.16 0.04 -0.32 0.08 -0.48 z"></path>
  </g>
</svg>
